<?xml version="1.0" standalone="no"?>
<!DOCTYPE svg PUBLIC "-//W3C//DTD SVG 1.1//EN"
"http://www.w3.org/Graphics/SVG/1.1/DTD/svg11.dtd">
<svg width="141.241" height="141.241" viewBox="0 0 2942.52 2942.52" version="1.1"
xmlns="http://www.w3.org/2000/svg"
xmlns:xlink="http://www.w3.org/1999/xlink">
<polyline points="531.942,1871.66 532.186,1875.65 532.816,1879.49 534.04,1883.92 535.47,1887.55 537.308,1891.09 539.442,1894.35 542.352,1897.91 545.128,1900.64 548.244,1903.14 553.282,1906.4 558.45,1910.39 562.888,1915.18 566.474,1920.64 569.108,1926.62 570.718,1932.94 571.258,1939.45 571.818,1932.85 573.476,1926.43 576.188,1920.38 579.878,1914.87 584.44,1910.06 589.744,1906.08 593.22,1903.9 595.874,1901.94 598.362,1899.78 600.186,1897.93 602.38,1895.33 603.9,1893.22 605.674,1890.32 606.904,1887.92 607.958,1885.43 609.014,1882.31 609.81,1879.11 610.244,1876.54 610.554,1873.16 610.596,1870.46 610.446,1867.77 609.998,1864.4 609.46,1861.85 608.702,1859.27 606.312,1853.56 603.136,1848.25 601.504,1846.1 600.176,1844.61 595.074,1839.98 592.886,1838.4 590.67,1837.04 587.644,1835.49 585.8,1834.72 579.774,1832.93 573.654,1832.02 570.958,1831.92 568.262,1832.03 565.58,1832.33 562.93,1832.84 556.442,1834.84 553.97,1835.92 552.206,1836.86 546.998,1840.38 542.862,1844.14 539.046,1848.75 537.108,1851.77 535.352,1855.25 533.73,1859.55 532.776,1863.22 532.1,1867.77 531.942,1871.66" style="stroke:rgb(255,0,0);stroke-width:0.000000;fill:none;stroke-opacity:0.5;stroke-linecap:round;stroke-linejoin:round;;fill:none"/>
<polyline points="531.942,1871.66 532.186,1875.65 532.816,1879.49 534.04,1883.92 535.47,1887.55 537.308,1891.09 539.442,1894.35 542.352,1897.91 545.128,1900.64 548.244,1903.14 553.282,1906.4 558.45,1910.39 562.888,1915.18 566.474,1920.64 569.108,1926.62 570.718,1932.94 571.258,1939.45 571.818,1932.85 573.476,1926.43 576.188,1920.38 579.878,1914.87 584.44,1910.06 589.744,1906.08 593.22,1903.9 595.874,1901.94 598.362,1899.78 600.186,1897.93 602.38,1895.33 603.9,1893.22 605.674,1890.32 606.904,1887.92 607.958,1885.43 609.014,1882.31 609.81,1879.11 610.244,1876.54 610.554,1873.16 610.596,1870.46 610.446,1867.77 609.998,1864.4 609.46,1861.85 608.702,1859.27 606.312,1853.56 603.136,1848.25 601.504,1846.1 600.176,1844.61 595.074,1839.98 592.886,1838.4 590.67,1837.04 587.644,1835.49 585.8,1834.72 579.774,1832.93 573.654,1832.02 570.958,1831.92 568.262,1832.03 565.58,1832.33 562.93,1832.84 556.442,1834.84 553.97,1835.92 552.206,1836.86 546.998,1840.38 542.862,1844.14 539.046,1848.75 537.108,1851.77 535.352,1855.25 533.73,1859.55 532.776,1863.22 532.1,1867.77 531.942,1871.66" style="stroke:rgb(0,0,0);stroke-width:1px;fill:none;stroke-opacity:1;stroke-linecap:round;stroke-linejoin:round;;fill:none"/>
<polyline points="571.266,2470.67 571.294,2471.06 571.31,2471.14 571.472,2471.18 572.648,2471.26 610.63,2471.26 602.948,2470.5 595.562,2468.26 588.756,2464.63 582.79,2459.73 577.894,2453.76 574.256,2446.96 572.016,2439.57 571.266,2431.97 571.266,2470.67" style="stroke:rgb(255,0,0);stroke-width:0.000000;fill:none;stroke-opacity:0.5;stroke-linecap:round;stroke-linejoin:round;;fill:none"/>
<polyline points="571.266,2470.67 571.294,2471.06 571.31,2471.14 571.472,2471.18 572.648,2471.26 610.63,2471.26 602.948,2470.5 595.562,2468.26 588.756,2464.63 582.79,2459.73 577.894,2453.76 574.256,2446.96 572.016,2439.57 571.266,2431.97 571.266,2470.67" style="stroke:rgb(0,0,0);stroke-width:1px;fill:none;stroke-opacity:1;stroke-linecap:round;stroke-linejoin:round;;fill:none"/>
<polyline points="1431.89,2471.26 1439.32,2470.55 1446.49,2468.45 1453.13,2465.04 1459.01,2460.43 1463.91,2454.79 1467.66,2448.33 1470.12,2441.28 1471.21,2433.89 1471.23,2433.38 1471.26,2433.58 1471.21,2508.44 1471.13,2507.43 1469.86,2500.22 1467.28,2493.38 1463.47,2487.12 1458.57,2481.68 1452.75,2477.24 1446.21,2473.96 1439.18,2471.94 1431.89,2471.26" style="stroke:rgb(255,0,0);stroke-width:0.000000;fill:none;stroke-opacity:0.5;stroke-linecap:round;stroke-linejoin:round;;fill:none"/>
<polyline points="1431.89,2471.26 1439.32,2470.55 1446.49,2468.45 1453.13,2465.04 1459.01,2460.43 1463.91,2454.79 1467.66,2448.33 1470.12,2441.28 1471.21,2433.89 1471.23,2433.38 1471.26,2433.58 1471.21,2508.44 1471.13,2507.43 1469.86,2500.22 1467.28,2493.38 1463.47,2487.12 1458.57,2481.68 1452.75,2477.24 1446.21,2473.96 1439.18,2471.94 1431.89,2471.26" style="stroke:rgb(0,0,0);stroke-width:1px;fill:none;stroke-opacity:1;stroke-linecap:round;stroke-linejoin:round;;fill:none"/>
<polyline points="531.978,870.862 532.372,865.688 533.466,860.514 534.978,856.18 537.384,851.356 539.936,847.542 543.41,843.554 547.304,840.126 553.782,835.792 559.742,830.894 564.632,824.93 568.266,818.128 570.504,810.746 571.258,803.07 571.818,809.676 573.476,816.096 576.188,822.146 579.878,827.654 584.44,832.466 589.744,836.444 593.22,838.62 595.39,840.22 599.93,844.426 603.446,848.764 606.312,853.558 608.702,859.266 609.46,861.854 609.872,863.808 610.572,870.664 610.544,873.36 610.354,875.55 609.392,880.754 607.952,885.326 606.01,889.594 603.174,894.178 600.284,897.744 596.386,901.466 592.692,904.19 587.984,906.814 583.724,908.522 578.508,909.878 573.954,910.46 568.664,910.46 563.422,909.762 558.888,908.56 554.534,906.814 549.826,904.19 546.132,901.466 542.234,897.744 539.28,894.1 536.738,890.038 534.752,885.788 533.108,880.656 532.272,876.142 531.978,870.862" style="stroke:rgb(255,0,0);stroke-width:0.000000;fill:none;stroke-opacity:0.5;stroke-linecap:round;stroke-linejoin:round;;fill:none"/>
<polyline points="531.978,870.862 532.372,865.688 533.466,860.514 534.978,856.18 537.384,851.356 539.936,847.542 543.41,843.554 547.304,840.126 553.782,835.792 559.742,830.894 564.632,824.93 568.266,818.128 570.504,810.746 571.258,803.07 571.818,809.676 573.476,816.096 576.188,822.146 579.878,827.654 584.44,832.466 589.744,836.444 593.22,838.62 595.39,840.22 599.93,844.426 603.446,848.764 606.312,853.558 608.702,859.266 609.46,861.854 609.872,863.808 610.572,870.664 610.544,873.36 610.354,875.55 609.392,880.754 607.952,885.326 606.01,889.594 603.174,894.178 600.284,897.744 596.386,901.466 592.692,904.19 587.984,906.814 583.724,908.522 578.508,909.878 573.954,910.46 568.664,910.46 563.422,909.762 558.888,908.56 554.534,906.814 549.826,904.19 546.132,901.466 542.234,897.744 539.28,894.1 536.738,890.038 534.752,885.788 533.108,880.656 532.272,876.142 531.978,870.862" style="stroke:rgb(0,0,0);stroke-width:1px;fill:none;stroke-opacity:1;stroke-linecap:round;stroke-linejoin:round;;fill:none"/>
<polyline points="571.266,260.556 571.266,222.254 571.352,221.324 571.66,221.292 610.34,221.29 602.948,222.018 595.562,224.258 588.756,227.896 582.79,232.792 577.894,238.758 574.256,245.564 572.016,252.95 571.266,260.556" style="stroke:rgb(255,0,0);stroke-width:0.000000;fill:none;stroke-opacity:0.5;stroke-linecap:round;stroke-linejoin:round;;fill:none"/>
<polyline points="571.266,260.556 571.266,222.254 571.352,221.324 571.66,221.292 610.34,221.29 602.948,222.018 595.562,224.258 588.756,227.896 582.79,232.792 577.894,238.758 574.256,245.564 572.016,252.95 571.266,260.556" style="stroke:rgb(0,0,0);stroke-width:1px;fill:none;stroke-opacity:1;stroke-linecap:round;stroke-linejoin:round;;fill:none"/>
<polyline points="943.242,221.26 950.504,220.586 957.514,218.582 963.37,215.654 968.454,218.334 975.756,220.522 983.344,221.26 943.242,221.26" style="stroke:rgb(255,0,0);stroke-width:0.000000;fill:none;stroke-opacity:0.5;stroke-linecap:round;stroke-linejoin:round;;fill:none"/>
<polyline points="943.242,221.26 950.504,220.586 957.514,218.582 963.37,215.654 968.454,218.334 975.756,220.522 983.344,221.26 943.242,221.26" style="stroke:rgb(0,0,0);stroke-width:1px;fill:none;stroke-opacity:1;stroke-linecap:round;stroke-linejoin:round;;fill:none"/>
<polyline points="1671.26,2433.45 1671.41,2507.42 1672.61,2500.39 1675.18,2493.51 1678.97,2487.22 1683.87,2481.75 1689.7,2477.28 1696.26,2473.98 1703.32,2471.95 1710.63,2471.26 1703.22,2470.56 1696.07,2468.47 1689.45,2465.08 1683.58,2460.5 1678.68,2454.89 1674.92,2448.47 1672.44,2441.45 1671.32,2434.09 1671.28,2433.29 1671.26,2433.45" style="stroke:rgb(255,0,0);stroke-width:0.000000;fill:none;stroke-opacity:0.5;stroke-linecap:round;stroke-linejoin:round;;fill:none"/>
<polyline points="1671.26,2433.45 1671.41,2507.42 1672.61,2500.39 1675.18,2493.51 1678.97,2487.22 1683.87,2481.75 1689.7,2477.28 1696.26,2473.98 1703.32,2471.95 1710.63,2471.26 1703.22,2470.56 1696.07,2468.47 1689.45,2465.08 1683.58,2460.5 1678.68,2454.89 1674.92,2448.47 1672.44,2441.45 1671.32,2434.09 1671.28,2433.29 1671.26,2433.45" style="stroke:rgb(0,0,0);stroke-width:1px;fill:none;stroke-opacity:1;stroke-linecap:round;stroke-linejoin:round;;fill:none"/>
<polyline points="2531.97,2471.25 2569.67,2471.25 2571.12,2471.08 2571.25,2469.87 2571.25,2431.97 2570.5,2439.57 2568.26,2446.96 2564.62,2453.76 2559.73,2459.73 2553.76,2464.63 2546.96,2468.26 2539.57,2470.5 2531.97,2471.25" style="stroke:rgb(255,0,0);stroke-width:0.000000;fill:none;stroke-opacity:0.5;stroke-linecap:round;stroke-linejoin:round;;fill:none"/>
<polyline points="2531.97,2471.25 2569.67,2471.25 2571.12,2471.08 2571.25,2469.87 2571.25,2431.97 2570.5,2439.57 2568.26,2446.96 2564.62,2453.76 2559.73,2459.73 2553.76,2464.63 2546.96,2468.26 2539.57,2470.5 2531.97,2471.25" style="stroke:rgb(0,0,0);stroke-width:1px;fill:none;stroke-opacity:1;stroke-linecap:round;stroke-linejoin:round;;fill:none"/>
<polyline points="2532.02,1572.86 2532.64,1578.41 2534.05,1583.81 2536.21,1588.96 2539.07,1593.76 2542.97,1598.56 2544.89,1600.46 2546.42,1601.75 2553.95,1606.84 2559.85,1611.74 2564.7,1617.69 2568.3,1624.47 2570.51,1631.82 2571.26,1639.45 2572.01,1631.78 2574.25,1624.39 2577.89,1617.59 2582.78,1611.63 2588.74,1606.73 2595.3,1602.34 2598.83,1599.26 2601.97,1595.77 2604.98,1591.42 2607.38,1586.71 2608.94,1582.39 2610.11,1577.13 2610.55,1572.36 2610.43,1567.97 2609.92,1564.11 2609,1560.22 2607.71,1556.54 2605.75,1552.39 2603.71,1549.06 2601.29,1545.89 2598.84,1543.26 2594.24,1539.42 2589.5,1536.48 2584.28,1534.21 2579.48,1532.85 2573.85,1532.08 2568.27,1532.1 2562.64,1532.94 2557.86,1534.34 2552.67,1536.67 2547.87,1539.71 2544.06,1542.93 2540.26,1547.16 2537.09,1551.88 2534.91,1556.37 2533.15,1561.77 2532.19,1567.28 2532.02,1572.86" style="stroke:rgb(255,0,0);stroke-width:0.000000;fill:none;stroke-opacity:0.5;stroke-linecap:round;stroke-linejoin:round;;fill:none"/>
<polyline points="2532.02,1572.86 2532.64,1578.41 2534.05,1583.81 2536.21,1588.96 2539.07,1593.76 2542.97,1598.56 2544.89,1600.46 2546.42,1601.75 2553.95,1606.84 2559.85,1611.74 2564.7,1617.69 2568.3,1624.47 2570.51,1631.82 2571.26,1639.45 2572.01,1631.78 2574.25,1624.39 2577.89,1617.59 2582.78,1611.63 2588.74,1606.73 2595.3,1602.34 2598.83,1599.26 2601.97,1595.77 2604.98,1591.42 2607.38,1586.71 2608.94,1582.39 2610.11,1577.13 2610.55,1572.36 2610.43,1567.97 2609.92,1564.11 2609,1560.22 2607.71,1556.54 2605.75,1552.39 2603.71,1549.06 2601.29,1545.89 2598.84,1543.26 2594.24,1539.42 2589.5,1536.48 2584.28,1534.21 2579.48,1532.85 2573.85,1532.08 2568.27,1532.1 2562.64,1532.94 2557.86,1534.34 2552.67,1536.67 2547.87,1539.71 2544.06,1542.93 2540.26,1547.16 2537.09,1551.88 2534.91,1556.37 2533.15,1561.77 2532.19,1567.28 2532.02,1572.86" style="stroke:rgb(0,0,0);stroke-width:1px;fill:none;stroke-opacity:1;stroke-linecap:round;stroke-linejoin:round;;fill:none"/>
<polyline points="1871.37,771.286 1872.81,772.606 1874.43,774.374 1876.45,773.468 1882.86,771.816 1889.45,771.26 1883.02,770.734 1876.77,769.164 1874.44,768.152 1873.25,769.51 1871.37,771.286" style="stroke:rgb(255,0,0);stroke-width:0.000000;fill:none;stroke-opacity:0.5;stroke-linecap:round;stroke-linejoin:round;;fill:none"/>
<polyline points="1871.37,771.286 1872.81,772.606 1874.43,774.374 1876.45,773.468 1882.86,771.816 1889.45,771.26 1883.02,770.734 1876.77,769.164 1874.44,768.152 1873.25,769.51 1871.37,771.286" style="stroke:rgb(0,0,0);stroke-width:1px;fill:none;stroke-opacity:1;stroke-linecap:round;stroke-linejoin:round;;fill:none"/>
<polyline points="2531.89,771.26 2570.07,771.26 2571.17,771.328 2571.19,771.468 2571.2,809.992 2570.5,802.95 2568.26,795.564 2564.62,788.758 2559.73,782.792 2553.76,777.896 2546.96,774.258 2539.57,772.018 2531.89,771.26" style="stroke:rgb(255,0,0);stroke-width:0.000000;fill:none;stroke-opacity:0.5;stroke-linecap:round;stroke-linejoin:round;;fill:none"/>
<polyline points="2531.89,771.26 2570.07,771.26 2571.17,771.328 2571.19,771.468 2571.2,809.992 2570.5,802.95 2568.26,795.564 2564.62,788.758 2559.73,782.792 2553.76,777.896 2546.96,774.258 2539.57,772.018 2531.89,771.26" style="stroke:rgb(0,0,0);stroke-width:1px;fill:none;stroke-opacity:1;stroke-linecap:round;stroke-linejoin:round;;fill:none"/>
<polyline points="2531.93,1172.06 2531.99,1168.86 2532.32,1165.68 2532.9,1162.54 2533.74,1159.45 2534.82,1156.44 2536.15,1153.53 2537.7,1150.73 2539.48,1148.07 2541.47,1145.57 2543.66,1143.23 2545.95,1141.15 2548.97,1138.85 2552.94,1136.34 2558.2,1132.35 2562.72,1127.55 2566.38,1122.06 2569.06,1116.03 2570.71,1109.64 2571.26,1103.07 2571.81,1109.62 2573.43,1115.97 2576.09,1121.97 2579.71,1127.45 2584.19,1132.24 2589.41,1136.23 2593.87,1139.09 2597.17,1141.68 2599.63,1144.03 2602.37,1147.2 2604.33,1149.98 2606.41,1153.62 2607.8,1156.72 2609.14,1160.7 2609.93,1164.1 2610.42,1167.67 2610.58,1171.16 2610.37,1175.35 2609.87,1178.71 2608.86,1182.78 2607.72,1185.99 2605.86,1189.97 2604.66,1192.05 2603.14,1194.27 2598.7,1199.42 2596.73,1201.25 2595.16,1202.49 2589.85,1205.85 2584.11,1208.43 2582.21,1209.05 2579.01,1209.83 2575.75,1210.35 2573.16,1210.56 2569.76,1210.57 2567.77,1210.43 2560.98,1209.21 2558.4,1208.44 2555.88,1207.48 2553.43,1206.33 2550.56,1204.71 2547.83,1202.86 2546.26,1201.62 2541.28,1196.72 2540.02,1195.17 2538.07,1192.39 2536.75,1190.15 2535.25,1187.1 2534.28,1184.69 2533.29,1181.54 2532.58,1178.42 2532.12,1175.25 2531.93,1172.06" style="stroke:rgb(255,0,0);stroke-width:0.000000;fill:none;stroke-opacity:0.5;stroke-linecap:round;stroke-linejoin:round;;fill:none"/>
<polyline points="2531.93,1172.06 2531.99,1168.86 2532.32,1165.68 2532.9,1162.54 2533.74,1159.45 2534.82,1156.44 2536.15,1153.53 2537.7,1150.73 2539.48,1148.07 2541.47,1145.57 2543.66,1143.23 2545.95,1141.15 2548.97,1138.85 2552.94,1136.34 2558.2,1132.35 2562.72,1127.55 2566.38,1122.06 2569.06,1116.03 2570.71,1109.64 2571.26,1103.07 2571.81,1109.62 2573.43,1115.97 2576.09,1121.97 2579.71,1127.45 2584.19,1132.24 2589.41,1136.23 2593.87,1139.09 2597.17,1141.68 2599.63,1144.03 2602.37,1147.2 2604.33,1149.98 2606.41,1153.62 2607.8,1156.72 2609.14,1160.7 2609.93,1164.1 2610.42,1167.67 2610.58,1171.16 2610.37,1175.35 2609.87,1178.71 2608.86,1182.78 2607.72,1185.99 2605.86,1189.97 2604.66,1192.05 2603.14,1194.27 2598.7,1199.42 2596.73,1201.25 2595.16,1202.49 2589.85,1205.85 2584.11,1208.43 2582.21,1209.05 2579.01,1209.83 2575.75,1210.35 2573.16,1210.56 2569.76,1210.57 2567.77,1210.43 2560.98,1209.21 2558.4,1208.44 2555.88,1207.48 2553.43,1206.33 2550.56,1204.71 2547.83,1202.86 2546.26,1201.62 2541.28,1196.72 2540.02,1195.17 2538.07,1192.39 2536.75,1190.15 2535.25,1187.1 2534.28,1184.69 2533.29,1181.54 2532.58,1178.42 2532.12,1175.25 2531.93,1172.06" style="stroke:rgb(0,0,0);stroke-width:1px;fill:none;stroke-opacity:1;stroke-linecap:round;stroke-linejoin:round;;fill:none"/>
</svg>
