<?xml version="1.0" standalone="no"?>
<!DOCTYPE svg PUBLIC "-//W3C//DTD SVG 1.1//EN"
"http://www.w3.org/Graphics/SVG/1.1/DTD/svg11.dtd">
<svg width="103.559" height="117.959" viewBox="0 0 2157.48 2457.48" version="1.1"
xmlns="http://www.w3.org/2000/svg"
xmlns:xlink="http://www.w3.org/1999/xlink">
<g fill-rule="evenodd"><path d="M -1.13687e-13,1778.74 L 0.329406,1771.55 L 1.46455,1763.62 L 3.16906,1756.63 L 5.80373,1749.07 L 8.81993,1742.53 L 12.8561,1735.62 L 17.5728,1729.16 L 22.9211,1723.2 L 28.2292,1718.34 L 34.6208,1713.52 L 41.468,1709.38 L 48.7001,1705.96 L 56.2425,1703.28 L 63.2315,1701.54 L 71.1468,1700.37 L 78.3399,1700 L 85.5364,1700.29 L 93.4631,1701.39 L 101.238,1703.28 L 108.78,1705.96 L 116.012,1709.38 L 122.86,1713.52 L 128.634,1717.83 L 134.559,1723.2 L 139.4,1728.54 L 144.182,1734.95 L 147.91,1741.12 L 151.371,1748.33 L 154.083,1755.86 L 155.858,1762.84 L 157.074,1770.75 L 157.48,1778.74 L 157.151,1785.94 L 156.016,1793.86 L 154.311,1800.85 L 151.677,1808.41 L 148.289,1815.66 L 144.182,1822.53 L 139.908,1828.32 L 134.559,1834.28 L 129.251,1839.14 L 122.86,1843.96 L 116.012,1848.1 L 108.78,1851.52 L 101.238,1854.2 L 94.2488,1855.94 L 86.3335,1857.11 L 79.1404,1857.48 L 71.944,1857.19 L 64.0172,1856.09 L 56.2425,1854.2 L 48.7001,1851.52 L 41.468,1848.1 L 34.6208,1843.96 L 28.846,1839.65 L 22.9211,1834.28 L 18.08,1828.94 L 13.2979,1822.53 L 9.57063,1816.36 L 6.10915,1809.15 L 3.39779,1801.62 L 1.62223,1794.64 L 0.406607,1786.73 L -1.13687e-13,1778.74 z " style="fill-opacity:1.000000;fill:rgb(33,1,197);stroke:rgb(0,0,0);stroke-width:2"/></g>
<g fill-rule="evenodd"><path d="M -1.13687e-13,778.74 L 0.329406,771.545 L 1.46455,763.624 L 3.16906,756.626 L 5.80373,749.07 L 8.81993,742.53 L 12.8561,735.62 L 17.5728,729.156 L 22.9211,723.204 L 28.2292,718.336 L 34.6208,713.521 L 41.468,709.38 L 48.7001,705.956 L 55.4765,703.515 L 63.2315,701.542 L 70.3504,700.448 L 78.3399,700.001 L 85.5364,700.294 L 93.4631,701.389 L 100.47,703.058 L 108.039,705.654 L 114.594,708.637 L 121.524,712.638 L 128.012,717.321 L 133.992,722.64 L 139.4,728.537 L 144.182,734.953 L 147.91,741.116 L 151.371,748.33 L 153.846,755.094 L 155.858,762.839 L 157.074,770.748 L 157.48,778.74 L 157.151,785.935 L 156.016,793.856 L 154.311,800.854 L 151.677,808.41 L 148.289,815.659 L 144.182,822.527 L 139.908,828.324 L 134.559,834.276 L 129.251,839.144 L 122.86,843.959 L 116.012,848.1 L 108.78,851.525 L 102.004,853.965 L 94.2488,855.938 L 87.13,857.032 L 79.1404,857.479 L 71.1468,857.113 L 63.2315,855.938 L 56.2425,854.198 L 48.7001,851.525 L 41.468,848.1 L 34.6208,843.959 L 28.846,839.655 L 22.9211,834.276 L 18.08,828.943 L 13.2979,822.527 L 9.57063,816.364 L 6.10915,809.15 L 3.63431,802.386 L 1.62223,794.641 L 0.406607,786.732 L -1.13687e-13,778.74 z " style="fill-opacity:1.000000;fill:rgb(79,209,208);stroke:rgb(0,0,0);stroke-width:2"/></g>
<g fill-rule="evenodd"><path d="M 450,678.74 L 450.329,671.545 L 451.465,663.624 L 453.398,655.859 L 456.109,648.33 L 459.192,641.821 L 463.298,634.953 L 467.573,629.156 L 472.921,623.204 L 478.229,618.336 L 484.621,613.521 L 490.765,609.763 L 497.962,606.265 L 504.713,603.755 L 512.447,601.704 L 520.35,600.448 L 528.34,600.001 L 536.334,600.367 L 544.249,601.542 L 551.238,603.282 L 558.78,605.956 L 566.012,609.38 L 572.194,613.076 L 578.634,617.826 L 584.559,623.204 L 589.4,628.537 L 594.182,634.953 L 597.91,641.116 L 601.371,648.33 L 604.083,655.859 L 606.016,663.624 L 607.074,670.748 L 607.48,678.74 L 607.151,685.935 L 606.016,693.856 L 604.083,701.621 L 601.371,709.15 L 598.289,715.659 L 594.182,722.527 L 589.908,728.324 L 584.559,734.276 L 579.251,739.144 L 572.86,743.959 L 566.716,747.718 L 559.519,751.216 L 552.767,753.725 L 545.033,755.776 L 537.13,757.032 L 529.14,757.479 L 521.147,757.113 L 513.232,755.938 L 506.242,754.198 L 498.7,751.525 L 491.468,748.1 L 485.286,744.404 L 478.846,739.655 L 472.921,734.276 L 468.08,728.943 L 463.298,722.527 L 459.571,716.364 L 456.109,709.15 L 453.398,701.621 L 451.465,693.856 L 450.407,686.732 L 450,678.74M 489.372,678.34 L 489.957,685.511 L 490.844,689.412 L 492.123,693.203 L 493.78,696.845 L 495.798,700.3 L 498.156,703.532 L 500.831,706.508 L 506.35,711.124 L 509.752,713.229 L 513.351,714.978 L 520.203,717.173 L 524.147,717.841 L 528.14,718.106 L 535.314,717.558 L 539.22,716.69 L 543.017,715.43 L 549.456,712.219 L 552.747,709.944 L 555.79,707.346 L 558.554,704.453 L 561.009,701.295 L 563.132,697.903 L 564.899,694.313 L 566.293,690.563 L 567.299,686.691 L 568.102,679.541 L 567.98,675.541 L 567.453,671.575 L 565.502,664.65 L 563.883,660.991 L 561.9,657.516 L 559.574,654.26 L 556.931,651.257 L 551.458,646.586 L 548.078,644.446 L 544.497,642.661 L 537.668,640.396 L 533.73,639.688 L 529.741,639.383 L 522.562,639.858 L 518.647,640.686 L 514.837,641.907 L 511.17,643.508 L 507.685,645.473 L 504.417,647.782 L 501.401,650.41 L 496.702,655.859 L 494.545,659.229 L 492.741,662.8 L 491.309,666.536 L 490.264,670.398 L 489.616,674.346 L 489.372,678.34 z " style="fill-opacity:1.000000;fill:rgb(26,178,37);stroke:rgb(0,0,0);stroke-width:2"/></g>
<g fill-rule="evenodd"><path d="M 450,78.7402 L 450.329,71.5453 L 451.465,63.6242 L 453.398,55.8592 L 456.109,48.3305 L 459.192,41.821 L 463.298,34.9529 L 467.573,29.1563 L 472.921,23.2042 L 478.229,18.336 L 484.621,13.5214 L 490.765,9.76278 L 497.962,6.26467 L 504.713,3.75548 L 512.447,1.70406 L 520.35,0.448245 L 528.34,0.00101739 L 536.334,0.366994 L 544.249,1.54239 L 551.238,3.28245 L 558.78,5.9555 L 566.012,9.38026 L 572.194,13.0762 L 578.634,17.8256 L 584.559,23.2042 L 589.4,28.537 L 594.182,34.9529 L 597.91,41.1158 L 601.371,48.3305 L 604.083,55.8592 L 606.016,63.6242 L 607.074,70.7485 L 607.48,78.7402 L 607.151,85.935 L 606.016,93.8562 L 604.083,101.621 L 601.371,109.15 L 598.289,115.659 L 594.182,122.527 L 589.908,128.324 L 584.559,134.276 L 579.251,139.144 L 572.86,143.959 L 566.716,147.718 L 559.519,151.216 L 552.767,153.725 L 545.033,155.776 L 537.13,157.032 L 529.14,157.479 L 521.147,157.113 L 513.232,155.938 L 506.242,154.198 L 498.7,151.525 L 491.468,148.1 L 485.286,144.404 L 478.846,139.655 L 472.921,134.276 L 468.08,128.943 L 463.298,122.527 L 459.571,116.364 L 456.109,109.15 L 453.398,101.621 L 451.465,93.8562 L 450.407,86.7319 L 450,78.7402M 489.372,78.3399 L 489.957,85.511 L 490.844,89.4123 L 492.123,93.2035 L 493.78,96.8452 L 495.798,100.3 L 498.156,103.532 L 500.831,106.508 L 506.35,111.124 L 509.752,113.229 L 513.351,114.978 L 520.203,117.173 L 524.147,117.841 L 528.14,118.106 L 535.314,117.558 L 539.22,116.69 L 543.017,115.43 L 549.456,112.219 L 552.747,109.944 L 555.79,107.346 L 558.554,104.453 L 561.009,101.295 L 563.132,97.903 L 564.899,94.3134 L 566.293,90.5631 L 567.299,86.6906 L 568.102,79.5407 L 567.98,75.5415 L 567.453,71.5754 L 565.502,64.6499 L 563.883,60.9915 L 561.9,57.5163 L 559.574,54.2604 L 556.931,51.2573 L 551.458,46.586 L 548.078,44.4463 L 544.497,42.6607 L 537.668,40.3957 L 533.73,39.6876 L 529.741,39.3828 L 525.741,39.4845 L 521.772,39.9916 L 517.875,40.8989 L 514.091,42.197 L 510.458,43.8725 L 507.013,45.9082 L 501.401,50.4104 L 496.702,55.8588 L 494.545,59.2287 L 492.741,62.8001 L 491.309,66.5361 L 490.264,70.3981 L 489.616,74.3463 L 489.372,78.3399 z " style="fill-opacity:1.000000;fill:rgb(116,203,55);stroke:rgb(0,0,0);stroke-width:2"/></g>
<g fill-rule="evenodd"><path d="M 939.372,2418.51 L 939.372,2338.97 L 939.827,2333.39 L 940.738,2329.08 L 942.272,2324.54 L 944.348,2320.21 L 946.702,2316.49 L 949.725,2312.76 L 952.876,2309.69 L 956.68,2306.76 L 960.813,2304.32 L 964.837,2302.54 L 969.423,2301.12 L 974.147,2300.27 L 978.54,2300 L 983.333,2300.27 L 987.668,2301.03 L 991.892,2302.26 L 996.31,2304.14 L 1000.13,2306.32 L 1004,2309.17 L 1007.48,2312.47 L 1010.31,2315.84 L 1012.94,2319.86 L 1014.9,2323.8 L 1016.53,2328.31 L 1017.52,2332.6 L 1018.11,2339.37 L 1018.11,2418.51 L 1017.65,2424.09 L 1015.78,2431.45 L 1014.24,2435.14 L 1012.32,2438.66 L 1007.76,2444.72 L 1002.11,2449.8 L 995.59,2453.69 L 991.892,2455.22 L 988.057,2456.36 L 980.541,2457.44 L 976.54,2457.42 L 972.562,2456.99 L 967.108,2455.72 L 961.89,2453.69 L 957.013,2450.94 L 952.278,2447.26 L 948.41,2443.21 L 944.949,2438.31 L 942.425,2433.32 L 940.635,2428.01 L 939.713,2423.3 L 939.372,2418.51 z " style="fill-opacity:1.000000;fill:rgb(138,174,245);stroke:rgb(0,0,0);stroke-width:2"/></g>
<g fill-rule="evenodd"><path d="M 1139.37,2418.51 L 1139.37,2338.97 L 1139.83,2333.39 L 1140.74,2329.08 L 1142.27,2324.54 L 1144.35,2320.21 L 1146.7,2316.49 L 1149.72,2312.76 L 1152.88,2309.69 L 1156.68,2306.76 L 1160.81,2304.32 L 1164.84,2302.54 L 1169.42,2301.12 L 1174.15,2300.27 L 1178.54,2300 L 1183.33,2300.27 L 1187.67,2301.03 L 1191.89,2302.26 L 1196.31,2304.14 L 1200.13,2306.32 L 1204,2309.17 L 1207.48,2312.47 L 1210.31,2315.84 L 1212.94,2319.86 L 1214.9,2323.8 L 1216.53,2328.31 L 1217.52,2332.6 L 1218.11,2339.37 L 1218.11,2418.51 L 1217.65,2424.09 L 1215.78,2431.45 L 1214.24,2435.14 L 1212.32,2438.66 L 1207.76,2444.72 L 1202.11,2449.8 L 1195.59,2453.69 L 1191.89,2455.22 L 1188.06,2456.36 L 1180.54,2457.44 L 1176.54,2457.42 L 1172.56,2456.99 L 1167.11,2455.72 L 1161.89,2453.69 L 1156.68,2450.72 L 1152.28,2447.26 L 1148.41,2443.21 L 1144.95,2438.31 L 1142.42,2433.32 L 1140.63,2428.01 L 1139.71,2423.3 L 1139.37,2418.51 z " style="fill-opacity:1.000000;fill:rgb(177,8,8);stroke:rgb(0,0,0);stroke-width:2"/></g>
<g fill-rule="evenodd"><path d="M 1250,678.74 L 1250.33,671.545 L 1251.46,663.624 L 1253.17,656.626 L 1255.8,649.07 L 1259.19,641.821 L 1262.86,635.62 L 1267.57,629.156 L 1272.92,623.204 L 1278.23,618.336 L 1284.62,613.521 L 1291.47,609.38 L 1297.96,606.265 L 1305.48,603.515 L 1312.45,601.704 L 1320.35,600.448 L 1328.34,600.001 L 1335.54,600.294 L 1343.46,601.389 L 1350.47,603.058 L 1358.04,605.654 L 1364.59,608.637 L 1371.52,612.638 L 1378.01,617.321 L 1383.99,622.64 L 1388.89,627.923 L 1393.73,634.29 L 1397.91,641.116 L 1401.37,648.33 L 1403.85,655.094 L 1405.86,662.839 L 1407.07,670.748 L 1407.48,678.74 L 1407.15,685.935 L 1406.02,693.856 L 1404.31,700.854 L 1401.68,708.41 L 1398.29,715.659 L 1394.62,721.86 L 1389.91,728.324 L 1384.56,734.276 L 1379.25,739.144 L 1372.86,743.959 L 1366.01,748.1 L 1359.52,751.216 L 1352,753.965 L 1345.03,755.776 L 1337.13,757.032 L 1329.14,757.479 L 1321.94,757.186 L 1314.02,756.092 L 1307.01,754.423 L 1299.44,751.826 L 1292.89,748.844 L 1285.96,744.843 L 1279.47,740.159 L 1273.49,734.841 L 1268.59,729.557 L 1263.75,723.191 L 1259.57,716.364 L 1256.11,709.15 L 1253.63,702.386 L 1251.62,694.641 L 1250.41,686.732 L 1250,678.74M 1289.37,678.34 L 1289.53,682.338 L 1290.1,686.298 L 1292.12,693.203 L 1293.78,696.845 L 1295.8,700.3 L 1298.16,703.532 L 1300.83,706.508 L 1303.79,709.197 L 1307.01,711.572 L 1313.35,714.978 L 1320.2,717.173 L 1324.15,717.841 L 1328.14,718.106 L 1335.31,717.558 L 1339.22,716.69 L 1343.02,715.43 L 1346.67,713.792 L 1350.13,711.791 L 1355.79,707.346 L 1360.54,701.946 L 1362.74,698.598 L 1364.58,695.045 L 1366.04,691.324 L 1367.13,687.473 L 1367.82,683.532 L 1368.1,679.541 L 1367.59,672.364 L 1366.74,668.454 L 1365.5,664.65 L 1362.32,658.195 L 1360.07,654.892 L 1357.48,651.836 L 1352.11,647.055 L 1348.77,644.847 L 1345.23,642.989 L 1341.51,641.5 L 1337.67,640.396 L 1333.73,639.688 L 1329.74,639.383 L 1322.56,639.858 L 1318.65,640.686 L 1314.84,641.907 L 1311.17,643.508 L 1307.69,645.473 L 1304.42,647.782 L 1301.4,650.41 L 1296.7,655.859 L 1294.55,659.229 L 1292.74,662.8 L 1291.31,666.536 L 1290.26,670.398 L 1289.62,674.346 L 1289.37,678.34 z " style="fill-opacity:1.000000;fill:rgb(145,25,51);stroke:rgb(0,0,0);stroke-width:2"/></g>
<g fill-rule="evenodd"><path d="M 1250,78.7402 L 1250.33,71.5453 L 1251.46,63.6242 L 1253.17,56.6263 L 1255.8,49.0705 L 1259.19,41.821 L 1262.86,35.6205 L 1267.57,29.1563 L 1272.92,23.2042 L 1278.23,18.336 L 1284.62,13.5214 L 1291.47,9.38026 L 1297.96,6.26467 L 1305.48,3.51508 L 1312.45,1.70406 L 1320.35,0.448245 L 1328.34,0.00101739 L 1335.54,0.293844 L 1343.46,1.38871 L 1350.47,3.05762 L 1358.04,5.65385 L 1364.59,8.63676 L 1371.52,12.6378 L 1378.01,17.3215 L 1383.99,22.6395 L 1388.89,27.9228 L 1393.73,34.2898 L 1397.91,41.1158 L 1401.37,48.3305 L 1403.85,55.0943 L 1405.86,62.8393 L 1407.07,70.7485 L 1407.48,78.7402 L 1407.15,85.935 L 1406.02,93.8562 L 1404.31,100.854 L 1401.68,108.41 L 1398.29,115.659 L 1394.62,121.86 L 1389.91,128.324 L 1384.56,134.276 L 1379.25,139.144 L 1372.86,143.959 L 1366.01,148.1 L 1359.52,151.216 L 1352.77,153.725 L 1345.03,155.776 L 1337.13,157.032 L 1329.14,157.479 L 1321.94,157.186 L 1314.02,156.092 L 1307.01,154.423 L 1299.44,151.826 L 1292.89,148.844 L 1285.96,144.843 L 1279.47,140.159 L 1273.49,134.841 L 1268.59,129.557 L 1263.75,123.191 L 1259.57,116.364 L 1256.11,109.15 L 1253.63,102.386 L 1251.62,94.641 L 1250.41,86.7319 L 1250,78.7402M 1289.37,78.3399 L 1289.53,82.3376 L 1290.1,86.2982 L 1292.12,93.2035 L 1293.78,96.8452 L 1295.8,100.3 L 1298.16,103.532 L 1300.83,106.508 L 1303.79,109.197 L 1307.01,111.572 L 1313.35,114.978 L 1320.2,117.173 L 1324.15,117.841 L 1328.14,118.106 L 1335.31,117.558 L 1339.22,116.69 L 1343.02,115.43 L 1346.67,113.792 L 1350.13,111.791 L 1355.79,107.346 L 1360.54,101.946 L 1362.74,98.5983 L 1364.58,95.0454 L 1366.04,91.3242 L 1367.13,87.4729 L 1367.82,83.5315 L 1368.1,79.5407 L 1367.59,72.364 L 1366.74,68.4538 L 1365.5,64.6499 L 1362.32,58.195 L 1360.07,54.8924 L 1357.48,51.8362 L 1352.11,47.0546 L 1348.77,44.8466 L 1345.23,42.9886 L 1341.51,41.4998 L 1337.67,40.3957 L 1333.73,39.6876 L 1329.74,39.3828 L 1325.74,39.4845 L 1321.77,39.9916 L 1317.88,40.8989 L 1314.09,42.197 L 1310.46,43.8725 L 1307.01,45.9082 L 1301.4,50.4104 L 1296.7,55.8588 L 1294.55,59.2287 L 1292.74,62.8001 L 1291.31,66.5361 L 1290.26,70.3981 L 1289.62,74.3463 L 1289.37,78.3399 z " style="fill-opacity:1.000000;fill:rgb(185,235,79);stroke:rgb(0,0,0);stroke-width:2"/></g>
<g fill-rule="evenodd"><path d="M 2157.48,1478.74 L 2157.15,1485.94 L 2156.02,1493.86 L 2154.31,1500.85 L 2151.68,1508.41 L 2148.29,1515.66 L 2144.18,1522.53 L 2139.4,1528.94 L 2134.56,1534.28 L 2129.25,1539.14 L 2122.86,1543.96 L 2116.72,1547.72 L 2109.52,1551.22 L 2102.77,1553.72 L 2095.03,1555.78 L 2087.13,1557.03 L 2079.14,1557.48 L 2071.94,1557.19 L 2064.02,1556.09 L 2057.01,1554.42 L 2049.44,1551.83 L 2042.89,1548.84 L 2035.96,1544.84 L 2029.47,1540.16 L 2023.49,1534.84 L 2018.08,1528.94 L 2013.75,1523.19 L 2009.57,1516.36 L 2006.11,1509.15 L 2003.63,1502.39 L 2001.62,1494.64 L 2000.41,1486.73 L 2000,1478.74 L 2000.33,1471.55 L 2001.46,1463.62 L 2003.17,1456.63 L 2005.8,1449.07 L 2008.82,1442.53 L 2012.86,1435.62 L 2017.57,1429.16 L 2022.92,1423.2 L 2028.23,1418.34 L 2034.62,1413.52 L 2040.76,1409.76 L 2047.96,1406.26 L 2054.71,1403.76 L 2062.45,1401.7 L 2070.35,1400.45 L 2078.34,1400 L 2085.54,1400.29 L 2093.46,1401.39 L 2100.47,1403.06 L 2108.04,1405.65 L 2115.31,1409 L 2121.52,1412.64 L 2128.01,1417.32 L 2133.99,1422.64 L 2138.89,1427.92 L 2143.73,1434.29 L 2147.91,1441.12 L 2151.37,1448.33 L 2153.85,1455.09 L 2155.86,1462.84 L 2157.07,1470.75 L 2157.48,1478.74M 2039.37,1478.34 L 2039.53,1482.34 L 2040.1,1486.3 L 2042.12,1493.2 L 2045.37,1499.63 L 2047.66,1502.91 L 2050.27,1505.93 L 2055.7,1510.66 L 2059.06,1512.84 L 2062.62,1514.66 L 2066.35,1516.11 L 2070.2,1517.17 L 2074.15,1517.84 L 2078.14,1518.11 L 2082.14,1517.96 L 2086.1,1517.42 L 2089.99,1516.47 L 2093.76,1515.13 L 2100.13,1511.79 L 2103.38,1509.45 L 2106.37,1506.79 L 2111.01,1501.29 L 2113.13,1497.9 L 2114.9,1494.31 L 2117.13,1487.47 L 2117.82,1483.53 L 2118.1,1479.54 L 2117.59,1472.36 L 2116.74,1468.45 L 2115.5,1464.65 L 2112.32,1458.19 L 2110.07,1454.89 L 2107.48,1451.84 L 2102.11,1447.05 L 2098.77,1444.85 L 2095.23,1442.99 L 2091.51,1441.5 L 2087.67,1440.4 L 2083.73,1439.69 L 2079.74,1439.38 L 2075.74,1439.48 L 2071.77,1439.99 L 2064.84,1441.91 L 2061.17,1443.51 L 2057.69,1445.47 L 2054.42,1447.78 L 2051.4,1450.41 L 2046.7,1455.86 L 2044.55,1459.23 L 2042.74,1462.8 L 2041.31,1466.54 L 2040.26,1470.4 L 2039.62,1474.35 L 2039.37,1478.34 z " style="fill-opacity:1.000000;fill:rgb(242,41,165);stroke:rgb(0,0,0);stroke-width:2"/></g>
<g fill-rule="evenodd"><path d="M 2157.48,1078.74 L 2157.15,1085.94 L 2156.02,1093.86 L 2154.31,1100.85 L 2151.68,1108.41 L 2148.29,1115.66 L 2144.18,1122.53 L 2139.4,1128.94 L 2134.56,1134.28 L 2129.25,1139.14 L 2122.86,1143.96 L 2116.72,1147.72 L 2109.52,1151.22 L 2102.77,1153.72 L 2095.03,1155.78 L 2087.13,1157.03 L 2079.14,1157.48 L 2071.94,1157.19 L 2064.02,1156.09 L 2057.01,1154.42 L 2049.44,1151.83 L 2042.89,1148.84 L 2035.96,1144.84 L 2029.47,1140.16 L 2023.49,1134.84 L 2018.08,1128.94 L 2013.75,1123.19 L 2009.57,1116.36 L 2006.11,1109.15 L 2003.63,1102.39 L 2001.62,1094.64 L 2000.41,1086.73 L 2000,1078.74 L 2000.33,1071.55 L 2001.46,1063.62 L 2003.17,1056.63 L 2005.8,1049.07 L 2008.82,1042.53 L 2012.86,1035.62 L 2017.57,1029.16 L 2022.92,1023.2 L 2028.23,1018.34 L 2034.62,1013.52 L 2040.76,1009.76 L 2047.96,1006.26 L 2055.48,1003.52 L 2062.45,1001.7 L 2070.35,1000.45 L 2078.34,1000 L 2086.33,1000.37 L 2093.46,1001.39 L 2100.47,1003.06 L 2108.04,1005.65 L 2115.31,1009 L 2122.19,1013.08 L 2128.63,1017.83 L 2133.99,1022.64 L 2139.4,1028.54 L 2143.73,1034.29 L 2147.91,1041.12 L 2151.37,1048.33 L 2153.85,1055.09 L 2155.86,1062.84 L 2157.07,1070.75 L 2157.48,1078.74M 2039.37,1078.34 L 2039.53,1082.34 L 2040.1,1086.3 L 2042.12,1093.2 L 2045.37,1099.63 L 2047.66,1102.91 L 2050.27,1105.93 L 2055.7,1110.66 L 2059.06,1112.84 L 2062.62,1114.66 L 2066.35,1116.11 L 2070.2,1117.17 L 2074.15,1117.84 L 2078.14,1118.11 L 2082.14,1117.96 L 2086.1,1117.42 L 2089.99,1116.47 L 2093.76,1115.13 L 2100.13,1111.79 L 2103.38,1109.45 L 2106.37,1106.79 L 2111.01,1101.29 L 2113.13,1097.9 L 2114.9,1094.31 L 2117.13,1087.47 L 2117.82,1083.53 L 2118.1,1079.54 L 2117.59,1072.36 L 2116.74,1068.45 L 2115.5,1064.65 L 2112.32,1058.19 L 2110.07,1054.89 L 2107.48,1051.84 L 2102.11,1047.05 L 2098.77,1044.85 L 2095.23,1042.99 L 2091.51,1041.5 L 2087.67,1040.4 L 2083.73,1039.69 L 2079.74,1039.38 L 2075.74,1039.48 L 2071.77,1039.99 L 2064.84,1041.91 L 2061.17,1043.51 L 2057.69,1045.47 L 2054.42,1047.78 L 2051.4,1050.41 L 2046.7,1055.86 L 2044.55,1059.23 L 2042.74,1062.8 L 2041.31,1066.54 L 2040.26,1070.4 L 2039.62,1074.35 L 2039.37,1078.34 z " style="fill-opacity:1.000000;fill:rgb(228,219,62);stroke:rgb(0,0,0);stroke-width:2"/></g>
</svg>
