<?xml version="1.0" standalone="no"?>
<!DOCTYPE svg PUBLIC "-//W3C//DTD SVG 1.1//EN"
"http://www.w3.org/Graphics/SVG/1.1/DTD/svg11.dtd">
<svg width="154.847" height="154.847" viewBox="0 0 3225.98 3225.98" version="1.1"
xmlns="http://www.w3.org/2000/svg"
xmlns:xlink="http://www.w3.org/1999/xlink">
<g fill-rule="evenodd"><path d="M 2.27374e-13,3225.98 L 2.27374e-13,0 L 3225.98,0 L 3225.98,3225.98 L 2.27374e-13,3225.98 z " style="fill-opacity:0.200000;fill:rgb(33,1,197);"/></g>
<polyline points="31.4941,3162.99 31.5061,3163.79 31.5361,3164.59 31.5861,3165.38 31.6561,3166.18 31.7481,3166.97 31.8581,3167.76 31.9881,3168.55 32.1401,3169.33 32.3101,3170.11 32.5001,3170.89 32.7101,3171.66 32.9401,3172.42 33.1881,3173.18 33.4561,3173.93 33.7421,3174.68 34.0481,3175.41 34.3721,3176.14 34.7141,3176.86 35.0741,3177.58 35.4521,3178.28 35.8481,3178.97 36.2621,3179.65 36.6921,3180.33 37.1401,3180.99 37.6041,3181.63 38.0841,3182.27 38.5821,3182.9 39.0941,3183.51 39.6201,3184.11 40.1621,3184.69 40.7201,3185.26 41.2921,3185.82 41.8761,3186.36 42.4761,3186.89 43.0881,3187.4 43.7121,3187.9 44.3501,3188.38 44.9981,3188.84 45.6581,3189.29 46.3301,3189.72 47.0141,3190.14 47.7061,3190.53 48.4081,3190.91 49.1201,3191.27 49.8421,3191.61 50.5701,3191.94 51.3081,3192.24 52.0521,3192.53 52.8041,3192.8 53.5621,3193.04 54.3261,3193.27 55.0961,3193.48 55.8721,3193.67 56.6501,3193.84 57.4341,3194 58.2221,3194.13 59.0121,3194.24 59.8041,3194.33 60.6001,3194.4 61.3961,3194.45 62.1941,3194.48 62.9921,3194.49 3162.99,3194.49 3163.79,3194.48 3164.59,3194.45 3165.38,3194.4 3166.18,3194.33 3166.97,3194.24 3167.76,3194.13 3168.55,3194 3169.33,3193.84 3170.11,3193.67 3170.89,3193.48 3171.66,3193.27 3172.42,3193.04 3173.18,3192.8 3173.93,3192.53 3174.67,3192.24 3175.41,3191.94 3176.14,3191.61 3176.86,3191.27 3177.57,3190.91 3178.28,3190.53 3178.97,3190.14 3179.65,3189.72 3180.32,3189.29 3180.98,3188.84 3181.63,3188.38 3182.27,3187.9 3182.89,3187.4 3183.51,3186.89 3184.11,3186.36 3184.69,3185.82 3185.26,3185.26 3185.82,3184.69 3186.36,3184.11 3186.89,3183.51 3187.4,3182.9 3187.9,3182.27 3188.38,3181.63 3188.84,3180.99 3189.29,3180.33 3189.72,3179.65 3190.13,3178.97 3190.53,3178.28 3190.91,3177.58 3191.27,3176.86 3191.61,3176.14 3191.93,3175.41 3192.24,3174.68 3192.53,3173.93 3192.79,3173.18 3193.04,3172.42 3193.27,3171.66 3193.48,3170.89 3193.67,3170.11 3193.84,3169.33 3193.99,3168.55 3194.12,3167.76 3194.23,3166.97 3194.33,3166.18 3194.4,3165.38 3194.45,3164.59 3194.48,3163.79 3194.49,3162.99 3194.49,62.9921 3194.48,62.1961 3194.45,61.3981 3194.4,60.6021 3194.33,59.8061 3194.23,59.0141 3194.12,58.2241 3193.99,57.4361 3193.84,56.6521 3193.67,55.8741 3193.48,55.0981 3193.27,54.3281 3193.04,53.5641 3192.79,52.8061 3192.53,52.0541 3192.24,51.3101 3191.93,50.5721 3191.61,49.8441 3191.27,49.1221 3190.91,48.4101 3190.53,47.7081 3190.13,47.0161 3189.72,46.3321 3189.29,45.6601 3188.84,45.0001 3188.38,44.3521 3187.9,43.7141 3187.4,43.0901 3186.89,42.4781 3186.36,41.8781 3185.82,41.2941 3185.26,40.7221 3184.69,40.1641 3184.11,39.6221 3183.51,39.0961 3182.89,38.5841 3182.27,38.0861 3181.63,37.6061 3180.98,37.1421 3180.32,36.6941 3179.65,36.2641 3178.97,35.8501 3178.28,35.4541 3177.57,35.0761 3176.86,34.7161 3176.14,34.3741 3175.41,34.0501 3174.67,33.7441 3173.93,33.4581 3173.18,33.1901 3172.42,32.9421 3171.66,32.7121 3170.89,32.5021 3170.11,32.3121 3169.33,32.1421 3168.55,31.9901 3167.76,31.8601 3166.97,31.7501 3166.18,31.6581 3165.38,31.5881 3164.59,31.5381 3163.79,31.5081 3162.99,31.4961 62.9921,31.4961 62.1941,31.5081 61.3961,31.5381 60.6001,31.5881 59.8041,31.6581 59.0121,31.7501 58.2221,31.8601 57.4341,31.9901 56.6501,32.1421 55.8721,32.3121 55.0961,32.5021 54.3261,32.7121 53.5621,32.9421 52.8041,33.1901 52.0521,33.4581 51.3081,33.7441 50.5701,34.0501 49.8421,34.3741 49.1201,34.7161 48.4081,35.0761 47.7061,35.4541 47.0141,35.8501 46.3301,36.2641 45.6581,36.6941 44.9981,37.1421 44.3501,37.6061 43.7121,38.0861 43.0881,38.5841 42.4761,39.0961 41.8761,39.6221 41.2921,40.1641 40.7201,40.7221 40.1621,41.2941 39.6201,41.8781 39.0941,42.4781 38.5821,43.0901 38.0841,43.7141 37.6041,44.3521 37.1401,45.0001 36.6921,45.6601 36.2621,46.3321 35.8481,47.0161 35.4521,47.7081 35.0741,48.4101 34.7141,49.1221 34.3721,49.8441 34.0481,50.5721 33.7421,51.3101 33.4561,52.0541 33.1881,52.8061 32.9401,53.5641 32.7101,54.3281 32.5001,55.0981 32.3101,55.8741 32.1401,56.6521 31.9881,57.4361 31.8581,58.2241 31.7481,59.0141 31.6561,59.8061 31.5861,60.6021 31.5361,61.3981 31.5061,62.1961 31.4941,62.9921 31.4941,3162.99" style="stroke:rgb(33,1,197);stroke-width:62.992126;fill:none;stroke-opacity:0.5;stroke-linecap:round;stroke-linejoin:round;;fill:none"/>
<polyline points="31.4941,3162.99 31.5061,3163.79 31.5361,3164.59 31.5861,3165.38 31.6561,3166.18 31.7481,3166.97 31.8581,3167.76 31.9881,3168.55 32.1401,3169.33 32.3101,3170.11 32.5001,3170.89 32.7101,3171.66 32.9401,3172.42 33.1881,3173.18 33.4561,3173.93 33.7421,3174.68 34.0481,3175.41 34.3721,3176.14 34.7141,3176.86 35.0741,3177.58 35.4521,3178.28 35.8481,3178.97 36.2621,3179.65 36.6921,3180.33 37.1401,3180.99 37.6041,3181.63 38.0841,3182.27 38.5821,3182.9 39.0941,3183.51 39.6201,3184.11 40.1621,3184.69 40.7201,3185.26 41.2921,3185.82 41.8761,3186.36 42.4761,3186.89 43.0881,3187.4 43.7121,3187.9 44.3501,3188.38 44.9981,3188.84 45.6581,3189.29 46.3301,3189.72 47.0141,3190.14 47.7061,3190.53 48.4081,3190.91 49.1201,3191.27 49.8421,3191.61 50.5701,3191.94 51.3081,3192.24 52.0521,3192.53 52.8041,3192.8 53.5621,3193.04 54.3261,3193.27 55.0961,3193.48 55.8721,3193.67 56.6501,3193.84 57.4341,3194 58.2221,3194.13 59.0121,3194.24 59.8041,3194.33 60.6001,3194.4 61.3961,3194.45 62.1941,3194.48 62.9921,3194.49 3162.99,3194.49 3163.79,3194.48 3164.59,3194.45 3165.38,3194.4 3166.18,3194.33 3166.97,3194.24 3167.76,3194.13 3168.55,3194 3169.33,3193.84 3170.11,3193.67 3170.89,3193.48 3171.66,3193.27 3172.42,3193.04 3173.18,3192.8 3173.93,3192.53 3174.67,3192.24 3175.41,3191.94 3176.14,3191.61 3176.86,3191.27 3177.57,3190.91 3178.28,3190.53 3178.97,3190.14 3179.65,3189.72 3180.32,3189.29 3180.98,3188.84 3181.63,3188.38 3182.27,3187.9 3182.89,3187.4 3183.51,3186.89 3184.11,3186.36 3184.69,3185.82 3185.26,3185.26 3185.82,3184.69 3186.36,3184.11 3186.89,3183.51 3187.4,3182.9 3187.9,3182.27 3188.38,3181.63 3188.84,3180.99 3189.29,3180.33 3189.72,3179.65 3190.13,3178.97 3190.53,3178.28 3190.91,3177.58 3191.27,3176.86 3191.61,3176.14 3191.93,3175.41 3192.24,3174.68 3192.53,3173.93 3192.79,3173.18 3193.04,3172.42 3193.27,3171.66 3193.48,3170.89 3193.67,3170.11 3193.84,3169.33 3193.99,3168.55 3194.12,3167.76 3194.23,3166.97 3194.33,3166.18 3194.4,3165.38 3194.45,3164.59 3194.48,3163.79 3194.49,3162.99 3194.49,62.9921 3194.48,62.1961 3194.45,61.3981 3194.4,60.6021 3194.33,59.8061 3194.23,59.0141 3194.12,58.2241 3193.99,57.4361 3193.84,56.6521 3193.67,55.8741 3193.48,55.0981 3193.27,54.3281 3193.04,53.5641 3192.79,52.8061 3192.53,52.0541 3192.24,51.3101 3191.93,50.5721 3191.61,49.8441 3191.27,49.1221 3190.91,48.4101 3190.53,47.7081 3190.13,47.0161 3189.72,46.3321 3189.29,45.6601 3188.84,45.0001 3188.38,44.3521 3187.9,43.7141 3187.4,43.0901 3186.89,42.4781 3186.36,41.8781 3185.82,41.2941 3185.26,40.7221 3184.69,40.1641 3184.11,39.6221 3183.51,39.0961 3182.89,38.5841 3182.27,38.0861 3181.63,37.6061 3180.98,37.1421 3180.32,36.6941 3179.65,36.2641 3178.97,35.8501 3178.28,35.4541 3177.57,35.0761 3176.86,34.7161 3176.14,34.3741 3175.41,34.0501 3174.67,33.7441 3173.93,33.4581 3173.18,33.1901 3172.42,32.9421 3171.66,32.7121 3170.89,32.5021 3170.11,32.3121 3169.33,32.1421 3168.55,31.9901 3167.76,31.8601 3166.97,31.7501 3166.18,31.6581 3165.38,31.5881 3164.59,31.5381 3163.79,31.5081 3162.99,31.4961 62.9921,31.4961 62.1941,31.5081 61.3961,31.5381 60.6001,31.5881 59.8041,31.6581 59.0121,31.7501 58.2221,31.8601 57.4341,31.9901 56.6501,32.1421 55.8721,32.3121 55.0961,32.5021 54.3261,32.7121 53.5621,32.9421 52.8041,33.1901 52.0521,33.4581 51.3081,33.7441 50.5701,34.0501 49.8421,34.3741 49.1201,34.7161 48.4081,35.0761 47.7061,35.4541 47.0141,35.8501 46.3301,36.2641 45.6581,36.6941 44.9981,37.1421 44.3501,37.6061 43.7121,38.0861 43.0881,38.5841 42.4761,39.0961 41.8761,39.6221 41.2921,40.1641 40.7201,40.7221 40.1621,41.2941 39.6201,41.8781 39.0941,42.4781 38.5821,43.0901 38.0841,43.7141 37.6041,44.3521 37.1401,45.0001 36.6921,45.6601 36.2621,46.3321 35.8481,47.0161 35.4521,47.7081 35.0741,48.4101 34.7141,49.1221 34.3721,49.8441 34.0481,50.5721 33.7421,51.3101 33.4561,52.0541 33.1881,52.8061 32.9401,53.5641 32.7101,54.3281 32.5001,55.0981 32.3101,55.8741 32.1401,56.6521 31.9881,57.4361 31.8581,58.2241 31.7481,59.0141 31.6561,59.8061 31.5861,60.6021 31.5361,61.3981 31.5061,62.1961 31.4941,62.9921 31.4941,3162.99" style="stroke:rgb(0,0,0);stroke-width:1px;fill:none;stroke-opacity:1;stroke-linecap:round;stroke-linejoin:round;;fill:none"/>
<g fill-rule="evenodd"><path d="M 62.9921,3162.99 L 62.9921,62.9921 L 3162.99,62.9921 L 3162.99,3162.99 L 62.9921,3162.99 z " style="fill-opacity:1.000000;fill:rgb(33,1,197);stroke:rgb(0,0,0);stroke-width:2"/></g>
</svg>
