<?xml version="1.0" standalone="no"?>
<!DOCTYPE svg PUBLIC "-//W3C//DTD SVG 1.1//EN"
"http://www.w3.org/Graphics/SVG/1.1/DTD/svg11.dtd">
<svg width="103.559" height="117.959" viewBox="0 0 2157.48 2457.48" version="1.1"
xmlns="http://www.w3.org/2000/svg"
xmlns:xlink="http://www.w3.org/1999/xlink">
<polyline points="-0.00184252,778.74 0.328157,771.546 1.46416,763.624 3.16816,756.628 5.80216,749.072 8.81816,742.53 12.8542,735.622 17.5722,729.158 22.9202,723.204 28.2282,718.336 34.6202,713.522 41.4662,709.382 48.6982,705.956 55.4762,703.516 63.2302,701.544 70.3502,700.45 78.3382,700.002 85.5362,700.294 93.4622,701.39 100.468,703.058 108.038,705.654 114.594,708.638 121.524,712.638 128.012,717.322 133.99,722.64 139.4,728.538 144.182,734.954 147.908,741.116 151.37,748.332 153.844,755.096 155.856,762.84 157.072,770.75 157.48,778.74 157.15,785.936 156.014,793.858 154.31,800.854 151.676,808.41 148.288,815.66 144.182,822.528 139.906,828.324 134.558,834.278 129.25,839.146 122.858,843.96 116.012,848.1 108.78,851.526 102.002,853.966 94.2482,855.938 87.1282,857.032 79.1402,857.48 71.1462,857.114 63.2302,855.938 56.2422,854.198 48.6982,851.526 41.4662,848.1 34.6202,843.96 28.8442,839.656 22.9202,834.278 18.0782,828.944 13.2962,822.528 9.57016,816.366 6.10816,809.15 3.63416,802.386 1.62216,794.642 0.406157,786.732 -0.00184252,778.74" style="stroke:rgb(33,1,197);stroke-width:0.000000;fill:none;stroke-opacity:0.5;stroke-linecap:round;stroke-linejoin:round;;fill:none"/>
<polyline points="-0.00184252,778.74 0.328157,771.546 1.46416,763.624 3.16816,756.628 5.80216,749.072 8.81816,742.53 12.8542,735.622 17.5722,729.158 22.9202,723.204 28.2282,718.336 34.6202,713.522 41.4662,709.382 48.6982,705.956 55.4762,703.516 63.2302,701.544 70.3502,700.45 78.3382,700.002 85.5362,700.294 93.4622,701.39 100.468,703.058 108.038,705.654 114.594,708.638 121.524,712.638 128.012,717.322 133.99,722.64 139.4,728.538 144.182,734.954 147.908,741.116 151.37,748.332 153.844,755.096 155.856,762.84 157.072,770.75 157.48,778.74 157.15,785.936 156.014,793.858 154.31,800.854 151.676,808.41 148.288,815.66 144.182,822.528 139.906,828.324 134.558,834.278 129.25,839.146 122.858,843.96 116.012,848.1 108.78,851.526 102.002,853.966 94.2482,855.938 87.1282,857.032 79.1402,857.48 71.1462,857.114 63.2302,855.938 56.2422,854.198 48.6982,851.526 41.4662,848.1 34.6202,843.96 28.8442,839.656 22.9202,834.278 18.0782,828.944 13.2962,822.528 9.57016,816.366 6.10816,809.15 3.63416,802.386 1.62216,794.642 0.406157,786.732 -0.00184252,778.74" style="stroke:rgb(0,0,0);stroke-width:1px;fill:none;stroke-opacity:1;stroke-linecap:round;stroke-linejoin:round;;fill:none"/>
<polyline points="-0.00184252,1778.74 0.328157,1771.55 1.46416,1763.62 3.16816,1756.63 5.80216,1749.07 8.81816,1742.53 12.8542,1735.62 17.5722,1729.16 22.9202,1723.2 28.2282,1718.34 34.6202,1713.52 41.4662,1709.38 48.6982,1705.96 56.2422,1703.28 63.2302,1701.54 71.1462,1700.37 78.3382,1700 85.5362,1700.29 93.4622,1701.39 101.236,1703.28 108.78,1705.96 116.012,1709.38 122.858,1713.52 128.634,1717.83 134.558,1723.2 139.4,1728.54 144.182,1734.95 147.908,1741.12 151.37,1748.33 154.082,1755.86 155.856,1762.84 157.072,1770.75 157.48,1778.74 157.15,1785.94 156.014,1793.86 154.31,1800.85 151.676,1808.41 148.288,1815.66 144.182,1822.53 139.906,1828.32 134.558,1834.28 129.25,1839.15 122.858,1843.96 116.012,1848.1 108.78,1851.53 101.236,1854.2 94.2482,1855.94 86.3322,1857.11 79.1402,1857.48 71.9422,1857.19 64.0162,1856.09 56.2422,1854.2 48.6982,1851.53 41.4662,1848.1 34.6202,1843.96 28.8442,1839.66 22.9202,1834.28 18.0782,1828.94 13.2962,1822.53 9.57016,1816.37 6.10816,1809.15 3.39616,1801.62 1.62216,1794.64 0.406157,1786.73 -0.00184252,1778.74" style="stroke:rgb(79,209,208);stroke-width:0.000000;fill:none;stroke-opacity:0.5;stroke-linecap:round;stroke-linejoin:round;;fill:none"/>
<polyline points="-0.00184252,1778.74 0.328157,1771.55 1.46416,1763.62 3.16816,1756.63 5.80216,1749.07 8.81816,1742.53 12.8542,1735.62 17.5722,1729.16 22.9202,1723.2 28.2282,1718.34 34.6202,1713.52 41.4662,1709.38 48.6982,1705.96 56.2422,1703.28 63.2302,1701.54 71.1462,1700.37 78.3382,1700 85.5362,1700.29 93.4622,1701.39 101.236,1703.28 108.78,1705.96 116.012,1709.38 122.858,1713.52 128.634,1717.83 134.558,1723.2 139.4,1728.54 144.182,1734.95 147.908,1741.12 151.37,1748.33 154.082,1755.86 155.856,1762.84 157.072,1770.75 157.48,1778.74 157.15,1785.94 156.014,1793.86 154.31,1800.85 151.676,1808.41 148.288,1815.66 144.182,1822.53 139.906,1828.32 134.558,1834.28 129.25,1839.15 122.858,1843.96 116.012,1848.1 108.78,1851.53 101.236,1854.2 94.2482,1855.94 86.3322,1857.11 79.1402,1857.48 71.9422,1857.19 64.0162,1856.09 56.2422,1854.2 48.6982,1851.53 41.4662,1848.1 34.6202,1843.96 28.8442,1839.66 22.9202,1834.28 18.0782,1828.94 13.2962,1822.53 9.57016,1816.37 6.10816,1809.15 3.39616,1801.62 1.62216,1794.64 0.406157,1786.73 -0.00184252,1778.74" style="stroke:rgb(0,0,0);stroke-width:1px;fill:none;stroke-opacity:1;stroke-linecap:round;stroke-linejoin:round;;fill:none"/>
<polyline points="2000,1078.74 2000.33,1071.55 2001.46,1063.62 2003.17,1056.63 2005.8,1049.07 2008.82,1042.53 2012.85,1035.62 2017.57,1029.16 2022.92,1023.2 2028.23,1018.34 2034.62,1013.52 2040.76,1009.76 2047.96,1006.27 2055.48,1003.52 2062.45,1001.7 2070.35,1000.45 2078.34,1000 2086.33,1000.37 2093.46,1001.39 2100.47,1003.06 2108.04,1005.65 2115.3,1009.01 2122.19,1013.08 2128.63,1017.83 2133.99,1022.64 2139.4,1028.54 2143.73,1034.29 2147.91,1041.12 2151.37,1048.33 2153.84,1055.1 2155.86,1062.84 2157.07,1070.75 2157.48,1078.74 2157.15,1085.94 2156.01,1093.86 2154.31,1100.85 2151.68,1108.41 2148.29,1115.66 2144.18,1122.53 2139.4,1128.94 2134.56,1134.28 2129.25,1139.15 2122.86,1143.96 2116.71,1147.72 2109.52,1151.22 2102.77,1153.73 2095.03,1155.78 2087.13,1157.03 2079.14,1157.48 2071.94,1157.19 2064.02,1156.09 2057.01,1154.42 2049.44,1151.83 2042.88,1148.84 2035.95,1144.84 2029.47,1140.16 2023.49,1134.84 2018.08,1128.94 2013.75,1123.19 2009.57,1116.37 2006.11,1109.15 2003.63,1102.39 2001.62,1094.64 2000.41,1086.73 2000,1078.74" style="stroke:rgb(26,178,37);stroke-width:0.000000;fill:none;stroke-opacity:0.5;stroke-linecap:round;stroke-linejoin:round;;fill:none"/>
<polyline points="2000,1078.74 2000.33,1071.55 2001.46,1063.62 2003.17,1056.63 2005.8,1049.07 2008.82,1042.53 2012.85,1035.62 2017.57,1029.16 2022.92,1023.2 2028.23,1018.34 2034.62,1013.52 2040.76,1009.76 2047.96,1006.27 2055.48,1003.52 2062.45,1001.7 2070.35,1000.45 2078.34,1000 2086.33,1000.37 2093.46,1001.39 2100.47,1003.06 2108.04,1005.65 2115.3,1009.01 2122.19,1013.08 2128.63,1017.83 2133.99,1022.64 2139.4,1028.54 2143.73,1034.29 2147.91,1041.12 2151.37,1048.33 2153.84,1055.1 2155.86,1062.84 2157.07,1070.75 2157.48,1078.74 2157.15,1085.94 2156.01,1093.86 2154.31,1100.85 2151.68,1108.41 2148.29,1115.66 2144.18,1122.53 2139.4,1128.94 2134.56,1134.28 2129.25,1139.15 2122.86,1143.96 2116.71,1147.72 2109.52,1151.22 2102.77,1153.73 2095.03,1155.78 2087.13,1157.03 2079.14,1157.48 2071.94,1157.19 2064.02,1156.09 2057.01,1154.42 2049.44,1151.83 2042.88,1148.84 2035.95,1144.84 2029.47,1140.16 2023.49,1134.84 2018.08,1128.94 2013.75,1123.19 2009.57,1116.37 2006.11,1109.15 2003.63,1102.39 2001.62,1094.64 2000.41,1086.73 2000,1078.74" style="stroke:rgb(0,0,0);stroke-width:1px;fill:none;stroke-opacity:1;stroke-linecap:round;stroke-linejoin:round;;fill:none"/>
<polyline points="2039.37,1078.34 2039.53,1082.34 2040.1,1086.3 2042.12,1093.2 2045.37,1099.63 2047.66,1102.91 2050.27,1105.94 2055.7,1110.66 2059.05,1112.84 2062.62,1114.66 2066.34,1116.11 2070.2,1117.17 2074.15,1117.84 2078.14,1118.11 2082.14,1117.96 2086.1,1117.42 2089.99,1116.47 2093.76,1115.13 2100.13,1111.79 2103.38,1109.45 2106.36,1106.79 2111.01,1101.3 2113.13,1097.9 2114.9,1094.31 2117.13,1087.47 2117.82,1083.53 2118.1,1079.54 2117.59,1072.36 2116.74,1068.45 2115.5,1064.65 2112.32,1058.2 2110.06,1054.89 2107.48,1051.84 2102.11,1047.06 2098.77,1044.85 2095.23,1042.99 2091.51,1041.5 2087.67,1040.4 2083.73,1039.69 2079.74,1039.38 2075.74,1039.49 2071.77,1039.99 2064.84,1041.91 2061.17,1043.51 2057.68,1045.47 2054.42,1047.78 2051.4,1050.41 2046.7,1055.86 2044.54,1059.23 2042.74,1062.8 2041.31,1066.54 2040.26,1070.4 2039.61,1074.35 2039.37,1078.34" style="stroke:rgb(26,178,37);stroke-width:0.000000;fill:none;stroke-opacity:0.5;stroke-linecap:round;stroke-linejoin:round;;fill:none"/>
<polyline points="2039.37,1078.34 2039.53,1082.34 2040.1,1086.3 2042.12,1093.2 2045.37,1099.63 2047.66,1102.91 2050.27,1105.94 2055.7,1110.66 2059.05,1112.84 2062.62,1114.66 2066.34,1116.11 2070.2,1117.17 2074.15,1117.84 2078.14,1118.11 2082.14,1117.96 2086.1,1117.42 2089.99,1116.47 2093.76,1115.13 2100.13,1111.79 2103.38,1109.45 2106.36,1106.79 2111.01,1101.3 2113.13,1097.9 2114.9,1094.31 2117.13,1087.47 2117.82,1083.53 2118.1,1079.54 2117.59,1072.36 2116.74,1068.45 2115.5,1064.65 2112.32,1058.2 2110.06,1054.89 2107.48,1051.84 2102.11,1047.06 2098.77,1044.85 2095.23,1042.99 2091.51,1041.5 2087.67,1040.4 2083.73,1039.69 2079.74,1039.38 2075.74,1039.49 2071.77,1039.99 2064.84,1041.91 2061.17,1043.51 2057.68,1045.47 2054.42,1047.78 2051.4,1050.41 2046.7,1055.86 2044.54,1059.23 2042.74,1062.8 2041.31,1066.54 2040.26,1070.4 2039.61,1074.35 2039.37,1078.34" style="stroke:rgb(0,0,0);stroke-width:1px;fill:none;stroke-opacity:1;stroke-linecap:round;stroke-linejoin:round;;fill:none"/>
<polyline points="2000,1478.74 2000.33,1471.55 2001.46,1463.62 2003.17,1456.63 2005.8,1449.07 2008.82,1442.53 2012.85,1435.62 2017.57,1429.16 2022.92,1423.2 2028.23,1418.34 2034.62,1413.52 2040.76,1409.76 2047.96,1406.27 2054.71,1403.76 2062.45,1401.7 2070.35,1400.45 2078.34,1400 2085.54,1400.29 2093.46,1401.39 2100.47,1403.06 2108.04,1405.65 2115.3,1409.01 2121.52,1412.64 2128.01,1417.32 2133.99,1422.64 2138.89,1427.92 2143.73,1434.29 2147.91,1441.12 2151.37,1448.33 2153.84,1455.1 2155.86,1462.84 2157.07,1470.75 2157.48,1478.74 2157.15,1485.94 2156.01,1493.86 2154.31,1500.85 2151.68,1508.41 2148.29,1515.66 2144.18,1522.53 2139.4,1528.94 2134.56,1534.28 2129.25,1539.15 2122.86,1543.96 2116.71,1547.72 2109.52,1551.22 2102.77,1553.73 2095.03,1555.78 2087.13,1557.03 2079.14,1557.48 2071.94,1557.19 2064.02,1556.09 2057.01,1554.42 2049.44,1551.83 2042.88,1548.84 2035.95,1544.84 2029.47,1540.16 2023.49,1534.84 2018.08,1528.94 2013.75,1523.19 2009.57,1516.37 2006.11,1509.15 2003.63,1502.39 2001.62,1494.64 2000.41,1486.73 2000,1478.74" style="stroke:rgb(116,203,55);stroke-width:0.000000;fill:none;stroke-opacity:0.5;stroke-linecap:round;stroke-linejoin:round;;fill:none"/>
<polyline points="2000,1478.74 2000.33,1471.55 2001.46,1463.62 2003.17,1456.63 2005.8,1449.07 2008.82,1442.53 2012.85,1435.62 2017.57,1429.16 2022.92,1423.2 2028.23,1418.34 2034.62,1413.52 2040.76,1409.76 2047.96,1406.27 2054.71,1403.76 2062.45,1401.7 2070.35,1400.45 2078.34,1400 2085.54,1400.29 2093.46,1401.39 2100.47,1403.06 2108.04,1405.65 2115.3,1409.01 2121.52,1412.64 2128.01,1417.32 2133.99,1422.64 2138.89,1427.92 2143.73,1434.29 2147.91,1441.12 2151.37,1448.33 2153.84,1455.1 2155.86,1462.84 2157.07,1470.75 2157.48,1478.74 2157.15,1485.94 2156.01,1493.86 2154.31,1500.85 2151.68,1508.41 2148.29,1515.66 2144.18,1522.53 2139.4,1528.94 2134.56,1534.28 2129.25,1539.15 2122.86,1543.96 2116.71,1547.72 2109.52,1551.22 2102.77,1553.73 2095.03,1555.78 2087.13,1557.03 2079.14,1557.48 2071.94,1557.19 2064.02,1556.09 2057.01,1554.42 2049.44,1551.83 2042.88,1548.84 2035.95,1544.84 2029.47,1540.16 2023.49,1534.84 2018.08,1528.94 2013.75,1523.19 2009.57,1516.37 2006.11,1509.15 2003.63,1502.39 2001.62,1494.64 2000.41,1486.73 2000,1478.74" style="stroke:rgb(0,0,0);stroke-width:1px;fill:none;stroke-opacity:1;stroke-linecap:round;stroke-linejoin:round;;fill:none"/>
<polyline points="2039.37,1478.34 2039.53,1482.34 2040.1,1486.3 2042.12,1493.2 2045.37,1499.63 2047.66,1502.91 2050.27,1505.94 2055.7,1510.66 2059.05,1512.84 2062.62,1514.66 2066.34,1516.11 2070.2,1517.17 2074.15,1517.84 2078.14,1518.11 2082.14,1517.96 2086.1,1517.42 2089.99,1516.47 2093.76,1515.13 2100.13,1511.79 2103.38,1509.45 2106.36,1506.79 2111.01,1501.3 2113.13,1497.9 2114.9,1494.31 2117.13,1487.47 2117.82,1483.53 2118.1,1479.54 2117.59,1472.36 2116.74,1468.45 2115.5,1464.65 2112.32,1458.2 2110.06,1454.89 2107.48,1451.84 2102.11,1447.06 2098.77,1444.85 2095.23,1442.99 2091.51,1441.5 2087.67,1440.4 2083.73,1439.69 2079.74,1439.38 2075.74,1439.49 2071.77,1439.99 2064.84,1441.91 2061.17,1443.51 2057.68,1445.47 2054.42,1447.78 2051.4,1450.41 2046.7,1455.86 2044.54,1459.23 2042.74,1462.8 2041.31,1466.54 2040.26,1470.4 2039.61,1474.35 2039.37,1478.34" style="stroke:rgb(116,203,55);stroke-width:0.000000;fill:none;stroke-opacity:0.5;stroke-linecap:round;stroke-linejoin:round;;fill:none"/>
<polyline points="2039.37,1478.34 2039.53,1482.34 2040.1,1486.3 2042.12,1493.2 2045.37,1499.63 2047.66,1502.91 2050.27,1505.94 2055.7,1510.66 2059.05,1512.84 2062.62,1514.66 2066.34,1516.11 2070.2,1517.17 2074.15,1517.84 2078.14,1518.11 2082.14,1517.96 2086.1,1517.42 2089.99,1516.47 2093.76,1515.13 2100.13,1511.79 2103.38,1509.45 2106.36,1506.79 2111.01,1501.3 2113.13,1497.9 2114.9,1494.31 2117.13,1487.47 2117.82,1483.53 2118.1,1479.54 2117.59,1472.36 2116.74,1468.45 2115.5,1464.65 2112.32,1458.2 2110.06,1454.89 2107.48,1451.84 2102.11,1447.06 2098.77,1444.85 2095.23,1442.99 2091.51,1441.5 2087.67,1440.4 2083.73,1439.69 2079.74,1439.38 2075.74,1439.49 2071.77,1439.99 2064.84,1441.91 2061.17,1443.51 2057.68,1445.47 2054.42,1447.78 2051.4,1450.41 2046.7,1455.86 2044.54,1459.23 2042.74,1462.8 2041.31,1466.54 2040.26,1470.4 2039.61,1474.35 2039.37,1478.34" style="stroke:rgb(0,0,0);stroke-width:1px;fill:none;stroke-opacity:1;stroke-linecap:round;stroke-linejoin:round;;fill:none"/>
<polyline points="449.998,78.7402 450.328,71.5462 451.464,63.6242 453.396,55.8602 456.108,48.3322 459.19,41.8222 463.296,34.9542 467.572,29.1582 472.92,23.2042 478.228,18.3362 484.62,13.5222 490.764,9.76416 497.96,6.26616 504.712,3.75616 512.446,1.70416 520.35,0.450157 528.338,0.00215748 536.332,0.368157 544.248,1.54416 551.236,3.28416 558.78,5.95616 566.012,9.38216 572.194,13.0782 578.634,17.8262 584.558,23.2042 589.4,28.5382 594.182,34.9542 597.908,41.1162 601.37,48.3322 604.082,55.8602 606.014,63.6242 607.072,70.7502 607.48,78.7402 607.15,85.9362 606.014,93.8582 604.082,101.622 601.37,109.15 598.288,115.66 594.182,122.528 589.906,128.324 584.558,134.278 579.25,139.146 572.858,143.96 566.714,147.718 559.518,151.216 552.766,153.726 545.032,155.778 537.128,157.032 529.14,157.48 521.146,157.114 513.23,155.938 506.242,154.198 498.698,151.526 491.466,148.1 485.284,144.404 478.844,139.656 472.92,134.278 468.078,128.944 463.296,122.528 459.57,116.366 456.108,109.15 453.396,101.622 451.464,93.8582 450.406,86.7322 449.998,78.7402" style="stroke:rgb(138,174,245);stroke-width:0.000000;fill:none;stroke-opacity:0.5;stroke-linecap:round;stroke-linejoin:round;;fill:none"/>
<polyline points="449.998,78.7402 450.328,71.5462 451.464,63.6242 453.396,55.8602 456.108,48.3322 459.19,41.8222 463.296,34.9542 467.572,29.1582 472.92,23.2042 478.228,18.3362 484.62,13.5222 490.764,9.76416 497.96,6.26616 504.712,3.75616 512.446,1.70416 520.35,0.450157 528.338,0.00215748 536.332,0.368157 544.248,1.54416 551.236,3.28416 558.78,5.95616 566.012,9.38216 572.194,13.0782 578.634,17.8262 584.558,23.2042 589.4,28.5382 594.182,34.9542 597.908,41.1162 601.37,48.3322 604.082,55.8602 606.014,63.6242 607.072,70.7502 607.48,78.7402 607.15,85.9362 606.014,93.8582 604.082,101.622 601.37,109.15 598.288,115.66 594.182,122.528 589.906,128.324 584.558,134.278 579.25,139.146 572.858,143.96 566.714,147.718 559.518,151.216 552.766,153.726 545.032,155.778 537.128,157.032 529.14,157.48 521.146,157.114 513.23,155.938 506.242,154.198 498.698,151.526 491.466,148.1 485.284,144.404 478.844,139.656 472.92,134.278 468.078,128.944 463.296,122.528 459.57,116.366 456.108,109.15 453.396,101.622 451.464,93.8582 450.406,86.7322 449.998,78.7402" style="stroke:rgb(0,0,0);stroke-width:1px;fill:none;stroke-opacity:1;stroke-linecap:round;stroke-linejoin:round;;fill:none"/>
<polyline points="489.37,78.3402 489.956,85.5122 490.842,89.4142 492.122,93.2042 493.778,96.8462 495.796,100.3 498.156,103.532 500.83,106.51 506.348,111.124 509.752,113.23 513.35,114.978 520.202,117.174 524.146,117.842 528.138,118.106 535.312,117.558 539.218,116.69 543.016,115.432 549.454,112.22 552.746,109.944 555.788,107.348 558.552,104.454 561.008,101.296 563.13,97.9042 564.898,94.3142 566.292,90.5642 567.298,86.6922 568.1,79.5422 567.978,75.5422 567.452,71.5762 565.502,64.6502 563.882,60.9922 561.898,57.5182 559.574,54.2622 556.93,51.2582 551.458,46.5862 548.076,44.4482 544.496,42.6622 537.666,40.3962 533.728,39.6882 529.74,39.3842 525.74,39.4862 521.772,39.9922 517.874,40.9002 514.09,42.1982 510.456,43.8742 507.012,45.9102 501.4,50.4122 496.7,55.8602 494.544,59.2302 492.74,62.8002 491.308,66.5362 490.262,70.3982 489.614,74.3482 489.37,78.3402" style="stroke:rgb(138,174,245);stroke-width:0.000000;fill:none;stroke-opacity:0.5;stroke-linecap:round;stroke-linejoin:round;;fill:none"/>
<polyline points="489.37,78.3402 489.956,85.5122 490.842,89.4142 492.122,93.2042 493.778,96.8462 495.796,100.3 498.156,103.532 500.83,106.51 506.348,111.124 509.752,113.23 513.35,114.978 520.202,117.174 524.146,117.842 528.138,118.106 535.312,117.558 539.218,116.69 543.016,115.432 549.454,112.22 552.746,109.944 555.788,107.348 558.552,104.454 561.008,101.296 563.13,97.9042 564.898,94.3142 566.292,90.5642 567.298,86.6922 568.1,79.5422 567.978,75.5422 567.452,71.5762 565.502,64.6502 563.882,60.9922 561.898,57.5182 559.574,54.2622 556.93,51.2582 551.458,46.5862 548.076,44.4482 544.496,42.6622 537.666,40.3962 533.728,39.6882 529.74,39.3842 525.74,39.4862 521.772,39.9922 517.874,40.9002 514.09,42.1982 510.456,43.8742 507.012,45.9102 501.4,50.4122 496.7,55.8602 494.544,59.2302 492.74,62.8002 491.308,66.5362 490.262,70.3982 489.614,74.3482 489.37,78.3402" style="stroke:rgb(0,0,0);stroke-width:1px;fill:none;stroke-opacity:1;stroke-linecap:round;stroke-linejoin:round;;fill:none"/>
<polyline points="449.998,678.74 450.328,671.546 451.464,663.624 453.396,655.86 456.108,648.332 459.19,641.822 463.296,634.954 467.572,629.158 472.92,623.204 478.228,618.336 484.62,613.522 490.764,609.764 497.96,606.266 504.712,603.756 512.446,601.704 520.35,600.45 528.338,600.002 536.332,600.368 544.248,601.544 551.236,603.284 558.78,605.956 566.012,609.382 572.194,613.078 578.634,617.826 584.558,623.204 589.4,628.538 594.182,634.954 597.908,641.116 601.37,648.332 604.082,655.86 606.014,663.624 607.072,670.75 607.48,678.74 607.15,685.936 606.014,693.858 604.082,701.622 601.37,709.15 598.288,715.66 594.182,722.528 589.906,728.324 584.558,734.278 579.25,739.146 572.858,743.96 566.714,747.718 559.518,751.216 552.766,753.726 545.032,755.778 537.128,757.032 529.14,757.48 521.146,757.114 513.23,755.938 506.242,754.198 498.698,751.526 491.466,748.1 485.284,744.404 478.844,739.656 472.92,734.278 468.078,728.944 463.296,722.528 459.57,716.366 456.108,709.15 453.396,701.622 451.464,693.858 450.406,686.732 449.998,678.74" style="stroke:rgb(177,8,8);stroke-width:0.000000;fill:none;stroke-opacity:0.5;stroke-linecap:round;stroke-linejoin:round;;fill:none"/>
<polyline points="449.998,678.74 450.328,671.546 451.464,663.624 453.396,655.86 456.108,648.332 459.19,641.822 463.296,634.954 467.572,629.158 472.92,623.204 478.228,618.336 484.62,613.522 490.764,609.764 497.96,606.266 504.712,603.756 512.446,601.704 520.35,600.45 528.338,600.002 536.332,600.368 544.248,601.544 551.236,603.284 558.78,605.956 566.012,609.382 572.194,613.078 578.634,617.826 584.558,623.204 589.4,628.538 594.182,634.954 597.908,641.116 601.37,648.332 604.082,655.86 606.014,663.624 607.072,670.75 607.48,678.74 607.15,685.936 606.014,693.858 604.082,701.622 601.37,709.15 598.288,715.66 594.182,722.528 589.906,728.324 584.558,734.278 579.25,739.146 572.858,743.96 566.714,747.718 559.518,751.216 552.766,753.726 545.032,755.778 537.128,757.032 529.14,757.48 521.146,757.114 513.23,755.938 506.242,754.198 498.698,751.526 491.466,748.1 485.284,744.404 478.844,739.656 472.92,734.278 468.078,728.944 463.296,722.528 459.57,716.366 456.108,709.15 453.396,701.622 451.464,693.858 450.406,686.732 449.998,678.74" style="stroke:rgb(0,0,0);stroke-width:1px;fill:none;stroke-opacity:1;stroke-linecap:round;stroke-linejoin:round;;fill:none"/>
<polyline points="489.37,678.34 489.956,685.512 490.842,689.414 492.122,693.204 493.778,696.846 495.796,700.3 498.156,703.532 500.83,706.51 506.348,711.124 509.752,713.23 513.35,714.978 520.202,717.174 524.146,717.842 528.138,718.106 535.312,717.558 539.218,716.69 543.016,715.432 549.454,712.22 552.746,709.944 555.788,707.348 558.552,704.454 561.008,701.296 563.13,697.904 564.898,694.314 566.292,690.564 567.298,686.692 568.1,679.542 567.978,675.542 567.452,671.576 565.502,664.65 563.882,660.992 561.898,657.518 559.574,654.262 556.93,651.258 551.458,646.586 548.076,644.448 544.496,642.662 537.666,640.396 533.728,639.688 529.74,639.384 522.56,639.858 518.646,640.686 514.836,641.908 511.17,643.508 507.684,645.474 504.416,647.782 501.4,650.412 496.7,655.86 494.544,659.23 492.74,662.8 491.308,666.536 490.262,670.398 489.614,674.348 489.37,678.34" style="stroke:rgb(177,8,8);stroke-width:0.000000;fill:none;stroke-opacity:0.5;stroke-linecap:round;stroke-linejoin:round;;fill:none"/>
<polyline points="489.37,678.34 489.956,685.512 490.842,689.414 492.122,693.204 493.778,696.846 495.796,700.3 498.156,703.532 500.83,706.51 506.348,711.124 509.752,713.23 513.35,714.978 520.202,717.174 524.146,717.842 528.138,718.106 535.312,717.558 539.218,716.69 543.016,715.432 549.454,712.22 552.746,709.944 555.788,707.348 558.552,704.454 561.008,701.296 563.13,697.904 564.898,694.314 566.292,690.564 567.298,686.692 568.1,679.542 567.978,675.542 567.452,671.576 565.502,664.65 563.882,660.992 561.898,657.518 559.574,654.262 556.93,651.258 551.458,646.586 548.076,644.448 544.496,642.662 537.666,640.396 533.728,639.688 529.74,639.384 522.56,639.858 518.646,640.686 514.836,641.908 511.17,643.508 507.684,645.474 504.416,647.782 501.4,650.412 496.7,655.86 494.544,659.23 492.74,662.8 491.308,666.536 490.262,670.398 489.614,674.348 489.37,678.34" style="stroke:rgb(0,0,0);stroke-width:1px;fill:none;stroke-opacity:1;stroke-linecap:round;stroke-linejoin:round;;fill:none"/>
<polyline points="1250,78.7402 1250.33,71.5462 1251.46,63.6242 1253.17,56.6282 1255.8,49.0722 1259.19,41.8222 1262.85,35.6222 1267.57,29.1582 1272.92,23.2042 1278.23,18.3362 1284.62,13.5222 1291.47,9.38216 1297.96,6.26616 1305.48,3.51616 1312.45,1.70416 1320.35,0.450157 1328.34,0.00215748 1335.54,0.294157 1343.46,1.39016 1350.47,3.05816 1358.04,5.65416 1364.59,8.63816 1371.52,12.6382 1378.01,17.3222 1383.99,22.6402 1388.89,27.9242 1393.73,34.2902 1397.91,41.1162 1401.37,48.3322 1403.84,55.0962 1405.86,62.8402 1407.07,70.7502 1407.48,78.7402 1407.15,85.9362 1406.01,93.8582 1404.31,100.854 1401.68,108.41 1398.29,115.66 1394.62,121.86 1389.91,128.324 1384.56,134.278 1379.25,139.146 1372.86,143.96 1366.01,148.1 1359.52,151.216 1352.77,153.726 1345.03,155.778 1337.13,157.032 1329.14,157.48 1321.94,157.188 1314.02,156.092 1307.01,154.424 1299.44,151.828 1292.88,148.844 1285.95,144.844 1279.47,140.16 1273.49,134.842 1268.59,129.558 1263.75,123.192 1259.57,116.366 1256.11,109.15 1253.63,102.386 1251.62,94.6422 1250.41,86.7322 1250,78.7402" style="stroke:rgb(145,25,51);stroke-width:0.000000;fill:none;stroke-opacity:0.5;stroke-linecap:round;stroke-linejoin:round;;fill:none"/>
<polyline points="1250,78.7402 1250.33,71.5462 1251.46,63.6242 1253.17,56.6282 1255.8,49.0722 1259.19,41.8222 1262.85,35.6222 1267.57,29.1582 1272.92,23.2042 1278.23,18.3362 1284.62,13.5222 1291.47,9.38216 1297.96,6.26616 1305.48,3.51616 1312.45,1.70416 1320.35,0.450157 1328.34,0.00215748 1335.54,0.294157 1343.46,1.39016 1350.47,3.05816 1358.04,5.65416 1364.59,8.63816 1371.52,12.6382 1378.01,17.3222 1383.99,22.6402 1388.89,27.9242 1393.73,34.2902 1397.91,41.1162 1401.37,48.3322 1403.84,55.0962 1405.86,62.8402 1407.07,70.7502 1407.48,78.7402 1407.15,85.9362 1406.01,93.8582 1404.31,100.854 1401.68,108.41 1398.29,115.66 1394.62,121.86 1389.91,128.324 1384.56,134.278 1379.25,139.146 1372.86,143.96 1366.01,148.1 1359.52,151.216 1352.77,153.726 1345.03,155.778 1337.13,157.032 1329.14,157.48 1321.94,157.188 1314.02,156.092 1307.01,154.424 1299.44,151.828 1292.88,148.844 1285.95,144.844 1279.47,140.16 1273.49,134.842 1268.59,129.558 1263.75,123.192 1259.57,116.366 1256.11,109.15 1253.63,102.386 1251.62,94.6422 1250.41,86.7322 1250,78.7402" style="stroke:rgb(0,0,0);stroke-width:1px;fill:none;stroke-opacity:1;stroke-linecap:round;stroke-linejoin:round;;fill:none"/>
<polyline points="1289.37,78.3402 1289.53,82.3382 1290.1,86.3002 1292.12,93.2042 1293.78,96.8462 1295.8,100.3 1298.16,103.532 1300.83,106.51 1303.79,109.198 1307.01,111.572 1313.35,114.978 1320.2,117.174 1324.15,117.842 1328.14,118.106 1335.31,117.558 1339.22,116.69 1343.02,115.432 1346.67,113.792 1350.13,111.792 1355.79,107.348 1360.54,101.946 1362.73,98.6002 1364.57,95.0462 1366.04,91.3262 1367.13,87.4742 1367.82,83.5322 1368.1,79.5422 1367.59,72.3642 1366.74,68.4542 1365.5,64.6502 1362.32,58.1962 1360.06,54.8942 1357.48,51.8382 1352.11,47.0562 1348.77,44.8482 1345.23,42.9902 1341.51,41.5002 1337.67,40.3962 1333.73,39.6882 1329.74,39.3842 1325.74,39.4862 1321.77,39.9922 1317.87,40.9002 1314.09,42.1982 1310.46,43.8742 1307.01,45.9102 1301.4,50.4122 1296.7,55.8602 1294.54,59.2302 1292.74,62.8002 1291.31,66.5362 1290.26,70.3982 1289.61,74.3482 1289.37,78.3402" style="stroke:rgb(145,25,51);stroke-width:0.000000;fill:none;stroke-opacity:0.5;stroke-linecap:round;stroke-linejoin:round;;fill:none"/>
<polyline points="1289.37,78.3402 1289.53,82.3382 1290.1,86.3002 1292.12,93.2042 1293.78,96.8462 1295.8,100.3 1298.16,103.532 1300.83,106.51 1303.79,109.198 1307.01,111.572 1313.35,114.978 1320.2,117.174 1324.15,117.842 1328.14,118.106 1335.31,117.558 1339.22,116.69 1343.02,115.432 1346.67,113.792 1350.13,111.792 1355.79,107.348 1360.54,101.946 1362.73,98.6002 1364.57,95.0462 1366.04,91.3262 1367.13,87.4742 1367.82,83.5322 1368.1,79.5422 1367.59,72.3642 1366.74,68.4542 1365.5,64.6502 1362.32,58.1962 1360.06,54.8942 1357.48,51.8382 1352.11,47.0562 1348.77,44.8482 1345.23,42.9902 1341.51,41.5002 1337.67,40.3962 1333.73,39.6882 1329.74,39.3842 1325.74,39.4862 1321.77,39.9922 1317.87,40.9002 1314.09,42.1982 1310.46,43.8742 1307.01,45.9102 1301.4,50.4122 1296.7,55.8602 1294.54,59.2302 1292.74,62.8002 1291.31,66.5362 1290.26,70.3982 1289.61,74.3482 1289.37,78.3402" style="stroke:rgb(0,0,0);stroke-width:1px;fill:none;stroke-opacity:1;stroke-linecap:round;stroke-linejoin:round;;fill:none"/>
<polyline points="1250,678.74 1250.33,671.546 1251.46,663.624 1253.17,656.628 1255.8,649.072 1259.19,641.822 1262.85,635.622 1267.57,629.158 1272.92,623.204 1278.23,618.336 1284.62,613.522 1291.47,609.382 1297.96,606.266 1305.48,603.516 1312.45,601.704 1320.35,600.45 1328.34,600.002 1335.54,600.294 1343.46,601.39 1350.47,603.058 1358.04,605.654 1364.59,608.638 1371.52,612.638 1378.01,617.322 1383.99,622.64 1388.89,627.924 1393.73,634.29 1397.91,641.116 1401.37,648.332 1403.84,655.096 1405.86,662.84 1407.07,670.75 1407.48,678.74 1407.15,685.936 1406.01,693.858 1404.31,700.854 1401.68,708.41 1398.29,715.66 1394.62,721.86 1389.91,728.324 1384.56,734.278 1379.25,739.146 1372.86,743.96 1366.01,748.1 1359.52,751.216 1352,753.966 1345.03,755.778 1337.13,757.032 1329.14,757.48 1321.94,757.188 1314.02,756.092 1307.01,754.424 1299.44,751.828 1292.88,748.844 1285.95,744.844 1279.47,740.16 1273.49,734.842 1268.59,729.558 1263.75,723.192 1259.57,716.366 1256.11,709.15 1253.63,702.386 1251.62,694.642 1250.41,686.732 1250,678.74" style="stroke:rgb(185,235,79);stroke-width:0.000000;fill:none;stroke-opacity:0.5;stroke-linecap:round;stroke-linejoin:round;;fill:none"/>
<polyline points="1250,678.74 1250.33,671.546 1251.46,663.624 1253.17,656.628 1255.8,649.072 1259.19,641.822 1262.85,635.622 1267.57,629.158 1272.92,623.204 1278.23,618.336 1284.62,613.522 1291.47,609.382 1297.96,606.266 1305.48,603.516 1312.45,601.704 1320.35,600.45 1328.34,600.002 1335.54,600.294 1343.46,601.39 1350.47,603.058 1358.04,605.654 1364.59,608.638 1371.52,612.638 1378.01,617.322 1383.99,622.64 1388.89,627.924 1393.73,634.29 1397.91,641.116 1401.37,648.332 1403.84,655.096 1405.86,662.84 1407.07,670.75 1407.48,678.74 1407.15,685.936 1406.01,693.858 1404.31,700.854 1401.68,708.41 1398.29,715.66 1394.62,721.86 1389.91,728.324 1384.56,734.278 1379.25,739.146 1372.86,743.96 1366.01,748.1 1359.52,751.216 1352,753.966 1345.03,755.778 1337.13,757.032 1329.14,757.48 1321.94,757.188 1314.02,756.092 1307.01,754.424 1299.44,751.828 1292.88,748.844 1285.95,744.844 1279.47,740.16 1273.49,734.842 1268.59,729.558 1263.75,723.192 1259.57,716.366 1256.11,709.15 1253.63,702.386 1251.62,694.642 1250.41,686.732 1250,678.74" style="stroke:rgb(0,0,0);stroke-width:1px;fill:none;stroke-opacity:1;stroke-linecap:round;stroke-linejoin:round;;fill:none"/>
<polyline points="1289.37,678.34 1289.53,682.338 1290.1,686.3 1292.12,693.204 1293.78,696.846 1295.8,700.3 1298.16,703.532 1300.83,706.51 1303.79,709.198 1307.01,711.572 1313.35,714.978 1320.2,717.174 1324.15,717.842 1328.14,718.106 1335.31,717.558 1339.22,716.69 1343.02,715.432 1346.67,713.792 1350.13,711.792 1355.79,707.348 1360.54,701.946 1362.73,698.6 1364.57,695.046 1366.04,691.326 1367.13,687.474 1367.82,683.532 1368.1,679.542 1367.59,672.364 1366.74,668.454 1365.5,664.65 1362.32,658.196 1360.06,654.894 1357.48,651.838 1352.11,647.056 1348.77,644.848 1345.23,642.99 1341.51,641.5 1337.67,640.396 1333.73,639.688 1329.74,639.384 1322.56,639.858 1318.65,640.686 1314.84,641.908 1311.17,643.508 1307.68,645.474 1304.42,647.782 1301.4,650.412 1296.7,655.86 1294.54,659.23 1292.74,662.8 1291.31,666.536 1290.26,670.398 1289.61,674.348 1289.37,678.34" style="stroke:rgb(185,235,79);stroke-width:0.000000;fill:none;stroke-opacity:0.5;stroke-linecap:round;stroke-linejoin:round;;fill:none"/>
<polyline points="1289.37,678.34 1289.53,682.338 1290.1,686.3 1292.12,693.204 1293.78,696.846 1295.8,700.3 1298.16,703.532 1300.83,706.51 1303.79,709.198 1307.01,711.572 1313.35,714.978 1320.2,717.174 1324.15,717.842 1328.14,718.106 1335.31,717.558 1339.22,716.69 1343.02,715.432 1346.67,713.792 1350.13,711.792 1355.79,707.348 1360.54,701.946 1362.73,698.6 1364.57,695.046 1366.04,691.326 1367.13,687.474 1367.82,683.532 1368.1,679.542 1367.59,672.364 1366.74,668.454 1365.5,664.65 1362.32,658.196 1360.06,654.894 1357.48,651.838 1352.11,647.056 1348.77,644.848 1345.23,642.99 1341.51,641.5 1337.67,640.396 1333.73,639.688 1329.74,639.384 1322.56,639.858 1318.65,640.686 1314.84,641.908 1311.17,643.508 1307.68,645.474 1304.42,647.782 1301.4,650.412 1296.7,655.86 1294.54,659.23 1292.74,662.8 1291.31,666.536 1290.26,670.398 1289.61,674.348 1289.37,678.34" style="stroke:rgb(0,0,0);stroke-width:1px;fill:none;stroke-opacity:1;stroke-linecap:round;stroke-linejoin:round;;fill:none"/>
<polyline points="939.37,2418.51 939.37,2338.97 939.826,2333.39 940.736,2329.08 942.27,2324.54 944.348,2320.21 946.7,2316.49 949.724,2312.76 952.874,2309.69 956.68,2306.76 960.812,2304.32 964.836,2302.54 969.422,2301.12 974.146,2300.27 978.538,2300 983.332,2300.27 987.666,2301.03 991.89,2302.26 996.308,2304.14 1000.13,2306.32 1003.99,2309.17 1007.48,2312.47 1010.31,2315.84 1012.93,2319.86 1014.9,2323.8 1016.52,2328.31 1017.52,2332.6 1018.11,2339.37 1018.11,2418.51 1017.65,2424.09 1015.78,2431.45 1014.23,2435.14 1012.32,2438.66 1007.75,2444.72 1002.11,2449.8 995.588,2453.69 991.89,2455.22 988.056,2456.36 980.54,2457.44 976.538,2457.42 972.56,2456.99 967.108,2455.72 961.89,2453.69 957.012,2450.94 952.276,2447.26 948.408,2443.21 944.948,2438.31 942.424,2433.32 940.634,2428.01 939.712,2423.3 939.37,2418.51" style="stroke:rgb(242,41,165);stroke-width:0.000000;fill:none;stroke-opacity:0.5;stroke-linecap:round;stroke-linejoin:round;;fill:none"/>
<polyline points="939.37,2418.51 939.37,2338.97 939.826,2333.39 940.736,2329.08 942.27,2324.54 944.348,2320.21 946.7,2316.49 949.724,2312.76 952.874,2309.69 956.68,2306.76 960.812,2304.32 964.836,2302.54 969.422,2301.12 974.146,2300.27 978.538,2300 983.332,2300.27 987.666,2301.03 991.89,2302.26 996.308,2304.14 1000.13,2306.32 1003.99,2309.17 1007.48,2312.47 1010.31,2315.84 1012.93,2319.86 1014.9,2323.8 1016.52,2328.31 1017.52,2332.6 1018.11,2339.37 1018.11,2418.51 1017.65,2424.09 1015.78,2431.45 1014.23,2435.14 1012.32,2438.66 1007.75,2444.72 1002.11,2449.8 995.588,2453.69 991.89,2455.22 988.056,2456.36 980.54,2457.44 976.538,2457.42 972.56,2456.99 967.108,2455.72 961.89,2453.69 957.012,2450.94 952.276,2447.26 948.408,2443.21 944.948,2438.31 942.424,2433.32 940.634,2428.01 939.712,2423.3 939.37,2418.51" style="stroke:rgb(0,0,0);stroke-width:1px;fill:none;stroke-opacity:1;stroke-linecap:round;stroke-linejoin:round;;fill:none"/>
<polyline points="1139.37,2418.51 1139.37,2338.97 1139.83,2333.39 1140.74,2329.08 1142.27,2324.54 1144.35,2320.21 1146.7,2316.49 1149.72,2312.76 1152.87,2309.69 1156.68,2306.76 1160.81,2304.32 1164.84,2302.54 1169.42,2301.12 1174.15,2300.27 1178.54,2300 1183.33,2300.27 1187.67,2301.03 1191.89,2302.26 1196.31,2304.14 1200.13,2306.32 1203.99,2309.17 1207.48,2312.47 1210.31,2315.84 1212.93,2319.86 1214.9,2323.8 1216.52,2328.31 1217.52,2332.6 1218.11,2339.37 1218.11,2418.51 1217.65,2424.09 1215.78,2431.45 1214.23,2435.14 1212.32,2438.66 1207.75,2444.72 1202.11,2449.8 1195.59,2453.69 1191.89,2455.22 1188.06,2456.36 1180.54,2457.44 1176.54,2457.42 1172.56,2456.99 1167.11,2455.72 1161.89,2453.69 1156.68,2450.72 1152.28,2447.26 1148.41,2443.21 1144.95,2438.31 1142.42,2433.32 1140.63,2428.01 1139.71,2423.3 1139.37,2418.51" style="stroke:rgb(228,219,62);stroke-width:0.000000;fill:none;stroke-opacity:0.5;stroke-linecap:round;stroke-linejoin:round;;fill:none"/>
<polyline points="1139.37,2418.51 1139.37,2338.97 1139.83,2333.39 1140.74,2329.08 1142.27,2324.54 1144.35,2320.21 1146.7,2316.49 1149.72,2312.76 1152.87,2309.69 1156.68,2306.76 1160.81,2304.32 1164.84,2302.54 1169.42,2301.12 1174.15,2300.27 1178.54,2300 1183.33,2300.27 1187.67,2301.03 1191.89,2302.26 1196.31,2304.14 1200.13,2306.32 1203.99,2309.17 1207.48,2312.47 1210.31,2315.84 1212.93,2319.86 1214.9,2323.8 1216.52,2328.31 1217.52,2332.6 1218.11,2339.37 1218.11,2418.51 1217.65,2424.09 1215.78,2431.45 1214.23,2435.14 1212.32,2438.66 1207.75,2444.72 1202.11,2449.8 1195.59,2453.69 1191.89,2455.22 1188.06,2456.36 1180.54,2457.44 1176.54,2457.42 1172.56,2456.99 1167.11,2455.72 1161.89,2453.69 1156.68,2450.72 1152.28,2447.26 1148.41,2443.21 1144.95,2438.31 1142.42,2433.32 1140.63,2428.01 1139.71,2423.3 1139.37,2418.51" style="stroke:rgb(0,0,0);stroke-width:1px;fill:none;stroke-opacity:1;stroke-linecap:round;stroke-linejoin:round;;fill:none"/>
</svg>
