<?xml version="1.0" standalone="no"?>
<!DOCTYPE svg PUBLIC "-//W3C//DTD SVG 1.1//EN"
"http://www.w3.org/Graphics/SVG/1.1/DTD/svg11.dtd">
<svg width="148.8" height="148.8" viewBox="0 0 3100 3100" version="1.1"
xmlns="http://www.w3.org/2000/svg"
xmlns:xlink="http://www.w3.org/1999/xlink">
<g fill-rule="evenodd"><path d="M 571.264,1950.8 L 571.589,1942.81 L 572.882,1934.1 L 574.894,1926.35 L 578.002,1918.12 L 581.61,1910.98 L 585.924,1904.24 L 593.063,1895.61 L 601.355,1888.08 L 610.63,1881.81 L 615.579,1879.18 L 621.446,1876.62 L 632.144,1873.31 L 638.434,1872.11 L 644.002,1871.49 L 649.6,1871.26 L 655.998,1871.49 L 667.075,1873.13 L 677.806,1876.33 L 682.974,1878.5 L 688.675,1881.41 L 693.454,1884.34 L 698.645,1888.08 L 706.937,1895.61 L 710.66,1899.8 L 714.538,1904.89 L 720.285,1914.5 L 724.61,1924.83 L 726.408,1930.98 L 727.567,1936.46 L 728.411,1942.81 L 728.724,1948.4 L 728.638,1954 L 728.053,1960.38 L 727.118,1965.9 L 725.571,1972.11 L 723.525,1978.18 L 721.335,1983.34 L 718.783,1988.33 L 715.442,1993.79 L 712.163,1998.33 L 708.031,2003.22 L 704.099,2007.21 L 699.272,2011.42 L 694.119,2015.22 L 689.37,2018.19 L 689.37,2510.63 L 1510.63,2510.63 L 1510.83,2506.63 L 1511.44,2502.68 L 1512.57,2498.43 L 1514,2494.69 L 1515.8,2491.12 L 1518.2,2487.42 L 1520.72,2484.32 L 1523.84,2481.21 L 1526.96,2478.71 L 1530.66,2476.34 L 1534.24,2474.55 L 1538.37,2473.02 L 1542.25,2472.03 L 1546.2,2471.44 L 1550.6,2471.26 L 1554.59,2471.53 L 1560.48,2472.68 L 1566.12,2474.71 L 1571.39,2477.58 L 1576.46,2481.48 L 1580.58,2485.84 L 1584.2,2491.12 L 1586.9,2496.91 L 1588.56,2502.68 L 1589.37,2510.23 L 1589.32,2591.37 L 1588.71,2596.53 L 1587.3,2601.95 L 1585.32,2606.76 L 1582.72,2611.26 L 1579.02,2615.98 L 1574.32,2620.33 L 1569.34,2623.66 L 1563.53,2626.34 L 1557.36,2628.05 L 1551.4,2628.72 L 1545.01,2628.42 L 1538.75,2627.1 L 1533.15,2624.95 L 1527.61,2621.75 L 1522.66,2617.7 L 1518.43,2612.9 L 1515.04,2607.48 L 1512.57,2601.57 L 1511.15,2595.75 L 1510.63,2589.37 L 650,2589.37 L 644.468,2588.98 L 638.287,2587.59 L 632.41,2585.22 L 626.987,2581.94 L 623.893,2579.47 L 620.531,2576.11 L 617.599,2572.36 L 615.14,2568.3 L 613.188,2563.96 L 611.774,2559.42 L 610.917,2554.75 L 610.638,2550.79 L 610.63,2018.19 L 603.912,2013.84 L 597.67,2008.84 L 591.969,2003.22 L 586.392,1996.41 L 582.01,1989.72 L 578.33,1982.61 L 575.39,1975.17 L 573.048,1966.68 L 571.752,1958.79 L 571.264,1950.8 z " style="fill-opacity:1.000000;fill:rgb(33,1,197);stroke:rgb(0,0,0);stroke-width:2"/></g>
<g fill-rule="evenodd"><path d="M 571.264,949.199 L 572.056,938.83 L 574.208,928.656 L 577.369,919.59 L 582.01,910.284 L 587.349,902.305 L 594.181,894.464 L 601.987,887.592 L 610.63,881.809 L 610.638,299.207 L 611.14,293.685 L 612.413,288.287 L 614.431,283.122 L 617.155,278.292 L 620.011,274.492 L 623.305,271.063 L 626.987,268.056 L 630.315,265.905 L 634.568,263.78 L 639.047,262.184 L 643.685,261.14 L 648.415,260.662 L 1021.98,260.63 L 1021.41,254.8 L 1021.26,249.199 L 1021.52,243.603 L 1022.3,237.248 L 1024.89,226.354 L 1026.77,221.073 L 1029.36,215.219 L 1032.01,210.284 L 1035.46,204.891 L 1042.51,196.192 L 1050.73,188.581 L 1055.22,185.233 L 1060.63,181.809 L 1070.7,176.914 L 1076.74,174.775 L 1082.14,173.311 L 1093.2,171.554 L 1098.8,171.269 L 1105.2,171.432 L 1110.77,172 L 1117.08,173.134 L 1127.81,176.333 L 1137.98,181.023 L 1142.78,183.898 L 1148.01,187.592 L 1156.38,195.034 L 1163.61,203.588 L 1169.55,213.081 L 1174.08,223.32 L 1177.12,234.099 L 1178.59,245.2 L 1178.48,256.397 L 1177.83,261.962 L 1176.6,268.245 L 1173.81,277.432 L 1169.55,286.919 L 1164.08,295.763 L 1157.49,303.808 L 1151.73,309.365 L 1146.09,313.843 L 1140.06,317.787 L 1132.98,321.501 L 1128.88,326.757 L 1123.53,331.566 L 1118.11,334.96 L 1112.2,337.431 L 1105.98,338.913 L 1100,339.37 L 689.37,339.37 L 689.37,881.809 L 694.119,884.781 L 699.272,888.581 L 707.487,896.192 L 714.538,904.891 L 720.285,914.503 L 724.61,924.832 L 726.408,930.977 L 727.567,936.458 L 728.704,947.599 L 728.638,954.001 L 728.155,959.583 L 726.408,969.023 L 723.525,978.181 L 719.548,986.919 L 714.076,995.763 L 708.031,1003.22 L 700.511,1010.4 L 692.784,1016.1 L 683.7,1021.16 L 674.788,1024.74 L 664.723,1027.35 L 655.2,1028.57 L 644.8,1028.57 L 634.491,1027.2 L 625.212,1024.74 L 616.3,1021.16 L 607.216,1016.1 L 599.489,1010.4 L 591.969,1003.22 L 585.924,995.763 L 580.83,987.624 L 576.766,978.927 L 573.592,969.023 L 571.845,959.583 L 571.264,949.199M 1060.65,251.201 L 1061.09,255.981 L 1062.09,260.63 L 1100.8,260.638 L 1107.95,261.441 L 1113.34,262.959 L 1119.16,265.608 L 1125.1,269.67 L 1130.41,275.001 L 1130.83,274.48 L 1134.77,268.46 L 1136.47,264.835 L 1137.79,261.057 L 1138.71,257.165 L 1139.24,253.199 L 1139.36,249.2 L 1139.08,245.209 L 1138.39,241.267 L 1137.3,237.416 L 1134.39,230.837 L 1130.33,224.898 L 1127.63,221.95 L 1124.64,219.291 L 1118.64,215.32 L 1115.02,213.608 L 1111.25,212.271 L 1104.19,210.854 L 1100.2,210.63 L 1096.2,210.813 L 1089.14,212.159 L 1085.35,213.457 L 1081.72,215.132 L 1078.27,217.168 L 1075.05,219.543 L 1072.09,222.232 L 1069.42,225.208 L 1067.06,228.44 L 1064.68,232.61 L 1062.83,237.037 L 1061.52,241.658 L 1060.79,246.403 L 1060.65,251.201 z " style="fill-opacity:1.000000;fill:rgb(79,209,208);stroke:rgb(0,0,0);stroke-width:2"/></g>
<g fill-rule="evenodd"><path d="M 1021.26,850 L 1021.59,842.805 L 1022.72,834.884 L 1024.66,827.119 L 1027.37,819.59 L 1030.45,813.081 L 1034.56,806.213 L 1038.83,800.416 L 1044.18,794.464 L 1049.49,789.596 L 1055.88,784.781 L 1062.02,781.023 L 1069.22,777.525 L 1075.97,775.015 L 1083.71,772.964 L 1091.61,771.708 L 1099.6,771.261 L 1107.59,771.627 L 1115.51,772.802 L 1122.5,774.542 L 1130.04,777.215 L 1137.27,780.64 L 1143.45,784.336 L 1149.89,789.085 L 1155.82,794.464 L 1160.66,799.797 L 1165.44,806.213 L 1169.17,812.376 L 1172.63,819.59 L 1175.34,827.119 L 1177.28,834.884 L 1178.33,842.008 L 1178.74,850 L 1178.41,857.195 L 1177.28,865.116 L 1175.34,872.881 L 1172.63,880.41 L 1169.55,886.919 L 1165.44,893.787 L 1161.17,899.584 L 1155.82,905.536 L 1150.51,910.404 L 1144.12,915.219 L 1137.98,918.977 L 1130.78,922.475 L 1124.03,924.985 L 1116.29,927.036 L 1108.39,928.292 L 1100.4,928.739 L 1092.41,928.373 L 1084.49,927.198 L 1077.5,925.458 L 1069.96,922.785 L 1062.73,919.36 L 1056.55,915.664 L 1050.11,910.915 L 1044.18,905.536 L 1039.34,900.203 L 1034.56,893.787 L 1030.83,887.624 L 1027.37,880.41 L 1024.66,872.881 L 1022.72,865.116 L 1021.67,857.992 L 1021.26,850M 1060.63,849.6 L 1061.22,856.771 L 1062.1,860.672 L 1063.38,864.463 L 1065.04,868.105 L 1067.06,871.56 L 1069.42,874.792 L 1072.09,877.768 L 1077.61,882.383 L 1081.01,884.489 L 1084.61,886.238 L 1091.46,888.433 L 1095.41,889.101 L 1099.4,889.366 L 1106.57,888.817 L 1110.48,887.95 L 1114.28,886.69 L 1120.72,883.479 L 1124.01,881.204 L 1127.05,878.606 L 1129.81,875.713 L 1132.27,872.554 L 1134.39,869.163 L 1136.16,865.573 L 1137.55,861.823 L 1138.56,857.95 L 1139.36,850.8 L 1139.24,846.801 L 1138.71,842.835 L 1136.76,835.91 L 1135.14,832.251 L 1133.16,828.776 L 1130.83,825.52 L 1128.19,822.517 L 1122.72,817.846 L 1119.34,815.706 L 1115.76,813.921 L 1108.93,811.656 L 1104.99,810.947 L 1101,810.643 L 1093.82,811.118 L 1089.91,811.946 L 1086.1,813.167 L 1082.43,814.768 L 1078.95,816.733 L 1075.68,819.042 L 1072.66,821.67 L 1067.96,827.119 L 1065.8,830.489 L 1064,834.06 L 1062.57,837.796 L 1061.52,841.658 L 1060.88,845.606 L 1060.63,849.6 z " style="fill-opacity:1.000000;fill:rgb(26,178,37);stroke:rgb(0,0,0);stroke-width:2"/></g>
<g fill-rule="evenodd"><path d="M 1710.63,2510.63 L 1711.15,2504.25 L 1712.57,2498.43 L 1715.04,2492.52 L 1718.43,2487.1 L 1722.66,2482.3 L 1727.61,2478.25 L 1733.15,2475.05 L 1739.14,2472.79 L 1745.41,2471.53 L 1749.4,2471.26 L 1753.4,2471.41 L 1757.36,2471.95 L 1761.63,2473.02 L 1765.39,2474.39 L 1769.34,2476.34 L 1773.04,2478.71 L 1776.16,2481.21 L 1779.02,2484.02 L 1781.8,2487.42 L 1784.2,2491.12 L 1786,2494.69 L 1787.43,2498.43 L 1788.48,2502.29 L 1789.12,2506.24 L 1789.37,2510.63 L 2610.63,2510.63 L 2610.63,1718.19 L 2601.35,1711.92 L 2597.08,1708.3 L 2592.51,1703.81 L 2585.46,1695.11 L 2579.72,1685.5 L 2575.39,1675.17 L 2572.57,1664.33 L 2571.32,1653.2 L 2571.67,1642.01 L 2573.59,1630.98 L 2577.06,1620.33 L 2581.61,1610.98 L 2587.84,1601.67 L 2595.32,1593.34 L 2603.27,1586.63 L 2612.73,1580.64 L 2622.94,1576.05 L 2632.92,1573.13 L 2644,1571.49 L 2655.2,1571.43 L 2666.29,1572.96 L 2676.3,1575.78 L 2686.57,1580.26 L 2696.09,1586.16 L 2704.68,1593.34 L 2710.15,1599.18 L 2714.99,1605.55 L 2719.17,1612.38 L 2722.94,1620.33 L 2725.57,1627.89 L 2727.43,1635.67 L 2728.48,1643.6 L 2728.7,1652.4 L 2727.83,1661.96 L 2725.57,1672.11 L 2722.32,1681.15 L 2717.58,1690.41 L 2711.67,1698.96 L 2705.25,1706.1 L 2698.01,1712.41 L 2689.37,1718.19 L 2689.36,2550.79 L 2688.57,2557.88 L 2686.52,2564.7 L 2683.28,2571.04 L 2678.39,2577.27 L 2673.01,2581.94 L 2666.16,2585.9 L 2658.65,2588.41 L 2650.79,2589.36 L 1789.37,2589.37 L 1788.91,2595.35 L 1787.67,2600.81 L 1785.5,2606.4 L 1782.5,2611.6 L 1779.02,2615.98 L 1774.64,2620.08 L 1769.69,2623.47 L 1764.65,2625.91 L 1759.32,2627.62 L 1753.4,2628.59 L 1747.4,2628.65 L 1741.46,2627.8 L 1735.72,2626.06 L 1730.31,2623.47 L 1725.68,2620.33 L 1721.26,2616.27 L 1717.28,2611.26 L 1714,2605.31 L 1711.89,2599.27 L 1710.79,2592.97 L 1710.63,2510.63 z " style="fill-opacity:1.000000;fill:rgb(116,203,55);stroke:rgb(0,0,0);stroke-width:2"/></g>
<g fill-rule="evenodd"><path d="M 1821.26,250 L 1821.59,242.805 L 1822.72,234.884 L 1824.43,227.886 L 1827.06,220.33 L 1830.45,213.081 L 1834.12,206.88 L 1838.83,200.416 L 1844.18,194.464 L 1849.49,189.596 L 1855.88,184.781 L 1862.73,180.64 L 1869.22,177.525 L 1876.74,174.775 L 1883.71,172.964 L 1891.61,171.708 L 1899.6,171.261 L 1906.8,171.554 L 1914.72,172.649 L 1921.73,174.317 L 1929.3,176.914 L 1935.85,179.897 L 1942.78,183.898 L 1949.27,188.581 L 1955.25,193.899 L 1960.15,199.183 L 1964.99,205.55 L 1969.17,212.376 L 1972.63,219.59 L 1975.11,226.354 L 1977.12,234.099 L 1978.33,242.008 L 1978.74,250 L 1978.41,257.195 L 1977.28,265.116 L 1975.57,272.114 L 1972.94,279.67 L 1969.55,286.919 L 1965.88,293.12 L 1961.17,299.584 L 1955.82,305.536 L 1950.51,310.404 L 1944.12,315.219 L 1937.27,319.36 L 1930.78,322.475 L 1924.03,324.985 L 1916.29,327.036 L 1908.39,328.292 L 1900.4,328.739 L 1893.2,328.446 L 1885.28,327.351 L 1878.27,325.683 L 1870.7,323.086 L 1864.15,320.103 L 1857.22,316.102 L 1850.73,311.419 L 1844.75,306.101 L 1839.85,300.817 L 1835.01,294.45 L 1830.83,287.624 L 1827.37,280.41 L 1824.89,273.646 L 1822.88,265.901 L 1821.67,257.992 L 1821.26,250M 1860.63,249.6 L 1860.79,253.597 L 1861.36,257.558 L 1863.38,264.463 L 1865.04,268.105 L 1867.06,271.56 L 1869.42,274.792 L 1872.09,277.768 L 1875.05,280.457 L 1878.27,282.832 L 1884.61,286.238 L 1891.46,288.433 L 1895.41,289.101 L 1899.4,289.366 L 1906.57,288.817 L 1910.48,287.95 L 1914.28,286.69 L 1917.93,285.052 L 1921.39,283.051 L 1927.05,278.606 L 1931.8,273.206 L 1933.99,269.858 L 1935.83,266.305 L 1937.3,262.584 L 1938.39,258.733 L 1939.08,254.791 L 1939.36,250.8 L 1938.85,243.624 L 1938,239.714 L 1936.76,235.91 L 1933.58,229.455 L 1931.33,226.152 L 1928.74,223.096 L 1923.37,218.314 L 1920.03,216.106 L 1916.49,214.248 L 1912.77,212.76 L 1908.93,211.656 L 1904.99,210.947 L 1901,210.643 L 1897,210.744 L 1893.03,211.251 L 1889.14,212.159 L 1885.35,213.457 L 1881.72,215.132 L 1878.27,217.168 L 1872.66,221.67 L 1867.96,227.119 L 1865.8,230.489 L 1864,234.06 L 1862.57,237.796 L 1861.52,241.658 L 1860.88,245.606 L 1860.63,249.6 z " style="fill-opacity:1.000000;fill:rgb(138,174,245);stroke:rgb(0,0,0);stroke-width:2"/></g>
<g fill-rule="evenodd"><path d="M 1821.32,853.201 L 1821.52,843.603 L 1822.88,834.099 L 1825.14,825.592 L 1828.67,816.663 L 1833.68,807.552 L 1840.37,798.574 L 1848.27,790.635 L 1857.22,783.898 L 1867.03,778.497 L 1877.5,774.542 L 1888.43,772.114 L 1899.6,771.261 L 1909.98,771.895 L 1920.19,773.891 L 1930.04,777.215 L 1939.37,781.809 L 1948.01,787.592 L 1955.82,794.464 L 1962.65,802.305 L 1968.19,810.63 L 2650,810.63 L 2654.75,810.917 L 2659.42,811.774 L 2663.96,813.188 L 2668.3,815.14 L 2672.36,817.599 L 2676.11,820.531 L 2679.47,823.893 L 2682.84,828.292 L 2685.22,832.41 L 2687.34,837.533 L 2688.57,842.125 L 2689.3,847.623 L 2689.37,1181.81 L 2695.44,1185.69 L 2701.73,1190.64 L 2706.94,1195.61 L 2712.16,1201.67 L 2716.32,1207.55 L 2720.28,1214.5 L 2723.23,1221.07 L 2725.79,1228.66 L 2727.43,1235.67 L 2728.41,1242.81 L 2728.74,1250 L 2728.33,1257.99 L 2727.28,1265.12 L 2725.34,1272.88 L 2722.94,1279.67 L 2719.55,1286.92 L 2716.75,1291.77 L 2713.13,1297.06 L 2705.82,1305.54 L 2701.12,1309.89 L 2696.73,1313.37 L 2687.27,1319.36 L 2677.06,1323.95 L 2671.73,1325.68 L 2665.51,1327.2 L 2659.19,1328.2 L 2653.6,1328.66 L 2647.2,1328.69 L 2641.61,1328.29 L 2630.59,1326.31 L 2624.45,1324.48 L 2619.22,1322.48 L 2614.15,1320.1 L 2608.57,1316.96 L 2603.27,1313.37 L 2598.88,1309.89 L 2590.9,1302.03 L 2587.35,1297.7 L 2583.68,1292.45 L 2580.83,1287.62 L 2578,1281.88 L 2575.92,1276.68 L 2573.99,1270.57 L 2572.57,1264.33 L 2571.67,1257.99 L 2571.28,1251.6 L 2571.41,1245.2 L 2572.06,1238.83 L 2573.22,1232.53 L 2574.89,1226.35 L 2577.06,1220.33 L 2579.72,1214.5 L 2582.83,1208.91 L 2586.39,1203.59 L 2590.37,1198.57 L 2594.75,1193.9 L 2599.49,1189.6 L 2605.22,1185.23 L 2610.63,1181.81 L 2610.63,889.37 L 1968.19,889.37 L 1964.99,894.45 L 1961.67,898.959 L 1954.1,907.212 L 1945.44,914.308 L 1935.85,920.103 L 1925.55,924.481 L 1914.72,927.351 L 1903.6,928.658 L 1892.41,928.373 L 1883.71,927.036 L 1874.45,924.481 L 1865.58,920.818 L 1857.22,916.102 L 1849.49,910.404 L 1843.06,904.39 L 1836.87,897.056 L 1831.61,889.023 L 1827.68,881.147 L 1824.43,872.114 L 1822.3,862.752 L 1821.32,853.201M 1860.63,849.6 L 1860.79,853.597 L 1862.1,860.672 L 1863.38,864.463 L 1865.04,868.105 L 1867.06,871.56 L 1869.42,874.792 L 1872.09,877.768 L 1875.05,880.457 L 1881.01,884.489 L 1886.85,887.109 L 1893.03,888.749 L 1900.2,889.37 L 1906.57,888.817 L 1913.53,886.973 L 1919.34,884.294 L 1925,880.412 L 1921.95,877.626 L 1919.29,874.636 L 1916.95,871.392 L 1914.59,867.211 L 1913.03,863.528 L 1911.66,858.928 L 1910.95,854.99 L 1910.63,850.2 L 1910.81,846.203 L 1911.4,842.246 L 1912.39,838.368 L 1914.08,833.877 L 1915.9,830.315 L 1918.08,826.956 L 1921.12,823.243 L 1925,819.589 L 1924.64,819.291 L 1918.64,815.32 L 1915.02,813.608 L 1911.25,812.271 L 1904.19,810.854 L 1900.2,810.63 L 1896.2,810.813 L 1889.14,812.159 L 1885.35,813.457 L 1881.72,815.132 L 1878.27,817.168 L 1875.05,819.543 L 1872.09,822.232 L 1869.42,825.208 L 1865.42,831.188 L 1863.68,834.795 L 1862.33,838.56 L 1860.88,845.606 L 1860.63,849.6 z " style="fill-opacity:1.000000;fill:rgb(177,8,8);stroke:rgb(0,0,0);stroke-width:2"/></g>
</svg>
