<?xml version="1.0" standalone="no"?>
<!DOCTYPE svg PUBLIC "-//W3C//DTD SVG 1.1//EN"
"http://www.w3.org/Graphics/SVG/1.1/DTD/svg11.dtd">
<svg width="148.8" height="148.8" viewBox="0 0 3100 3100" version="1.1"
xmlns="http://www.w3.org/2000/svg"
xmlns:xlink="http://www.w3.org/1999/xlink">
<g fill-rule="evenodd"><path d="M -2.27374e-13,1450 L 25.6012,1450 L 37.1833,1450.03 L 40.7879,1450.05 L 54.7998,1450.08 L 165.209,1449.94 L 179.551,1449.98 L 188.552,1450.05 L 203.714,1450.09 L 275.33,1449.94 L 287.239,1449.96 L 305.04,1450.08 L 318.571,1450.1 L 365.528,1449.92 L 377.425,1449.93 L 381.529,1449.96 L 387.885,1449.98 L 428.055,1450.02 L 435.036,1450 L 444.404,1449.94 L 454.75,1449.93 L 489.555,1450.09 L 501.269,1450.07 L 512.486,1449.97 L 522.425,1449.95 L 551.525,1450.03 L 558.042,1450.02 L 578.235,1449.93 L 588.726,1449.94 L 591.107,1449.96 L 596.745,1449.98 L 626.834,1450.01 L 632.44,1450 L 644.8,1449.93 L 655.198,1449.93 L 664.606,1450 L 671.013,1450.02 L 709.091,1449.98 L 718.556,1450.02 L 718.777,1450.02 L 729.87,1450.07 L 774.463,1449.94 L 785.216,1449.98 L 793.227,1450.05 L 804.904,1450.08 L 845.249,1449.94 L 855.598,1449.95 L 856.342,1449.96 L 862.406,1449.98 L 902.176,1450.02 L 909.377,1450 L 922.567,1449.92 L 934.47,1449.92 L 952.575,1450 L 959.136,1450.02 L 997.205,1449.99 L 1004.74,1453.06 L 1006.27,1453.69 L 1010.84,1455.55 L 1013.9,1456.8 L 1067.21,1478.67 L 1069.49,1479.61 L 1075.07,1481.91 L 1080.5,1484.14 L 1132.74,1505.4 L 1140.94,1508.77 L 1141.51,1509 L 1147.27,1511.38 L 1195.14,1530.97 L 1202.03,1533.77 L 1204.62,1534.82 L 1213.28,1538.34 L 1281.1,1566.21 L 1286.46,1568.4 L 1294.07,1571.5 L 1295.74,1572.17 L 1376.93,1605.3 L 1386,1609.03 L 1418.15,1622.33 L 1432.8,1628.33 L 1483.98,1649.07 L 1495.08,1653.6 L 1497.13,1654.44 L 1499.92,1653.71 L 1513.22,1656.45 L 1517.66,1657.36 L 1558.08,1665.57 L 1567.65,1667.54 L 1603.26,1675 L 1607.21,1675.82 L 1650,1684.67 L 1650,1984.06 L 1650.01,1996.69 L 1650.06,2014.97 L 1650.07,2029.47 L 1649.96,2224.15 L 1650,2236.57 L 1650.04,2241.63 L 1650.08,2254.89 L 1649.94,2320.58 L 1650,2331.04 L 1650.02,2332.99 L 1650.07,2343.97 L 1649.94,2375.47 L 1649.98,2383.5 L 1650.02,2385.86 L 1650.06,2393.69 L 1649.95,2412 L 1649.99,2418.29 L 1650.02,2420.19 L 1650.05,2426.87 L 1649.95,2438.4 L 1649.98,2444.27 L 1650.02,2446.11 L 1650.05,2451.86 L 1649.95,2460.4 L 1649.98,2465.29 L 1650.02,2467.43 L 1650.04,2472.25 L 1649.96,2478.8 L 1649.98,2483.18 L 1650.02,2485.02 L 1650.03,2489.36 L 1649.95,2496.09 L 1649.95,2499.26 L 1650,2503.72 L 1650.01,2505.69 L 1650,2510.27 L 1650,2510.75 L 1650.05,2591.41 L 1650.04,2593.09 L 1649.97,2598.49 L 1650.01,2603.58 L 1650.02,2603.73 L 1650.03,2610.07 L 1649.98,2612.45 L 1649.98,2618.24 L 1650.03,2620.83 L 1650.02,2627.61 L 1650.01,2627.84 L 1649.97,2633.45 L 1650.05,2640.53 L 1650.05,2644.15 L 1650.01,2648.31 L 1650,2650.12 L 1650,2664.11 L 1650,2664.66 L 1650.02,2671.76 L 1650.02,2672.82 L 1649.98,2692.56 L 1649.98,2693.99 L 1650,2701.99 L 1650,2702.84 L 1650,2732.25 L 1650,2733.5 L 1649.97,2742.28 L 1649.97,2744.26 L 1650.03,2790.71 L 1650.01,2798.49 L 1649.96,2804.73 L 1649.93,2813.6 L 1650.09,2908.24 L 1650.02,2929.12 L 1649.93,2939.47 L 1649.85,2963.23 L 1650.03,3100 L -2.27374e-13,3100 L -2.27374e-13,1450 z " style="fill-opacity:0.200000;fill:rgb(33,1,197);"/></g>
<g fill-rule="evenodd"><path d="M 1499.92,0 L 1499.93,6.26233 L 1499.96,9.40762 L 1500,17.7961 L 1500,58.6588 L 1499.96,66.7853 L 1499.95,67.4696 L 1499.92,79.0504 L 1500.04,106.334 L 1500.03,114.805 L 1499.91,131.6 L 1499.93,143.228 L 1499.98,148.864 L 1500.01,156.282 L 1499.98,188.603 L 1499.97,191.169 L 1499.94,196.682 L 1499.94,202.47 L 1500.03,228.056 L 1500.02,235.264 L 1499.92,248.471 L 1499.93,259.671 L 1500,266.401 L 1500.03,274.412 L 1499.98,294.072 L 1499.99,299.714 L 1500.04,307.436 L 1500.04,315.533 L 1499.98,325.019 L 1499.97,331.542 L 1500.04,349.781 L 1500.02,358.053 L 1499.95,366.456 L 1499.94,376.486 L 1500.03,392.468 L 1500.03,400.135 L 1499.93,423.788 L 1499.96,435.2 L 1499.98,437.48 L 1500.02,446.338 L 1499.97,490.037 L 1499.97,491.36 L 1499.95,499.432 L 1499.95,503.577 L 1500.04,549.44 L 1500.04,550.063 L 1495.76,550.04 L 1474.28,549.895 L 1457.86,549.891 L 1435.8,550.032 L 1425.07,550.048 L 1395.08,549.947 L 1383.98,549.974 L 1377.73,550.027 L 1366.9,550.052 L 1342.68,549.96 L 1333.5,549.979 L 1326.14,550.038 L 1316.19,550.05 L 1313.42,550.034 L 1282.73,551.385 L 1274.14,551.706 L 1261.52,552.092 L 1254.14,552.363 L 1245.23,552.747 L 1236.23,553.062 L 1209.71,553.778 L 1209.17,553.792 L 1202.86,553.97 L 1200.6,554.028 L 1177.27,554.577 L 1169.82,554.693 L 1163.95,554.738 L 1157.39,554.835 L 1147.86,555.044 L 1139.75,555.148 L 1122.55,555.212 L 1117.5,555.26 L 1116.54,555.275 L 1109.48,555.326 L 1100,555.317 L 1087.5,555.487 L 1079.5,555.711 L 1057.53,556.884 L 1049.52,557.515 L 1027.16,559.855 L 1019.16,560.898 L 997.618,564.24 L 990.414,565.536 L 968.368,570.056 L 960.367,571.897 L 937.664,577.707 L 930.462,579.735 L 929.893,579.895 L 918.21,601.985 L 914.219,609.987 L 904.25,631.231 L 901.083,638.433 L 892.822,658.511 L 889.755,666.514 L 883.009,685.46 L 880.64,692.662 L 875.123,710.898 L 872.913,718.899 L 868.525,736.422 L 866.906,743.625 L 863.523,760.566 L 862.126,768.568 L 859.531,786.03 L 858.55,794.031 L 856.895,811.104 L 856.496,816.693 L 857.014,819.206 L 857.107,819.665 L 859.643,831.196 L 860.649,835.423 L 862.296,842.708 L 864.723,854.032 L 865.588,857.947 L 867.221,865.124 L 867.389,865.868 L 870.662,880.412 L 871.015,882.001 L 872.214,887.464 L 872.392,888.27 L 874.9,899.556 L 875.403,901.778 L 876.149,905.02 L 877.162,909.584 L 879.596,920.957 L 880.452,924.832 L 882.073,931.96 L 882.239,932.693 L 885.761,948.348 L 885.945,949.172 L 887.371,955.589 L 887.544,956.37 L 890.099,968.002 L 891.038,972.155 L 891.407,973.739 L 892.709,979.559 L 895.056,990.489 L 896.451,996.721 L 897.372,1000.68 L 898.405,1005.24 L 902.602,1024.33 L 902.636,1024.48 L 904.383,1032.44 L 905.02,1035.3 L 909.286,1054.13 L 911.344,1063.64 L 911.364,1063.74 L 913.897,1075.35 L 917.456,1090.83 L 919.746,1101.21 L 922.075,1112.23 L 925.235,1126.41 L 926.728,1132.8 L 929.033,1142.98 L 936.241,1175.87 L 937.833,1183 L 939.65,1190.99 L 940.697,1195.65 L 953.273,1252.23 L 955.452,1262.22 L 956.497,1267.1 L 959.715,1281.73 L 973.527,1343.03 L 977.017,1358.82 L 985.15,1396.35 L 990.283,1419.49 L 997.205,1449.99 L 959.136,1450.02 L 952.575,1450 L 934.47,1449.92 L 922.567,1449.92 L 909.377,1450 L 902.176,1450.02 L 862.406,1449.98 L 856.342,1449.96 L 855.598,1449.95 L 845.249,1449.94 L 804.904,1450.08 L 793.227,1450.05 L 785.216,1449.98 L 774.463,1449.94 L 729.87,1450.07 L 718.777,1450.02 L 718.556,1450.02 L 709.091,1449.98 L 671.013,1450.02 L 664.606,1450 L 655.198,1449.93 L 644.8,1449.93 L 632.44,1450 L 626.834,1450.01 L 596.745,1449.98 L 591.107,1449.96 L 588.726,1449.94 L 578.235,1449.93 L 558.042,1450.02 L 551.525,1450.03 L 522.425,1449.95 L 512.486,1449.97 L 501.269,1450.07 L 489.555,1450.09 L 454.75,1449.93 L 444.404,1449.94 L 435.036,1450 L 428.055,1450.02 L 387.885,1449.98 L 381.529,1449.96 L 377.425,1449.93 L 365.528,1449.92 L 318.571,1450.1 L 305.04,1450.08 L 287.239,1449.96 L 275.33,1449.94 L 203.714,1450.09 L 188.552,1450.05 L 179.551,1449.98 L 165.209,1449.94 L 54.7998,1450.08 L 40.7879,1450.05 L 37.1833,1450.03 L 25.6012,1450 L -2.27374e-13,1450 L -2.27374e-13,0 L 1499.92,0 z " style="fill-opacity:0.200000;fill:rgb(79,209,208);"/></g>
<g fill-rule="evenodd"><path d="M 856.496,816.693 L 856.895,811.104 L 858.55,794.031 L 859.531,786.03 L 862.126,768.568 L 863.523,760.566 L 866.906,743.625 L 868.525,736.422 L 872.913,718.899 L 875.123,710.898 L 880.64,692.662 L 883.009,685.46 L 889.755,666.514 L 892.822,658.511 L 901.083,638.433 L 904.25,631.231 L 914.219,609.987 L 918.21,601.985 L 929.893,579.895 L 930.462,579.735 L 937.664,577.707 L 960.367,571.897 L 968.368,570.056 L 990.414,565.536 L 997.618,564.24 L 1019.16,560.898 L 1027.16,559.855 L 1049.52,557.515 L 1057.53,556.884 L 1079.5,555.711 L 1087.5,555.487 L 1100,555.317 L 1109.48,555.326 L 1116.54,555.275 L 1117.5,555.26 L 1122.55,555.212 L 1139.75,555.148 L 1147.86,555.044 L 1157.39,554.835 L 1163.95,554.738 L 1169.82,554.693 L 1177.27,554.577 L 1200.6,554.028 L 1202.86,553.97 L 1209.17,553.792 L 1209.71,553.778 L 1236.23,553.062 L 1245.23,552.747 L 1254.14,552.363 L 1261.52,552.092 L 1274.14,551.706 L 1282.73,551.385 L 1313.42,550.034 L 1316.19,550.05 L 1326.14,550.038 L 1333.5,549.979 L 1342.68,549.96 L 1366.9,550.052 L 1377.73,550.027 L 1383.98,549.974 L 1395.08,549.947 L 1425.07,550.048 L 1435.8,550.032 L 1457.86,549.891 L 1474.28,549.895 L 1495.76,550.04 L 1500.04,550.063 L 1500.06,550.09 L 1500.06,556.815 L 1500.06,558.935 L 1499.97,603.935 L 1499.99,612.337 L 1500.07,623.869 L 1500.08,635.744 L 1499.96,653.672 L 1499.95,662.553 L 1500.06,686.887 L 1500.04,697.198 L 1500,701.657 L 1499.97,710.172 L 1500.04,739.387 L 1500.02,746.328 L 1500,748.484 L 1499.98,754.581 L 1500.02,786.966 L 1500.02,787.832 L 1500.04,794.246 L 1500.04,797.533 L 1499.97,825.586 L 1500,833.595 L 1500.03,837.039 L 1500.06,846.641 L 1499.97,864.731 L 1499.97,871.942 L 1500.06,885.961 L 1500.05,895.613 L 1499.98,903.309 L 1499.96,911.391 L 1500.05,936.086 L 1500.02,945.43 L 1500.02,945.939 L 1499.98,953.665 L 1500.02,988.891 L 1500.02,989.85 L 1500.02,998.355 L 1500.02,999.096 L 1499.98,1035.39 L 1500.01,1043.37 L 1500.02,1044.56 L 1500.05,1054.38 L 1499.95,1084.45 L 1499.97,1093.79 L 1500.06,1106.01 L 1500.07,1117.48 L 1499.96,1140.58 L 1499.96,1149.53 L 1500.08,1181.67 L 1500.05,1194.25 L 1499.99,1203.92 L 1499.96,1214.65 L 1500.05,1270.78 L 1500.03,1280.87 L 1500.02,1283.69 L 1500,1291.48 L 1500,1374.46 L 1500.02,1384.25 L 1500.04,1387.81 L 1500.07,1400.37 L 1499.95,1496.97 L 1499.96,1510.8 L 1500.12,1549.69 L 1500.13,1569.22 L 1499.92,1653.71 L 1497.13,1654.44 L 1495.08,1653.6 L 1483.98,1649.07 L 1432.8,1628.33 L 1418.15,1622.33 L 1386,1609.03 L 1376.93,1605.3 L 1295.74,1572.17 L 1294.07,1571.5 L 1286.46,1568.4 L 1281.1,1566.21 L 1213.28,1538.34 L 1204.62,1534.82 L 1202.03,1533.77 L 1195.14,1530.97 L 1147.27,1511.38 L 1141.51,1509 L 1140.94,1508.77 L 1132.74,1505.4 L 1080.5,1484.14 L 1075.07,1481.91 L 1069.49,1479.61 L 1067.21,1478.67 L 1013.9,1456.8 L 1010.84,1455.55 L 1006.27,1453.69 L 1004.74,1453.06 L 997.205,1449.99 L 990.283,1419.49 L 985.15,1396.35 L 977.017,1358.82 L 973.527,1343.03 L 959.715,1281.73 L 956.497,1267.1 L 955.452,1262.22 L 953.273,1252.23 L 940.697,1195.65 L 939.65,1190.99 L 937.833,1183 L 936.241,1175.87 L 929.033,1142.98 L 926.728,1132.8 L 925.235,1126.41 L 922.075,1112.23 L 919.746,1101.21 L 917.456,1090.83 L 913.897,1075.35 L 911.364,1063.74 L 911.344,1063.64 L 909.286,1054.13 L 905.02,1035.3 L 904.383,1032.44 L 902.636,1024.48 L 902.602,1024.33 L 898.405,1005.24 L 897.372,1000.68 L 896.451,996.721 L 895.056,990.489 L 892.709,979.559 L 891.407,973.739 L 891.038,972.155 L 890.099,968.002 L 887.544,956.37 L 887.371,955.589 L 885.945,949.172 L 885.761,948.348 L 882.239,932.693 L 882.073,931.96 L 880.452,924.832 L 879.596,920.957 L 877.162,909.584 L 876.149,905.02 L 875.403,901.778 L 874.9,899.556 L 872.392,888.27 L 872.214,887.464 L 871.015,882.001 L 870.662,880.412 L 867.389,865.868 L 867.221,865.124 L 865.588,857.947 L 864.723,854.032 L 862.296,842.708 L 860.649,835.423 L 859.643,831.196 L 857.107,819.665 L 857.014,819.206 L 856.496,816.693 z " style="fill-opacity:0.200000;fill:rgb(26,178,37);"/></g>
<g fill-rule="evenodd"><path d="M 2761.01,0 L 2736.45,28.5468 L 2727.36,39.1767 L 2699.62,71.7658 L 2694.49,77.7679 L 2650,129.694 L 2649.05,130.804 L 2641.05,140.131 L 2576.73,211.454 L 2568.73,219.873 L 2514.25,274.558 L 2507.05,281.439 L 2458.14,325.989 L 2450.14,332.926 L 2405.87,369.509 L 2398.66,375.166 L 2358.14,405.478 L 2350.14,411.163 L 2310.89,437.598 L 2302.89,442.692 L 2268.38,463.519 L 2261.18,467.628 L 2228.86,485.06 L 2220.85,489.127 L 2189.07,504.29 L 2181.06,507.859 L 2152.36,519.845 L 2145.16,522.647 L 2117.81,532.542 L 2109.81,535.218 L 2082.27,543.664 L 2074.26,545.894 L 2058.49,550.04 L 2053.48,550.063 L 2047.97,550.061 L 2041.9,550.03 L 2039.96,550.024 L 2015.35,549.984 L 2007.68,550.028 L 2006.67,550.042 L 1995.69,550.068 L 1983.72,549.966 L 1975.44,549.967 L 1963.95,550.067 L 1953.36,550.038 L 1951.67,550.014 L 1943.56,549.971 L 1923.53,550.043 L 1920.82,550.044 L 1913.11,550.025 L 1912.81,550.024 L 1891.42,549.985 L 1884.21,550.031 L 1882.72,550.053 L 1871.49,550.073 L 1862.57,549.977 L 1854.49,549.963 L 1839.08,550.072 L 1832.25,550.071 L 1827.6,550.036 L 1824.86,550.023 L 1801.35,549.983 L 1792.87,550.04 L 1792.78,550.041 L 1780.83,550.082 L 1767.43,549.974 L 1759.52,549.967 L 1741.29,550.082 L 1731.41,550.062 L 1728.48,550.033 L 1722.21,550.001 L 1688.35,550.001 L 1681.03,550.038 L 1678.44,550.065 L 1667.06,550.093 L 1638.53,549.947 L 1627.81,549.959 L 1606.53,550.113 L 1590.64,550.099 L 1581.5,550.018 L 1570.95,549.977 L 1512.46,550.038 L 1506.88,550.055 L 1500.06,550.09 L 1500.04,550.063 L 1500.04,549.44 L 1499.95,503.577 L 1499.95,499.432 L 1499.97,491.36 L 1499.97,490.037 L 1500.02,446.338 L 1499.98,437.48 L 1499.96,435.2 L 1499.93,423.788 L 1500.03,400.135 L 1500.03,392.468 L 1499.94,376.486 L 1499.95,366.456 L 1500.02,358.053 L 1500.04,349.781 L 1499.97,331.542 L 1499.98,325.019 L 1500.04,315.533 L 1500.04,307.436 L 1499.99,299.714 L 1499.98,294.072 L 1500.03,274.412 L 1500,266.401 L 1499.93,259.671 L 1499.92,248.471 L 1500.02,235.264 L 1500.03,228.056 L 1499.94,202.47 L 1499.94,196.682 L 1499.97,191.169 L 1499.98,188.603 L 1500.01,156.282 L 1499.98,148.864 L 1499.93,143.228 L 1499.91,131.6 L 1500.03,114.805 L 1500.04,106.334 L 1499.92,79.0504 L 1499.95,67.4696 L 1499.96,66.7853 L 1500,58.6588 L 1500,17.7961 L 1499.96,9.40762 L 1499.93,6.26233 L 1499.92,0 L 2761.01,0 z " style="fill-opacity:0.200000;fill:rgb(116,203,55);"/></g>
<g fill-rule="evenodd"><path d="M 2761.01,0 L 3100,0 L 3100,1450 L 3087.43,1450 L 3082.57,1450.01 L 3068.62,1450.04 L 3061.92,1450.05 L 3001.9,1449.98 L 2990.76,1450.01 L 2984.49,1450.06 L 2969.13,1450.08 L 2948.12,1449.96 L 2936.78,1449.96 L 2919.24,1450.07 L 2906.07,1450.04 L 2890.33,1449.89 L 2873.22,1449.93 L 2869.56,1449.98 L 2857.78,1450.04 L 2839.61,1449.97 L 2830.92,1450.01 L 2824.45,1450.09 L 2812.44,1450.09 L 2809.88,1450.06 L 2805.23,1450.02 L 2783.18,1449.97 L 2780.35,1449.97 L 2769.96,1450.03 L 2767.15,1450.03 L 2745.9,1449.97 L 2743.47,1449.98 L 2733.65,1450.03 L 2731.23,1450.03 L 2718.17,1449.99 L 2712.29,1450.03 L 2711.73,1450.04 L 2702,1450.05 L 2700.93,1450.03 L 2695.4,1449.99 L 2685.05,1450.02 L 2683.27,1450.03 L 2678.57,1450.08 L 2671.96,1450.06 L 2669.09,1450.01 L 2663.46,1449.99 L 2654.57,1450.04 L 2654.24,1450.05 L 2647.84,1450.08 L 2643.37,1450.06 L 2638.51,1450 L 2632.9,1449.99 L 2625.98,1450.06 L 2619.72,1450.04 L 2614.64,1449.96 L 2608.36,1449.94 L 2596.89,1450.05 L 2593.72,1450.06 L 2587.04,1450.05 L 2586.05,1450.04 L 2576.33,1449.98 L 2570.32,1450.01 L 2566.39,1450.07 L 2559.59,1450.09 L 2554.1,1450.05 L 2553.42,1450.05 L 2540.92,1449.98 L 2533.54,1450.02 L 2530.09,1450.07 L 2518.52,1450.07 L 2516.83,1450.05 L 2510.84,1450 L 2494.78,1450 L 2487.87,1450.05 L 2487.58,1450.06 L 2474.27,1450.07 L 2460.96,1449.91 L 2445.22,1449.93 L 2435.86,1450.07 L 2419.14,1450.11 L 2410.22,1450.02 L 2401.43,1449.98 L 2369.39,1450.03 L 2361.33,1450.08 L 2358.1,1450.11 L 2341.29,1450.14 L 2317.14,1449.99 L 2306.17,1449.96 L 2250.83,1450.1 L 2250.58,1450.1 L 2236.26,1450.13 L 2226.85,1450.13 L 2158.89,1449.94 L 2143.82,1449.95 L 2061.4,1450.22 L 2059.8,1451.73 L 2054.97,1456.3 L 2050.52,1460.49 L 1984.58,1522.23 L 1979.28,1527.22 L 1974.42,1531.81 L 1969.11,1536.81 L 1886.2,1614.46 L 1879.4,1620.86 L 1874.73,1625.28 L 1867.89,1631.71 L 1797.54,1697.61 L 1780.92,1696.11 L 1776.93,1695.74 L 1774.6,1695.53 L 1765.82,1694.74 L 1697.65,1688.81 L 1693.62,1688.45 L 1673.89,1686.69 L 1664.16,1685.85 L 1650,1684.67 L 1607.21,1675.82 L 1603.26,1675 L 1567.65,1667.54 L 1558.08,1665.57 L 1517.66,1657.36 L 1513.22,1656.45 L 1499.92,1653.71 L 1500.13,1569.22 L 1500.12,1549.69 L 1499.96,1510.8 L 1499.95,1496.97 L 1500.07,1400.37 L 1500.04,1387.81 L 1500.02,1384.25 L 1500,1374.46 L 1500,1291.48 L 1500.02,1283.69 L 1500.03,1280.87 L 1500.05,1270.78 L 1499.96,1214.65 L 1499.99,1203.92 L 1500.05,1194.25 L 1500.08,1181.67 L 1499.96,1149.53 L 1499.96,1140.58 L 1500.07,1117.48 L 1500.06,1106.01 L 1499.97,1093.79 L 1499.95,1084.45 L 1500.05,1054.38 L 1500.02,1044.56 L 1500.01,1043.37 L 1499.98,1035.39 L 1500.02,999.096 L 1500.02,998.355 L 1500.02,989.85 L 1500.02,988.891 L 1499.98,953.665 L 1500.02,945.939 L 1500.02,945.43 L 1500.05,936.086 L 1499.96,911.391 L 1499.98,903.309 L 1500.05,895.613 L 1500.06,885.961 L 1499.97,871.942 L 1499.97,864.731 L 1500.06,846.641 L 1500.03,837.039 L 1500,833.595 L 1499.97,825.586 L 1500.04,797.533 L 1500.04,794.246 L 1500.02,787.832 L 1500.02,786.966 L 1499.98,754.581 L 1500,748.484 L 1500.02,746.328 L 1500.04,739.387 L 1499.97,710.172 L 1500,701.657 L 1500.04,697.198 L 1500.06,686.887 L 1499.95,662.553 L 1499.96,653.672 L 1500.08,635.744 L 1500.07,623.869 L 1499.99,612.337 L 1499.97,603.935 L 1500.06,558.935 L 1500.06,556.815 L 1500.06,550.09 L 1506.88,550.055 L 1512.46,550.038 L 1570.95,549.977 L 1581.5,550.018 L 1590.64,550.099 L 1606.53,550.113 L 1627.81,549.959 L 1638.53,549.947 L 1667.06,550.093 L 1678.44,550.065 L 1681.03,550.038 L 1688.35,550.001 L 1722.21,550.001 L 1728.48,550.033 L 1731.41,550.062 L 1741.29,550.082 L 1759.52,549.967 L 1767.43,549.974 L 1780.83,550.082 L 1792.78,550.041 L 1792.87,550.04 L 1801.35,549.983 L 1824.86,550.023 L 1827.6,550.036 L 1832.25,550.071 L 1839.08,550.072 L 1854.49,549.963 L 1862.57,549.977 L 1871.49,550.073 L 1882.72,550.053 L 1884.21,550.031 L 1891.42,549.985 L 1912.81,550.024 L 1913.11,550.025 L 1920.82,550.044 L 1923.53,550.043 L 1943.56,549.971 L 1951.67,550.014 L 1953.36,550.038 L 1963.95,550.067 L 1975.44,549.967 L 1983.72,549.966 L 1995.69,550.068 L 2006.67,550.042 L 2007.68,550.028 L 2015.35,549.984 L 2039.96,550.024 L 2041.9,550.03 L 2047.97,550.061 L 2053.48,550.063 L 2058.49,550.04 L 2074.26,545.894 L 2082.27,543.664 L 2109.81,535.218 L 2117.81,532.542 L 2145.16,522.647 L 2152.36,519.845 L 2181.06,507.859 L 2189.07,504.29 L 2220.85,489.127 L 2228.86,485.06 L 2261.18,467.628 L 2268.38,463.519 L 2302.89,442.692 L 2310.89,437.598 L 2350.14,411.163 L 2358.14,405.478 L 2398.66,375.166 L 2405.87,369.509 L 2450.14,332.926 L 2458.14,325.989 L 2507.05,281.439 L 2514.25,274.558 L 2568.73,219.873 L 2576.73,211.454 L 2641.05,140.131 L 2649.05,130.804 L 2650,129.694 L 2694.49,77.7679 L 2699.62,71.7658 L 2727.36,39.1767 L 2736.45,28.5468 L 2761.01,0 z " style="fill-opacity:0.200000;fill:rgb(138,174,245);"/></g>
<g fill-rule="evenodd"><path d="M 1650.03,3100 L 1649.85,2963.23 L 1649.93,2939.47 L 1650.02,2929.12 L 1650.09,2908.24 L 1649.93,2813.6 L 1649.96,2804.73 L 1650.01,2798.49 L 1650.03,2790.71 L 1649.97,2744.26 L 1649.97,2742.28 L 1650,2733.5 L 1650,2732.25 L 1650,2702.84 L 1650,2701.99 L 1649.98,2693.99 L 1649.98,2692.56 L 1650.02,2672.82 L 1650.02,2671.76 L 1650,2664.66 L 1650,2664.11 L 1650,2650.12 L 1650.01,2648.31 L 1650.05,2644.15 L 1650.05,2640.53 L 1649.97,2633.45 L 1650.01,2627.84 L 1650.02,2627.61 L 1650.03,2620.83 L 1649.98,2618.24 L 1649.98,2612.45 L 1650.03,2610.07 L 1650.02,2603.73 L 1650.01,2603.58 L 1649.97,2598.49 L 1650.04,2593.09 L 1650.05,2591.41 L 1650,2510.75 L 1650,2510.27 L 1650.01,2505.69 L 1650,2503.72 L 1649.95,2499.26 L 1649.95,2496.09 L 1650.03,2489.36 L 1650.02,2485.02 L 1649.98,2483.18 L 1649.96,2478.8 L 1650.04,2472.25 L 1650.02,2467.43 L 1649.98,2465.29 L 1649.95,2460.4 L 1650.05,2451.86 L 1650.02,2446.11 L 1649.98,2444.27 L 1649.95,2438.4 L 1650.05,2426.87 L 1650.02,2420.19 L 1649.99,2418.29 L 1649.95,2412 L 1650.06,2393.69 L 1650.02,2385.86 L 1649.98,2383.5 L 1649.94,2375.47 L 1650.07,2343.97 L 1650.02,2332.99 L 1650,2331.04 L 1649.94,2320.58 L 1650.08,2254.89 L 1650.04,2241.63 L 1650,2236.57 L 1649.96,2224.15 L 1650.07,2029.47 L 1650.06,2014.97 L 1650.01,1996.69 L 1650,1984.06 L 1650,1684.67 L 1664.16,1685.85 L 1673.89,1686.69 L 1693.62,1688.45 L 1697.65,1688.81 L 1765.82,1694.74 L 1774.6,1695.53 L 1776.93,1695.74 L 1780.92,1696.11 L 1797.54,1697.61 L 1867.89,1631.71 L 1874.73,1625.28 L 1879.4,1620.86 L 1886.2,1614.46 L 1969.11,1536.81 L 1974.42,1531.81 L 1979.28,1527.22 L 1984.58,1522.23 L 2050.52,1460.49 L 2054.97,1456.3 L 2059.8,1451.73 L 2061.4,1450.22 L 2143.82,1449.95 L 2158.89,1449.94 L 2226.85,1450.13 L 2236.26,1450.13 L 2250.58,1450.1 L 2250.83,1450.1 L 2306.17,1449.96 L 2317.14,1449.99 L 2341.29,1450.14 L 2358.1,1450.11 L 2361.33,1450.08 L 2369.39,1450.03 L 2401.43,1449.98 L 2410.22,1450.02 L 2419.14,1450.11 L 2435.86,1450.07 L 2445.22,1449.93 L 2460.96,1449.91 L 2474.27,1450.07 L 2487.58,1450.06 L 2487.87,1450.05 L 2494.78,1450 L 2510.84,1450 L 2516.83,1450.05 L 2518.52,1450.07 L 2530.09,1450.07 L 2533.54,1450.02 L 2540.92,1449.98 L 2553.42,1450.05 L 2554.1,1450.05 L 2559.59,1450.09 L 2566.39,1450.07 L 2570.32,1450.01 L 2576.33,1449.98 L 2586.05,1450.04 L 2587.04,1450.05 L 2593.72,1450.06 L 2596.89,1450.05 L 2608.36,1449.94 L 2614.64,1449.96 L 2619.72,1450.04 L 2625.98,1450.06 L 2632.9,1449.99 L 2638.51,1450 L 2643.37,1450.06 L 2647.84,1450.08 L 2654.24,1450.05 L 2654.57,1450.04 L 2663.46,1449.99 L 2669.09,1450.01 L 2671.96,1450.06 L 2678.57,1450.08 L 2683.27,1450.03 L 2685.05,1450.02 L 2695.4,1449.99 L 2700.93,1450.03 L 2702,1450.05 L 2711.73,1450.04 L 2712.29,1450.03 L 2718.17,1449.99 L 2731.23,1450.03 L 2733.65,1450.03 L 2743.47,1449.98 L 2745.9,1449.97 L 2767.15,1450.03 L 2769.96,1450.03 L 2780.35,1449.97 L 2783.18,1449.97 L 2805.23,1450.02 L 2809.88,1450.06 L 2812.44,1450.09 L 2824.45,1450.09 L 2830.92,1450.01 L 2839.61,1449.97 L 2857.78,1450.04 L 2869.56,1449.98 L 2873.22,1449.93 L 2890.33,1449.89 L 2906.07,1450.04 L 2919.24,1450.07 L 2936.78,1449.96 L 2948.12,1449.96 L 2969.13,1450.08 L 2984.49,1450.06 L 2990.76,1450.01 L 3001.9,1449.98 L 3061.92,1450.05 L 3068.62,1450.04 L 3082.57,1450.01 L 3087.43,1450 L 3100,1450 L 3100,3100 L 1650.03,3100 z " style="fill-opacity:0.200000;fill:rgb(177,8,8);"/></g>
<polyline points="571.262,1950.8 571.588,1942.81 572.882,1934.1 574.894,1926.36 578.002,1918.12 581.608,1910.98 585.922,1904.24 593.062,1895.61 601.354,1888.08 610.628,1881.81 615.578,1879.18 621.446,1876.62 632.144,1873.31 638.434,1872.11 644,1871.49 649.598,1871.26 655.998,1871.49 667.074,1873.13 677.806,1876.33 682.974,1878.5 688.674,1881.41 693.454,1884.34 698.644,1888.08 706.936,1895.61 710.66,1899.8 714.538,1904.89 720.284,1914.5 724.608,1924.83 726.406,1930.98 727.566,1936.46 728.41,1942.81 728.722,1948.4 728.638,1954 728.052,1960.38 727.116,1965.9 725.57,1972.11 723.524,1978.18 721.334,1983.34 718.782,1988.33 715.442,1993.79 712.162,1998.33 708.03,2003.22 704.098,2007.21 699.272,2011.42 694.118,2015.22 689.37,2018.19 689.37,2510.63 1510.63,2510.63 1510.83,2506.64 1511.44,2502.68 1512.57,2498.43 1514,2494.69 1515.8,2491.12 1518.2,2487.43 1520.71,2484.32 1523.83,2481.21 1526.96,2478.71 1530.66,2476.34 1534.24,2474.55 1538.37,2473.02 1542.24,2472.03 1546.2,2471.44 1550.6,2471.27 1554.59,2471.53 1560.48,2472.68 1566.12,2474.71 1571.39,2477.58 1576.46,2481.48 1580.58,2485.84 1584.19,2491.12 1586.9,2496.92 1588.56,2502.68 1589.37,2510.23 1589.32,2591.37 1588.71,2596.54 1587.3,2601.96 1585.32,2606.76 1582.72,2611.26 1579.01,2615.98 1574.32,2620.33 1569.34,2623.66 1563.53,2626.34 1557.36,2628.05 1551.4,2628.72 1545.01,2628.42 1538.75,2627.1 1533.15,2624.95 1527.61,2621.75 1522.66,2617.7 1518.43,2612.9 1515.04,2607.48 1512.57,2601.58 1511.15,2595.75 1510.63,2589.37 650,2589.37 644.468,2588.98 638.286,2587.59 632.408,2585.22 626.986,2581.95 623.892,2579.47 620.53,2576.11 617.598,2572.37 615.138,2568.3 613.188,2563.96 611.772,2559.42 610.916,2554.75 610.636,2550.79 610.628,2018.19 603.912,2013.84 597.67,2008.84 591.968,2003.22 586.392,1996.41 582.01,1989.72 578.33,1982.61 575.39,1975.17 573.046,1966.69 571.75,1958.79 571.262,1950.8" style="stroke:rgb(33,1,197);stroke-width:0.000000;fill:none;stroke-opacity:0.5;stroke-linecap:round;stroke-linejoin:round;;fill:none"/>
<polyline points="571.262,1950.8 571.588,1942.81 572.882,1934.1 574.894,1926.36 578.002,1918.12 581.608,1910.98 585.922,1904.24 593.062,1895.61 601.354,1888.08 610.628,1881.81 615.578,1879.18 621.446,1876.62 632.144,1873.31 638.434,1872.11 644,1871.49 649.598,1871.26 655.998,1871.49 667.074,1873.13 677.806,1876.33 682.974,1878.5 688.674,1881.41 693.454,1884.34 698.644,1888.08 706.936,1895.61 710.66,1899.8 714.538,1904.89 720.284,1914.5 724.608,1924.83 726.406,1930.98 727.566,1936.46 728.41,1942.81 728.722,1948.4 728.638,1954 728.052,1960.38 727.116,1965.9 725.57,1972.11 723.524,1978.18 721.334,1983.34 718.782,1988.33 715.442,1993.79 712.162,1998.33 708.03,2003.22 704.098,2007.21 699.272,2011.42 694.118,2015.22 689.37,2018.19 689.37,2510.63 1510.63,2510.63 1510.83,2506.64 1511.44,2502.68 1512.57,2498.43 1514,2494.69 1515.8,2491.12 1518.2,2487.43 1520.71,2484.32 1523.83,2481.21 1526.96,2478.71 1530.66,2476.34 1534.24,2474.55 1538.37,2473.02 1542.24,2472.03 1546.2,2471.44 1550.6,2471.27 1554.59,2471.53 1560.48,2472.68 1566.12,2474.71 1571.39,2477.58 1576.46,2481.48 1580.58,2485.84 1584.19,2491.12 1586.9,2496.92 1588.56,2502.68 1589.37,2510.23 1589.32,2591.37 1588.71,2596.54 1587.3,2601.96 1585.32,2606.76 1582.72,2611.26 1579.01,2615.98 1574.32,2620.33 1569.34,2623.66 1563.53,2626.34 1557.36,2628.05 1551.4,2628.72 1545.01,2628.42 1538.75,2627.1 1533.15,2624.95 1527.61,2621.75 1522.66,2617.7 1518.43,2612.9 1515.04,2607.48 1512.57,2601.58 1511.15,2595.75 1510.63,2589.37 650,2589.37 644.468,2588.98 638.286,2587.59 632.408,2585.22 626.986,2581.95 623.892,2579.47 620.53,2576.11 617.598,2572.37 615.138,2568.3 613.188,2563.96 611.772,2559.42 610.916,2554.75 610.636,2550.79 610.628,2018.19 603.912,2013.84 597.67,2008.84 591.968,2003.22 586.392,1996.41 582.01,1989.72 578.33,1982.61 575.39,1975.17 573.046,1966.69 571.75,1958.79 571.262,1950.8" style="stroke:rgb(0,0,0);stroke-width:1px;fill:none;stroke-opacity:1;stroke-linecap:round;stroke-linejoin:round;;fill:none"/>
<polyline points="571.262,949.2 571.844,959.584 573.592,969.024 576.764,978.928 580.83,987.626 585.922,995.764 591.968,1003.22 599.488,1010.41 607.214,1016.1 616.3,1021.17 625.21,1024.74 634.49,1027.2 644.8,1028.57 655.198,1028.57 664.722,1027.35 674.788,1024.74 683.698,1021.17 692.784,1016.1 700.51,1010.41 708.03,1003.22 714.076,995.764 719.548,986.92 723.524,978.182 726.406,969.024 728.154,959.584 728.638,954.002 728.702,947.6 727.566,936.46 726.406,930.978 724.608,924.832 720.284,914.504 714.538,904.892 707.486,896.194 699.272,888.582 694.118,884.782 689.37,881.81 689.37,339.372 1100,339.372 1105.98,338.914 1112.2,337.432 1118.1,334.962 1123.53,331.568 1128.88,326.758 1132.98,321.502 1140.06,317.788 1146.09,313.844 1151.73,309.366 1157.49,303.808 1164.08,295.764 1169.55,286.92 1173.81,277.432 1176.6,268.246 1177.83,261.962 1178.48,256.398 1178.59,245.2 1177.12,234.1 1174.08,223.322 1169.55,213.082 1163.61,203.59 1156.38,195.036 1148.01,187.594 1142.78,183.898 1137.97,181.024 1127.81,176.334 1117.07,173.134 1110.77,172.002 1105.2,171.432 1098.8,171.27 1093.2,171.554 1082.14,173.312 1076.74,174.776 1070.7,176.914 1060.63,181.81 1055.22,185.234 1050.73,188.582 1042.51,196.194 1035.46,204.892 1032.01,210.284 1029.36,215.22 1026.76,221.074 1024.89,226.356 1022.3,237.248 1021.52,243.604 1021.26,249.2 1021.41,254.802 1021.98,260.63 648.414,260.662 643.684,261.14 639.046,262.186 634.568,263.782 630.314,265.906 626.986,268.056 623.304,271.064 620.01,274.492 617.154,278.294 614.43,283.124 612.412,288.288 611.138,293.686 610.636,299.208 610.628,881.81 601.986,887.594 594.18,894.464 587.348,902.306 582.01,910.284 577.368,919.592 574.206,928.656 572.056,938.832 571.262,949.2" style="stroke:rgb(33,1,197);stroke-width:0.000000;fill:none;stroke-opacity:0.5;stroke-linecap:round;stroke-linejoin:round;;fill:none"/>
<polyline points="571.262,949.2 571.844,959.584 573.592,969.024 576.764,978.928 580.83,987.626 585.922,995.764 591.968,1003.22 599.488,1010.41 607.214,1016.1 616.3,1021.17 625.21,1024.74 634.49,1027.2 644.8,1028.57 655.198,1028.57 664.722,1027.35 674.788,1024.74 683.698,1021.17 692.784,1016.1 700.51,1010.41 708.03,1003.22 714.076,995.764 719.548,986.92 723.524,978.182 726.406,969.024 728.154,959.584 728.638,954.002 728.702,947.6 727.566,936.46 726.406,930.978 724.608,924.832 720.284,914.504 714.538,904.892 707.486,896.194 699.272,888.582 694.118,884.782 689.37,881.81 689.37,339.372 1100,339.372 1105.98,338.914 1112.2,337.432 1118.1,334.962 1123.53,331.568 1128.88,326.758 1132.98,321.502 1140.06,317.788 1146.09,313.844 1151.73,309.366 1157.49,303.808 1164.08,295.764 1169.55,286.92 1173.81,277.432 1176.6,268.246 1177.83,261.962 1178.48,256.398 1178.59,245.2 1177.12,234.1 1174.08,223.322 1169.55,213.082 1163.61,203.59 1156.38,195.036 1148.01,187.594 1142.78,183.898 1137.97,181.024 1127.81,176.334 1117.07,173.134 1110.77,172.002 1105.2,171.432 1098.8,171.27 1093.2,171.554 1082.14,173.312 1076.74,174.776 1070.7,176.914 1060.63,181.81 1055.22,185.234 1050.73,188.582 1042.51,196.194 1035.46,204.892 1032.01,210.284 1029.36,215.22 1026.76,221.074 1024.89,226.356 1022.3,237.248 1021.52,243.604 1021.26,249.2 1021.41,254.802 1021.98,260.63 648.414,260.662 643.684,261.14 639.046,262.186 634.568,263.782 630.314,265.906 626.986,268.056 623.304,271.064 620.01,274.492 617.154,278.294 614.43,283.124 612.412,288.288 611.138,293.686 610.636,299.208 610.628,881.81 601.986,887.594 594.18,894.464 587.348,902.306 582.01,910.284 577.368,919.592 574.206,928.656 572.056,938.832 571.262,949.2" style="stroke:rgb(0,0,0);stroke-width:1px;fill:none;stroke-opacity:1;stroke-linecap:round;stroke-linejoin:round;;fill:none"/>
<polyline points="1021.26,850 1021.59,842.806 1022.72,834.884 1024.66,827.12 1027.37,819.592 1030.45,813.082 1034.56,806.214 1038.83,800.418 1044.18,794.464 1049.49,789.596 1055.88,784.782 1062.02,781.024 1069.22,777.526 1075.97,775.016 1083.71,772.964 1091.61,771.71 1099.6,771.262 1107.59,771.628 1115.51,772.804 1122.5,774.544 1130.04,777.216 1137.27,780.642 1143.45,784.338 1149.89,789.086 1155.82,794.464 1160.66,799.798 1165.44,806.214 1169.17,812.376 1172.63,819.592 1175.34,827.12 1177.27,834.884 1178.33,842.01 1178.74,850 1178.41,857.196 1177.27,865.118 1175.34,872.882 1172.63,880.41 1169.55,886.92 1165.44,893.788 1161.17,899.584 1155.82,905.538 1150.51,910.406 1144.12,915.22 1137.97,918.978 1130.78,922.476 1124.03,924.986 1116.29,927.038 1108.39,928.292 1100.4,928.74 1092.41,928.374 1084.49,927.198 1077.5,925.458 1069.96,922.786 1062.73,919.36 1056.54,915.664 1050.1,910.916 1044.18,905.538 1039.34,900.204 1034.56,893.788 1030.83,887.626 1027.37,880.41 1024.66,872.882 1022.72,865.118 1021.67,857.992 1021.26,850" style="stroke:rgb(33,1,197);stroke-width:0.000000;fill:none;stroke-opacity:0.5;stroke-linecap:round;stroke-linejoin:round;;fill:none"/>
<polyline points="1021.26,850 1021.59,842.806 1022.72,834.884 1024.66,827.12 1027.37,819.592 1030.45,813.082 1034.56,806.214 1038.83,800.418 1044.18,794.464 1049.49,789.596 1055.88,784.782 1062.02,781.024 1069.22,777.526 1075.97,775.016 1083.71,772.964 1091.61,771.71 1099.6,771.262 1107.59,771.628 1115.51,772.804 1122.5,774.544 1130.04,777.216 1137.27,780.642 1143.45,784.338 1149.89,789.086 1155.82,794.464 1160.66,799.798 1165.44,806.214 1169.17,812.376 1172.63,819.592 1175.34,827.12 1177.27,834.884 1178.33,842.01 1178.74,850 1178.41,857.196 1177.27,865.118 1175.34,872.882 1172.63,880.41 1169.55,886.92 1165.44,893.788 1161.17,899.584 1155.82,905.538 1150.51,910.406 1144.12,915.22 1137.97,918.978 1130.78,922.476 1124.03,924.986 1116.29,927.038 1108.39,928.292 1100.4,928.74 1092.41,928.374 1084.49,927.198 1077.5,925.458 1069.96,922.786 1062.73,919.36 1056.54,915.664 1050.1,910.916 1044.18,905.538 1039.34,900.204 1034.56,893.788 1030.83,887.626 1027.37,880.41 1024.66,872.882 1022.72,865.118 1021.67,857.992 1021.26,850" style="stroke:rgb(0,0,0);stroke-width:1px;fill:none;stroke-opacity:1;stroke-linecap:round;stroke-linejoin:round;;fill:none"/>
<polyline points="1060.63,849.6 1060.87,845.608 1061.52,841.658 1062.57,837.796 1064,834.06 1065.8,830.49 1067.96,827.12 1072.66,821.672 1075.68,819.042 1078.94,816.734 1082.43,814.768 1086.1,813.168 1089.91,811.946 1093.82,811.118 1101,810.644 1104.99,810.948 1108.93,811.656 1115.76,813.922 1119.34,815.708 1122.72,817.846 1128.19,822.518 1130.83,825.522 1133.16,828.778 1135.14,832.252 1136.76,835.91 1138.71,842.836 1139.24,846.802 1139.36,850.802 1138.56,857.952 1137.55,861.824 1136.16,865.574 1134.39,869.164 1132.27,872.556 1129.81,875.714 1127.05,878.608 1124.01,881.204 1120.71,883.48 1114.28,886.692 1110.48,887.95 1106.57,888.818 1099.4,889.366 1095.41,889.102 1091.46,888.434 1084.61,886.238 1081.01,884.49 1077.61,882.384 1072.09,877.77 1069.42,874.792 1067.06,871.56 1065.04,868.106 1063.38,864.464 1062.1,860.674 1061.22,856.772 1060.63,849.6" style="stroke:rgb(33,1,197);stroke-width:0.000000;fill:none;stroke-opacity:0.5;stroke-linecap:round;stroke-linejoin:round;;fill:none"/>
<polyline points="1060.63,849.6 1060.87,845.608 1061.52,841.658 1062.57,837.796 1064,834.06 1065.8,830.49 1067.96,827.12 1072.66,821.672 1075.68,819.042 1078.94,816.734 1082.43,814.768 1086.1,813.168 1089.91,811.946 1093.82,811.118 1101,810.644 1104.99,810.948 1108.93,811.656 1115.76,813.922 1119.34,815.708 1122.72,817.846 1128.19,822.518 1130.83,825.522 1133.16,828.778 1135.14,832.252 1136.76,835.91 1138.71,842.836 1139.24,846.802 1139.36,850.802 1138.56,857.952 1137.55,861.824 1136.16,865.574 1134.39,869.164 1132.27,872.556 1129.81,875.714 1127.05,878.608 1124.01,881.204 1120.71,883.48 1114.28,886.692 1110.48,887.95 1106.57,888.818 1099.4,889.366 1095.41,889.102 1091.46,888.434 1084.61,886.238 1081.01,884.49 1077.61,882.384 1072.09,877.77 1069.42,874.792 1067.06,871.56 1065.04,868.106 1063.38,864.464 1062.1,860.674 1061.22,856.772 1060.63,849.6" style="stroke:rgb(0,0,0);stroke-width:1px;fill:none;stroke-opacity:1;stroke-linecap:round;stroke-linejoin:round;;fill:none"/>
<polyline points="1060.65,251.202 1060.79,246.404 1061.52,241.658 1062.82,237.038 1064.68,232.61 1067.06,228.442 1069.42,225.21 1072.09,222.232 1075.05,219.544 1078.27,217.17 1081.72,215.134 1085.35,213.458 1089.13,212.16 1096.2,210.814 1100.2,210.632 1104.19,210.856 1111.25,212.272 1115.02,213.608 1118.64,215.322 1124.64,219.292 1127.62,221.95 1130.33,224.9 1134.39,230.838 1137.3,237.416 1138.39,241.268 1139.08,245.21 1139.36,249.2 1139.24,253.2 1138.71,257.166 1137.78,261.058 1136.47,264.836 1134.77,268.46 1130.41,275.002 1125.1,269.67 1119.16,265.61 1113.34,262.96 1107.95,261.442 1100.8,260.64 1062.09,260.63 1061.09,255.982 1060.65,251.202" style="stroke:rgb(33,1,197);stroke-width:0.000000;fill:none;stroke-opacity:0.5;stroke-linecap:round;stroke-linejoin:round;;fill:none"/>
<polyline points="1060.65,251.202 1060.79,246.404 1061.52,241.658 1062.82,237.038 1064.68,232.61 1067.06,228.442 1069.42,225.21 1072.09,222.232 1075.05,219.544 1078.27,217.17 1081.72,215.134 1085.35,213.458 1089.13,212.16 1096.2,210.814 1100.2,210.632 1104.19,210.856 1111.25,212.272 1115.02,213.608 1118.64,215.322 1124.64,219.292 1127.62,221.95 1130.33,224.9 1134.39,230.838 1137.3,237.416 1138.39,241.268 1139.08,245.21 1139.36,249.2 1139.24,253.2 1138.71,257.166 1137.78,261.058 1136.47,264.836 1134.77,268.46 1130.41,275.002 1125.1,269.67 1119.16,265.61 1113.34,262.96 1107.95,261.442 1100.8,260.64 1062.09,260.63 1061.09,255.982 1060.65,251.202" style="stroke:rgb(0,0,0);stroke-width:1px;fill:none;stroke-opacity:1;stroke-linecap:round;stroke-linejoin:round;;fill:none"/>
<polyline points="1860.63,249.6 1860.87,245.608 1861.52,241.658 1862.57,237.796 1864,234.06 1865.8,230.49 1867.96,227.12 1872.66,221.672 1878.27,217.17 1881.72,215.134 1885.35,213.458 1889.13,212.16 1893.03,211.252 1897,210.746 1901,210.644 1904.99,210.948 1908.93,211.656 1912.77,212.76 1916.49,214.25 1920.03,216.108 1923.37,218.316 1928.74,223.098 1931.32,226.154 1933.58,229.456 1936.76,235.91 1938,239.714 1938.85,243.624 1939.36,250.802 1939.08,254.792 1938.39,258.734 1937.3,262.586 1935.83,266.306 1933.99,269.86 1931.8,273.206 1927.05,278.608 1921.39,283.052 1917.93,285.052 1914.28,286.692 1910.48,287.95 1906.57,288.818 1899.4,289.366 1895.41,289.102 1891.46,288.434 1884.61,286.238 1878.27,282.832 1875.05,280.458 1872.09,277.77 1869.42,274.792 1867.06,271.56 1865.04,268.106 1863.38,264.464 1861.36,257.56 1860.79,253.598 1860.63,249.6" style="stroke:rgb(33,1,197);stroke-width:0.000000;fill:none;stroke-opacity:0.5;stroke-linecap:round;stroke-linejoin:round;;fill:none"/>
<polyline points="1860.63,249.6 1860.87,245.608 1861.52,241.658 1862.57,237.796 1864,234.06 1865.8,230.49 1867.96,227.12 1872.66,221.672 1878.27,217.17 1881.72,215.134 1885.35,213.458 1889.13,212.16 1893.03,211.252 1897,210.746 1901,210.644 1904.99,210.948 1908.93,211.656 1912.77,212.76 1916.49,214.25 1920.03,216.108 1923.37,218.316 1928.74,223.098 1931.32,226.154 1933.58,229.456 1936.76,235.91 1938,239.714 1938.85,243.624 1939.36,250.802 1939.08,254.792 1938.39,258.734 1937.3,262.586 1935.83,266.306 1933.99,269.86 1931.8,273.206 1927.05,278.608 1921.39,283.052 1917.93,285.052 1914.28,286.692 1910.48,287.95 1906.57,288.818 1899.4,289.366 1895.41,289.102 1891.46,288.434 1884.61,286.238 1878.27,282.832 1875.05,280.458 1872.09,277.77 1869.42,274.792 1867.06,271.56 1865.04,268.106 1863.38,264.464 1861.36,257.56 1860.79,253.598 1860.63,249.6" style="stroke:rgb(0,0,0);stroke-width:1px;fill:none;stroke-opacity:1;stroke-linecap:round;stroke-linejoin:round;;fill:none"/>
<polyline points="1821.26,250 1821.67,257.992 1822.88,265.902 1824.89,273.646 1827.37,280.41 1830.83,287.626 1835.01,294.452 1839.85,300.818 1844.75,306.102 1850.73,311.42 1857.21,316.104 1864.14,320.104 1870.7,323.088 1878.27,325.684 1885.28,327.352 1893.2,328.448 1900.4,328.74 1908.39,328.292 1916.29,327.038 1924.03,324.986 1930.78,322.476 1937.27,319.36 1944.12,315.22 1950.51,310.406 1955.82,305.538 1961.17,299.584 1965.88,293.12 1969.55,286.92 1972.94,279.67 1975.57,272.114 1977.27,265.118 1978.41,257.196 1978.74,250 1978.33,242.01 1977.12,234.1 1975.1,226.356 1972.63,219.592 1969.17,212.376 1964.99,205.55 1960.15,199.184 1955.25,193.9 1949.27,188.582 1942.78,183.898 1935.85,179.898 1929.3,176.914 1921.73,174.318 1914.72,172.65 1906.8,171.554 1899.6,171.262 1891.61,171.71 1883.7,172.964 1876.74,174.776 1869.22,177.526 1862.73,180.642 1855.88,184.782 1849.49,189.596 1844.18,194.464 1838.83,200.418 1834.11,206.882 1830.45,213.082 1827.06,220.332 1824.43,227.888 1822.72,234.884 1821.59,242.806 1821.26,250 1821.32,853.202 1821.52,843.604 1822.88,834.1 1825.14,825.592 1828.66,816.664 1833.68,807.554 1840.37,798.574 1848.27,790.636 1857.21,783.898 1867.02,778.498 1877.5,774.544 1888.43,772.114 1899.6,771.262 1909.98,771.896 1920.19,773.892 1930.04,777.216 1939.37,781.81 1948.01,787.594 1955.82,794.464 1962.65,802.306 1968.19,810.63 2650,810.63 2654.74,810.918 2659.42,811.774 2663.96,813.19 2668.3,815.14 2672.36,817.6 2676.11,820.532 2679.47,823.894 2682.84,828.294 2685.22,832.41 2687.34,837.534 2688.57,842.126 2689.3,847.624 2689.37,1181.81 2695.44,1185.69 2701.73,1190.64 2706.94,1195.61 2712.16,1201.67 2716.32,1207.55 2720.28,1214.5 2723.23,1221.07 2725.79,1228.66 2727.42,1235.67 2728.41,1242.81 2728.74,1250 2728.33,1257.99 2727.27,1265.12 2725.34,1272.88 2722.94,1279.67 2719.55,1286.92 2716.75,1291.77 2713.13,1297.06 2705.82,1305.54 2701.12,1309.89 2696.73,1313.37 2687.27,1319.36 2677.06,1323.95 2671.73,1325.68 2665.51,1327.2 2659.18,1328.2 2653.6,1328.66 2647.2,1328.69 2641.61,1328.29 2630.59,1326.31 2624.45,1324.48 2619.22,1322.48 2614.14,1320.1 2608.57,1316.96 2603.26,1313.37 2598.88,1309.89 2590.9,1302.03 2587.35,1297.7 2583.68,1292.45 2580.83,1287.63 2578,1281.88 2575.92,1276.68 2573.99,1270.57 2572.57,1264.33 2571.67,1257.99 2571.28,1251.6 2571.41,1245.2 2572.06,1238.83 2573.22,1232.54 2574.89,1226.36 2577.06,1220.33 2579.71,1214.5 2582.83,1208.91 2586.39,1203.59 2590.37,1198.57 2594.75,1193.9 2599.49,1189.6 2605.22,1185.24 2610.63,1181.81 2610.63,889.372 1968.19,889.372 1964.99,894.452 1961.67,898.96 1954.1,907.214 1945.44,914.31 1935.85,920.104 1925.55,924.482 1914.72,927.352 1903.6,928.658 1892.41,928.374 1883.7,927.038 1874.45,924.482 1865.58,920.818 1857.21,916.104 1849.49,910.406 1843.06,904.39 1836.86,897.058 1831.61,889.024 1827.68,881.148 1824.43,872.114 1822.3,862.754 1821.32,853.202" style="stroke:rgb(33,1,197);stroke-width:0.000000;fill:none;stroke-opacity:0.5;stroke-linecap:round;stroke-linejoin:round;;fill:none"/>
<polyline points="1821.26,250 1821.67,257.992 1822.88,265.902 1824.89,273.646 1827.37,280.41 1830.83,287.626 1835.01,294.452 1839.85,300.818 1844.75,306.102 1850.73,311.42 1857.21,316.104 1864.14,320.104 1870.7,323.088 1878.27,325.684 1885.28,327.352 1893.2,328.448 1900.4,328.74 1908.39,328.292 1916.29,327.038 1924.03,324.986 1930.78,322.476 1937.27,319.36 1944.12,315.22 1950.51,310.406 1955.82,305.538 1961.17,299.584 1965.88,293.12 1969.55,286.92 1972.94,279.67 1975.57,272.114 1977.27,265.118 1978.41,257.196 1978.74,250 1978.33,242.01 1977.12,234.1 1975.1,226.356 1972.63,219.592 1969.17,212.376 1964.99,205.55 1960.15,199.184 1955.25,193.9 1949.27,188.582 1942.78,183.898 1935.85,179.898 1929.3,176.914 1921.73,174.318 1914.72,172.65 1906.8,171.554 1899.6,171.262 1891.61,171.71 1883.7,172.964 1876.74,174.776 1869.22,177.526 1862.73,180.642 1855.88,184.782 1849.49,189.596 1844.18,194.464 1838.83,200.418 1834.11,206.882 1830.45,213.082 1827.06,220.332 1824.43,227.888 1822.72,234.884 1821.59,242.806 1821.26,250 1821.32,853.202 1821.52,843.604 1822.88,834.1 1825.14,825.592 1828.66,816.664 1833.68,807.554 1840.37,798.574 1848.27,790.636 1857.21,783.898 1867.02,778.498 1877.5,774.544 1888.43,772.114 1899.6,771.262 1909.98,771.896 1920.19,773.892 1930.04,777.216 1939.37,781.81 1948.01,787.594 1955.82,794.464 1962.65,802.306 1968.19,810.63 2650,810.63 2654.74,810.918 2659.42,811.774 2663.96,813.19 2668.3,815.14 2672.36,817.6 2676.11,820.532 2679.47,823.894 2682.84,828.294 2685.22,832.41 2687.34,837.534 2688.57,842.126 2689.3,847.624 2689.37,1181.81 2695.44,1185.69 2701.73,1190.64 2706.94,1195.61 2712.16,1201.67 2716.32,1207.55 2720.28,1214.5 2723.23,1221.07 2725.79,1228.66 2727.42,1235.67 2728.41,1242.81 2728.74,1250 2728.33,1257.99 2727.27,1265.12 2725.34,1272.88 2722.94,1279.67 2719.55,1286.92 2716.75,1291.77 2713.13,1297.06 2705.82,1305.54 2701.12,1309.89 2696.73,1313.37 2687.27,1319.36 2677.06,1323.95 2671.73,1325.68 2665.51,1327.2 2659.18,1328.2 2653.6,1328.66 2647.2,1328.69 2641.61,1328.29 2630.59,1326.31 2624.45,1324.48 2619.22,1322.48 2614.14,1320.1 2608.57,1316.96 2603.26,1313.37 2598.88,1309.89 2590.9,1302.03 2587.35,1297.7 2583.68,1292.45 2580.83,1287.63 2578,1281.88 2575.92,1276.68 2573.99,1270.57 2572.57,1264.33 2571.67,1257.99 2571.28,1251.6 2571.41,1245.2 2572.06,1238.83 2573.22,1232.54 2574.89,1226.36 2577.06,1220.33 2579.71,1214.5 2582.83,1208.91 2586.39,1203.59 2590.37,1198.57 2594.75,1193.9 2599.49,1189.6 2605.22,1185.24 2610.63,1181.81 2610.63,889.372 1968.19,889.372 1964.99,894.452 1961.67,898.96 1954.1,907.214 1945.44,914.31 1935.85,920.104 1925.55,924.482 1914.72,927.352 1903.6,928.658 1892.41,928.374 1883.7,927.038 1874.45,924.482 1865.58,920.818 1857.21,916.104 1849.49,910.406 1843.06,904.39 1836.86,897.058 1831.61,889.024 1827.68,881.148 1824.43,872.114 1822.3,862.754 1821.32,853.202" style="stroke:rgb(0,0,0);stroke-width:1px;fill:none;stroke-opacity:1;stroke-linecap:round;stroke-linejoin:round;;fill:none"/>
<polyline points="1860.63,849.6 1860.79,853.598 1862.1,860.674 1863.38,864.464 1865.04,868.106 1867.06,871.56 1869.42,874.792 1872.09,877.77 1875.05,880.458 1881.01,884.49 1886.85,887.11 1893.03,888.75 1900.2,889.37 1906.57,888.818 1913.53,886.974 1919.34,884.294 1925,880.412 1921.95,877.626 1919.29,874.638 1916.95,871.394 1914.59,867.212 1913.03,863.53 1911.65,858.928 1910.95,854.99 1910.63,850.202 1910.81,846.204 1911.4,842.246 1912.39,838.37 1914.08,833.878 1915.9,830.316 1918.08,826.958 1921.12,823.244 1925,819.59 1918.64,815.322 1915.02,813.608 1911.25,812.272 1904.19,810.856 1900.2,810.632 1896.2,810.814 1889.13,812.16 1885.35,813.458 1881.72,815.134 1878.27,817.17 1875.05,819.544 1872.09,822.232 1869.42,825.21 1865.41,831.188 1863.68,834.796 1862.33,838.56 1860.87,845.608 1860.63,849.6" style="stroke:rgb(33,1,197);stroke-width:0.000000;fill:none;stroke-opacity:0.5;stroke-linecap:round;stroke-linejoin:round;;fill:none"/>
<polyline points="1860.63,849.6 1860.79,853.598 1862.1,860.674 1863.38,864.464 1865.04,868.106 1867.06,871.56 1869.42,874.792 1872.09,877.77 1875.05,880.458 1881.01,884.49 1886.85,887.11 1893.03,888.75 1900.2,889.37 1906.57,888.818 1913.53,886.974 1919.34,884.294 1925,880.412 1921.95,877.626 1919.29,874.638 1916.95,871.394 1914.59,867.212 1913.03,863.53 1911.65,858.928 1910.95,854.99 1910.63,850.202 1910.81,846.204 1911.4,842.246 1912.39,838.37 1914.08,833.878 1915.9,830.316 1918.08,826.958 1921.12,823.244 1925,819.59 1918.64,815.322 1915.02,813.608 1911.25,812.272 1904.19,810.856 1900.2,810.632 1896.2,810.814 1889.13,812.16 1885.35,813.458 1881.72,815.134 1878.27,817.17 1875.05,819.544 1872.09,822.232 1869.42,825.21 1865.41,831.188 1863.68,834.796 1862.33,838.56 1860.87,845.608 1860.63,849.6" style="stroke:rgb(0,0,0);stroke-width:1px;fill:none;stroke-opacity:1;stroke-linecap:round;stroke-linejoin:round;;fill:none"/>
<polyline points="1710.63,2510.63 1710.79,2592.97 1711.89,2599.27 1714,2605.31 1717.28,2611.26 1721.26,2616.28 1725.68,2620.33 1730.31,2623.47 1735.72,2626.06 1741.46,2627.8 1747.4,2628.66 1753.4,2628.59 1759.32,2627.62 1764.65,2625.91 1769.68,2623.47 1774.64,2620.08 1779.01,2615.98 1782.5,2611.6 1785.49,2606.4 1787.67,2600.81 1788.91,2595.35 1789.37,2589.37 2650.79,2589.36 2658.65,2588.41 2666.16,2585.9 2673.01,2581.95 2678.39,2577.27 2683.27,2571.04 2686.52,2564.7 2688.57,2557.88 2689.36,2550.79 2689.37,1718.19 2698.01,1712.41 2705.25,1706.1 2711.67,1698.96 2717.58,1690.41 2722.32,1681.15 2725.57,1672.11 2727.83,1661.96 2728.7,1652.4 2728.48,1643.6 2727.42,1635.67 2725.57,1627.89 2722.94,1620.33 2719.17,1612.38 2714.99,1605.55 2710.15,1599.18 2704.68,1593.34 2696.09,1586.16 2686.56,1580.27 2676.3,1575.78 2666.29,1572.96 2655.2,1571.43 2644,1571.49 2632.92,1573.13 2622.94,1576.06 2612.73,1580.64 2603.26,1586.63 2595.32,1593.34 2587.84,1601.67 2581.61,1610.98 2577.06,1620.33 2573.59,1630.98 2571.67,1642.01 2571.32,1653.2 2572.57,1664.33 2575.39,1675.17 2579.71,1685.5 2585.46,1695.11 2592.51,1703.81 2597.07,1708.3 2601.35,1711.92 2610.63,1718.19 2610.63,2510.63 1789.37,2510.63 1789.12,2506.24 1788.48,2502.29 1787.43,2498.43 1786,2494.69 1784.19,2491.12 1781.8,2487.43 1779.01,2484.02 1776.16,2481.21 1773.04,2478.71 1769.34,2476.34 1765.39,2474.39 1761.63,2473.02 1757.36,2471.96 1753.4,2471.41 1749.4,2471.27 1745.41,2471.53 1739.13,2472.79 1733.15,2475.05 1727.61,2478.25 1722.66,2482.3 1718.43,2487.1 1715.04,2492.53 1712.57,2498.43 1711.15,2504.25 1710.63,2510.63" style="stroke:rgb(33,1,197);stroke-width:0.000000;fill:none;stroke-opacity:0.5;stroke-linecap:round;stroke-linejoin:round;;fill:none"/>
<polyline points="1710.63,2510.63 1710.79,2592.97 1711.89,2599.27 1714,2605.31 1717.28,2611.26 1721.26,2616.28 1725.68,2620.33 1730.31,2623.47 1735.72,2626.06 1741.46,2627.8 1747.4,2628.66 1753.4,2628.59 1759.32,2627.62 1764.65,2625.91 1769.68,2623.47 1774.64,2620.08 1779.01,2615.98 1782.5,2611.6 1785.49,2606.4 1787.67,2600.81 1788.91,2595.35 1789.37,2589.37 2650.79,2589.36 2658.65,2588.41 2666.16,2585.9 2673.01,2581.95 2678.39,2577.27 2683.27,2571.04 2686.52,2564.7 2688.57,2557.88 2689.36,2550.79 2689.37,1718.19 2698.01,1712.41 2705.25,1706.1 2711.67,1698.96 2717.58,1690.41 2722.32,1681.15 2725.57,1672.11 2727.83,1661.96 2728.7,1652.4 2728.48,1643.6 2727.42,1635.67 2725.57,1627.89 2722.94,1620.33 2719.17,1612.38 2714.99,1605.55 2710.15,1599.18 2704.68,1593.34 2696.09,1586.16 2686.56,1580.27 2676.3,1575.78 2666.29,1572.96 2655.2,1571.43 2644,1571.49 2632.92,1573.13 2622.94,1576.06 2612.73,1580.64 2603.26,1586.63 2595.32,1593.34 2587.84,1601.67 2581.61,1610.98 2577.06,1620.33 2573.59,1630.98 2571.67,1642.01 2571.32,1653.2 2572.57,1664.33 2575.39,1675.17 2579.71,1685.5 2585.46,1695.11 2592.51,1703.81 2597.07,1708.3 2601.35,1711.92 2610.63,1718.19 2610.63,2510.63 1789.37,2510.63 1789.12,2506.24 1788.48,2502.29 1787.43,2498.43 1786,2494.69 1784.19,2491.12 1781.8,2487.43 1779.01,2484.02 1776.16,2481.21 1773.04,2478.71 1769.34,2476.34 1765.39,2474.39 1761.63,2473.02 1757.36,2471.96 1753.4,2471.41 1749.4,2471.27 1745.41,2471.53 1739.13,2472.79 1733.15,2475.05 1727.61,2478.25 1722.66,2482.3 1718.43,2487.1 1715.04,2492.53 1712.57,2498.43 1711.15,2504.25 1710.63,2510.63" style="stroke:rgb(0,0,0);stroke-width:1px;fill:none;stroke-opacity:1;stroke-linecap:round;stroke-linejoin:round;;fill:none"/>
<g fill-rule="evenodd"><path d="M 571.264,1950.8 L 571.589,1942.81 L 572.882,1934.1 L 574.894,1926.35 L 578.002,1918.12 L 581.61,1910.98 L 585.924,1904.24 L 593.063,1895.61 L 601.355,1888.08 L 610.63,1881.81 L 615.579,1879.18 L 621.446,1876.62 L 632.144,1873.31 L 638.434,1872.11 L 644.002,1871.49 L 649.6,1871.26 L 655.998,1871.49 L 667.075,1873.13 L 677.806,1876.33 L 682.974,1878.5 L 688.675,1881.41 L 693.454,1884.34 L 698.645,1888.08 L 706.937,1895.61 L 710.66,1899.8 L 714.538,1904.89 L 720.285,1914.5 L 724.61,1924.83 L 726.408,1930.98 L 727.567,1936.46 L 728.411,1942.81 L 728.724,1948.4 L 728.638,1954 L 728.053,1960.38 L 727.118,1965.9 L 725.571,1972.11 L 723.525,1978.18 L 721.335,1983.34 L 718.783,1988.33 L 715.442,1993.79 L 712.163,1998.33 L 708.031,2003.22 L 704.099,2007.21 L 699.272,2011.42 L 694.119,2015.22 L 689.37,2018.19 L 689.37,2510.63 L 1510.63,2510.63 L 1510.83,2506.63 L 1511.44,2502.68 L 1512.57,2498.43 L 1514,2494.69 L 1515.8,2491.12 L 1518.2,2487.42 L 1520.72,2484.32 L 1523.84,2481.21 L 1526.96,2478.71 L 1530.66,2476.34 L 1534.24,2474.55 L 1538.37,2473.02 L 1542.25,2472.03 L 1546.2,2471.44 L 1550.6,2471.26 L 1554.59,2471.53 L 1560.48,2472.68 L 1566.12,2474.71 L 1571.39,2477.58 L 1576.46,2481.48 L 1580.58,2485.84 L 1584.2,2491.12 L 1586.9,2496.91 L 1588.56,2502.68 L 1589.37,2510.23 L 1589.32,2591.37 L 1588.71,2596.53 L 1587.3,2601.95 L 1585.32,2606.76 L 1582.72,2611.26 L 1579.02,2615.98 L 1574.32,2620.33 L 1569.34,2623.66 L 1563.53,2626.34 L 1557.36,2628.05 L 1551.4,2628.72 L 1545.01,2628.42 L 1538.75,2627.1 L 1533.15,2624.95 L 1527.61,2621.75 L 1522.66,2617.7 L 1518.43,2612.9 L 1515.04,2607.48 L 1512.57,2601.57 L 1511.15,2595.75 L 1510.63,2589.37 L 650,2589.37 L 644.468,2588.98 L 638.287,2587.59 L 632.41,2585.22 L 626.987,2581.94 L 623.893,2579.47 L 620.531,2576.11 L 617.599,2572.36 L 615.14,2568.3 L 613.188,2563.96 L 611.774,2559.42 L 610.917,2554.75 L 610.638,2550.79 L 610.63,2018.19 L 603.912,2013.84 L 597.67,2008.84 L 591.969,2003.22 L 586.392,1996.41 L 582.01,1989.72 L 578.33,1982.61 L 575.39,1975.17 L 573.048,1966.68 L 571.752,1958.79 L 571.264,1950.8 z " style="fill-opacity:1.000000;fill:rgb(33,1,197);stroke:rgb(0,0,0);stroke-width:2"/></g>
<g fill-rule="evenodd"><path d="M 571.264,949.199 L 572.056,938.83 L 574.208,928.656 L 577.369,919.59 L 582.01,910.284 L 587.349,902.305 L 594.181,894.464 L 601.987,887.592 L 610.63,881.809 L 610.638,299.207 L 611.14,293.685 L 612.413,288.287 L 614.431,283.122 L 617.155,278.292 L 620.011,274.492 L 623.305,271.063 L 626.987,268.056 L 630.315,265.905 L 634.568,263.78 L 639.047,262.184 L 643.685,261.14 L 648.415,260.662 L 1021.98,260.63 L 1021.41,254.8 L 1021.26,249.199 L 1021.52,243.603 L 1022.3,237.248 L 1024.89,226.354 L 1026.77,221.073 L 1029.36,215.219 L 1032.01,210.284 L 1035.46,204.891 L 1042.51,196.192 L 1050.73,188.581 L 1055.22,185.233 L 1060.63,181.809 L 1070.7,176.914 L 1076.74,174.775 L 1082.14,173.311 L 1093.2,171.554 L 1098.8,171.269 L 1105.2,171.432 L 1110.77,172 L 1117.08,173.134 L 1127.81,176.333 L 1137.98,181.023 L 1142.78,183.898 L 1148.01,187.592 L 1156.38,195.034 L 1163.61,203.588 L 1169.55,213.081 L 1174.08,223.32 L 1177.12,234.099 L 1178.59,245.2 L 1178.48,256.397 L 1177.83,261.962 L 1176.6,268.245 L 1173.81,277.432 L 1169.55,286.919 L 1164.08,295.763 L 1157.49,303.808 L 1151.73,309.365 L 1146.09,313.843 L 1140.06,317.787 L 1132.98,321.501 L 1128.88,326.757 L 1123.53,331.566 L 1118.11,334.96 L 1112.2,337.431 L 1105.98,338.913 L 1100,339.37 L 689.37,339.37 L 689.37,881.809 L 694.119,884.781 L 699.272,888.581 L 707.487,896.192 L 714.538,904.891 L 720.285,914.503 L 724.61,924.832 L 726.408,930.977 L 727.567,936.458 L 728.704,947.599 L 728.638,954.001 L 728.155,959.583 L 726.408,969.023 L 723.525,978.181 L 719.548,986.919 L 714.076,995.763 L 708.031,1003.22 L 700.511,1010.4 L 692.784,1016.1 L 683.7,1021.16 L 674.788,1024.74 L 664.723,1027.35 L 655.2,1028.57 L 644.8,1028.57 L 634.491,1027.2 L 625.212,1024.74 L 616.3,1021.16 L 607.216,1016.1 L 599.489,1010.4 L 591.969,1003.22 L 585.924,995.763 L 580.83,987.624 L 576.766,978.927 L 573.592,969.023 L 571.845,959.583 L 571.264,949.199M 1060.65,251.201 L 1061.09,255.981 L 1062.09,260.63 L 1100.8,260.638 L 1107.95,261.441 L 1113.34,262.959 L 1119.16,265.608 L 1125.1,269.67 L 1130.41,275.001 L 1130.83,274.48 L 1134.77,268.46 L 1136.47,264.835 L 1137.79,261.057 L 1138.71,257.165 L 1139.24,253.199 L 1139.36,249.2 L 1139.08,245.209 L 1138.39,241.267 L 1137.3,237.416 L 1134.39,230.837 L 1130.33,224.898 L 1127.63,221.95 L 1124.64,219.291 L 1118.64,215.32 L 1115.02,213.608 L 1111.25,212.271 L 1104.19,210.854 L 1100.2,210.63 L 1096.2,210.813 L 1089.14,212.159 L 1085.35,213.457 L 1081.72,215.132 L 1078.27,217.168 L 1075.05,219.543 L 1072.09,222.232 L 1069.42,225.208 L 1067.06,228.44 L 1064.68,232.61 L 1062.83,237.037 L 1061.52,241.658 L 1060.79,246.403 L 1060.65,251.201 z " style="fill-opacity:1.000000;fill:rgb(79,209,208);stroke:rgb(0,0,0);stroke-width:2"/></g>
<g fill-rule="evenodd"><path d="M 1021.26,850 L 1021.59,842.805 L 1022.72,834.884 L 1024.66,827.119 L 1027.37,819.59 L 1030.45,813.081 L 1034.56,806.213 L 1038.83,800.416 L 1044.18,794.464 L 1049.49,789.596 L 1055.88,784.781 L 1062.02,781.023 L 1069.22,777.525 L 1075.97,775.015 L 1083.71,772.964 L 1091.61,771.708 L 1099.6,771.261 L 1107.59,771.627 L 1115.51,772.802 L 1122.5,774.542 L 1130.04,777.215 L 1137.27,780.64 L 1143.45,784.336 L 1149.89,789.085 L 1155.82,794.464 L 1160.66,799.797 L 1165.44,806.213 L 1169.17,812.376 L 1172.63,819.59 L 1175.34,827.119 L 1177.28,834.884 L 1178.33,842.008 L 1178.74,850 L 1178.41,857.195 L 1177.28,865.116 L 1175.34,872.881 L 1172.63,880.41 L 1169.55,886.919 L 1165.44,893.787 L 1161.17,899.584 L 1155.82,905.536 L 1150.51,910.404 L 1144.12,915.219 L 1137.98,918.977 L 1130.78,922.475 L 1124.03,924.985 L 1116.29,927.036 L 1108.39,928.292 L 1100.4,928.739 L 1092.41,928.373 L 1084.49,927.198 L 1077.5,925.458 L 1069.96,922.785 L 1062.73,919.36 L 1056.55,915.664 L 1050.11,910.915 L 1044.18,905.536 L 1039.34,900.203 L 1034.56,893.787 L 1030.83,887.624 L 1027.37,880.41 L 1024.66,872.881 L 1022.72,865.116 L 1021.67,857.992 L 1021.26,850M 1060.63,849.6 L 1061.22,856.771 L 1062.1,860.672 L 1063.38,864.463 L 1065.04,868.105 L 1067.06,871.56 L 1069.42,874.792 L 1072.09,877.768 L 1077.61,882.383 L 1081.01,884.489 L 1084.61,886.238 L 1091.46,888.433 L 1095.41,889.101 L 1099.4,889.366 L 1106.57,888.817 L 1110.48,887.95 L 1114.28,886.69 L 1120.72,883.479 L 1124.01,881.204 L 1127.05,878.606 L 1129.81,875.713 L 1132.27,872.554 L 1134.39,869.163 L 1136.16,865.573 L 1137.55,861.823 L 1138.56,857.95 L 1139.36,850.8 L 1139.24,846.801 L 1138.71,842.835 L 1136.76,835.91 L 1135.14,832.251 L 1133.16,828.776 L 1130.83,825.52 L 1128.19,822.517 L 1122.72,817.846 L 1119.34,815.706 L 1115.76,813.921 L 1108.93,811.656 L 1104.99,810.947 L 1101,810.643 L 1093.82,811.118 L 1089.91,811.946 L 1086.1,813.167 L 1082.43,814.768 L 1078.95,816.733 L 1075.68,819.042 L 1072.66,821.67 L 1067.96,827.119 L 1065.8,830.489 L 1064,834.06 L 1062.57,837.796 L 1061.52,841.658 L 1060.88,845.606 L 1060.63,849.6 z " style="fill-opacity:1.000000;fill:rgb(26,178,37);stroke:rgb(0,0,0);stroke-width:2"/></g>
<g fill-rule="evenodd"><path d="M 1710.63,2510.63 L 1711.15,2504.25 L 1712.57,2498.43 L 1715.04,2492.52 L 1718.43,2487.1 L 1722.66,2482.3 L 1727.61,2478.25 L 1733.15,2475.05 L 1739.14,2472.79 L 1745.41,2471.53 L 1749.4,2471.26 L 1753.4,2471.41 L 1757.36,2471.95 L 1761.63,2473.02 L 1765.39,2474.39 L 1769.34,2476.34 L 1773.04,2478.71 L 1776.16,2481.21 L 1779.02,2484.02 L 1781.8,2487.42 L 1784.2,2491.12 L 1786,2494.69 L 1787.43,2498.43 L 1788.48,2502.29 L 1789.12,2506.24 L 1789.37,2510.63 L 2610.63,2510.63 L 2610.63,1718.19 L 2601.35,1711.92 L 2597.08,1708.3 L 2592.51,1703.81 L 2585.46,1695.11 L 2579.72,1685.5 L 2575.39,1675.17 L 2572.57,1664.33 L 2571.32,1653.2 L 2571.67,1642.01 L 2573.59,1630.98 L 2577.06,1620.33 L 2581.61,1610.98 L 2587.84,1601.67 L 2595.32,1593.34 L 2603.27,1586.63 L 2612.73,1580.64 L 2622.94,1576.05 L 2632.92,1573.13 L 2644,1571.49 L 2655.2,1571.43 L 2666.29,1572.96 L 2676.3,1575.78 L 2686.57,1580.26 L 2696.09,1586.16 L 2704.68,1593.34 L 2710.15,1599.18 L 2714.99,1605.55 L 2719.17,1612.38 L 2722.94,1620.33 L 2725.57,1627.89 L 2727.43,1635.67 L 2728.48,1643.6 L 2728.7,1652.4 L 2727.83,1661.96 L 2725.57,1672.11 L 2722.32,1681.15 L 2717.58,1690.41 L 2711.67,1698.96 L 2705.25,1706.1 L 2698.01,1712.41 L 2689.37,1718.19 L 2689.36,2550.79 L 2688.57,2557.88 L 2686.52,2564.7 L 2683.28,2571.04 L 2678.39,2577.27 L 2673.01,2581.94 L 2666.16,2585.9 L 2658.65,2588.41 L 2650.79,2589.36 L 1789.37,2589.37 L 1788.91,2595.35 L 1787.67,2600.81 L 1785.5,2606.4 L 1782.5,2611.6 L 1779.02,2615.98 L 1774.64,2620.08 L 1769.69,2623.47 L 1764.65,2625.91 L 1759.32,2627.62 L 1753.4,2628.59 L 1747.4,2628.65 L 1741.46,2627.8 L 1735.72,2626.06 L 1730.31,2623.47 L 1725.68,2620.33 L 1721.26,2616.27 L 1717.28,2611.26 L 1714,2605.31 L 1711.89,2599.27 L 1710.79,2592.97 L 1710.63,2510.63 z " style="fill-opacity:1.000000;fill:rgb(116,203,55);stroke:rgb(0,0,0);stroke-width:2"/></g>
<g fill-rule="evenodd"><path d="M 1821.26,250 L 1821.59,242.805 L 1822.72,234.884 L 1824.43,227.886 L 1827.06,220.33 L 1830.45,213.081 L 1834.12,206.88 L 1838.83,200.416 L 1844.18,194.464 L 1849.49,189.596 L 1855.88,184.781 L 1862.73,180.64 L 1869.22,177.525 L 1876.74,174.775 L 1883.71,172.964 L 1891.61,171.708 L 1899.6,171.261 L 1906.8,171.554 L 1914.72,172.649 L 1921.73,174.317 L 1929.3,176.914 L 1935.85,179.897 L 1942.78,183.898 L 1949.27,188.581 L 1955.25,193.899 L 1960.15,199.183 L 1964.99,205.55 L 1969.17,212.376 L 1972.63,219.59 L 1975.11,226.354 L 1977.12,234.099 L 1978.33,242.008 L 1978.74,250 L 1978.41,257.195 L 1977.28,265.116 L 1975.57,272.114 L 1972.94,279.67 L 1969.55,286.919 L 1965.88,293.12 L 1961.17,299.584 L 1955.82,305.536 L 1950.51,310.404 L 1944.12,315.219 L 1937.27,319.36 L 1930.78,322.475 L 1924.03,324.985 L 1916.29,327.036 L 1908.39,328.292 L 1900.4,328.739 L 1893.2,328.446 L 1885.28,327.351 L 1878.27,325.683 L 1870.7,323.086 L 1864.15,320.103 L 1857.22,316.102 L 1850.73,311.419 L 1844.75,306.101 L 1839.85,300.817 L 1835.01,294.45 L 1830.83,287.624 L 1827.37,280.41 L 1824.89,273.646 L 1822.88,265.901 L 1821.67,257.992 L 1821.26,250M 1860.63,249.6 L 1860.79,253.597 L 1861.36,257.558 L 1863.38,264.463 L 1865.04,268.105 L 1867.06,271.56 L 1869.42,274.792 L 1872.09,277.768 L 1875.05,280.457 L 1878.27,282.832 L 1884.61,286.238 L 1891.46,288.433 L 1895.41,289.101 L 1899.4,289.366 L 1906.57,288.817 L 1910.48,287.95 L 1914.28,286.69 L 1917.93,285.052 L 1921.39,283.051 L 1927.05,278.606 L 1931.8,273.206 L 1933.99,269.858 L 1935.83,266.305 L 1937.3,262.584 L 1938.39,258.733 L 1939.08,254.791 L 1939.36,250.8 L 1938.85,243.624 L 1938,239.714 L 1936.76,235.91 L 1933.58,229.455 L 1931.33,226.152 L 1928.74,223.096 L 1923.37,218.314 L 1920.03,216.106 L 1916.49,214.248 L 1912.77,212.76 L 1908.93,211.656 L 1904.99,210.947 L 1901,210.643 L 1897,210.744 L 1893.03,211.251 L 1889.14,212.159 L 1885.35,213.457 L 1881.72,215.132 L 1878.27,217.168 L 1872.66,221.67 L 1867.96,227.119 L 1865.8,230.489 L 1864,234.06 L 1862.57,237.796 L 1861.52,241.658 L 1860.88,245.606 L 1860.63,249.6 z " style="fill-opacity:1.000000;fill:rgb(138,174,245);stroke:rgb(0,0,0);stroke-width:2"/></g>
<g fill-rule="evenodd"><path d="M 1821.32,853.201 L 1821.52,843.603 L 1822.88,834.099 L 1825.14,825.592 L 1828.67,816.663 L 1833.68,807.552 L 1840.37,798.574 L 1848.27,790.635 L 1857.22,783.898 L 1867.03,778.497 L 1877.5,774.542 L 1888.43,772.114 L 1899.6,771.261 L 1909.98,771.895 L 1920.19,773.891 L 1930.04,777.215 L 1939.37,781.809 L 1948.01,787.592 L 1955.82,794.464 L 1962.65,802.305 L 1968.19,810.63 L 2650,810.63 L 2654.75,810.917 L 2659.42,811.774 L 2663.96,813.188 L 2668.3,815.14 L 2672.36,817.599 L 2676.11,820.531 L 2679.47,823.893 L 2682.84,828.292 L 2685.22,832.41 L 2687.34,837.533 L 2688.57,842.125 L 2689.3,847.623 L 2689.37,1181.81 L 2695.44,1185.69 L 2701.73,1190.64 L 2706.94,1195.61 L 2712.16,1201.67 L 2716.32,1207.55 L 2720.28,1214.5 L 2723.23,1221.07 L 2725.79,1228.66 L 2727.43,1235.67 L 2728.41,1242.81 L 2728.74,1250 L 2728.33,1257.99 L 2727.28,1265.12 L 2725.34,1272.88 L 2722.94,1279.67 L 2719.55,1286.92 L 2716.75,1291.77 L 2713.13,1297.06 L 2705.82,1305.54 L 2701.12,1309.89 L 2696.73,1313.37 L 2687.27,1319.36 L 2677.06,1323.95 L 2671.73,1325.68 L 2665.51,1327.2 L 2659.19,1328.2 L 2653.6,1328.66 L 2647.2,1328.69 L 2641.61,1328.29 L 2630.59,1326.31 L 2624.45,1324.48 L 2619.22,1322.48 L 2614.15,1320.1 L 2608.57,1316.96 L 2603.27,1313.37 L 2598.88,1309.89 L 2590.9,1302.03 L 2587.35,1297.7 L 2583.68,1292.45 L 2580.83,1287.62 L 2578,1281.88 L 2575.92,1276.68 L 2573.99,1270.57 L 2572.57,1264.33 L 2571.67,1257.99 L 2571.28,1251.6 L 2571.41,1245.2 L 2572.06,1238.83 L 2573.22,1232.53 L 2574.89,1226.35 L 2577.06,1220.33 L 2579.72,1214.5 L 2582.83,1208.91 L 2586.39,1203.59 L 2590.37,1198.57 L 2594.75,1193.9 L 2599.49,1189.6 L 2605.22,1185.23 L 2610.63,1181.81 L 2610.63,889.37 L 1968.19,889.37 L 1964.99,894.45 L 1961.67,898.959 L 1954.1,907.212 L 1945.44,914.308 L 1935.85,920.103 L 1925.55,924.481 L 1914.72,927.351 L 1903.6,928.658 L 1892.41,928.373 L 1883.71,927.036 L 1874.45,924.481 L 1865.58,920.818 L 1857.22,916.102 L 1849.49,910.404 L 1843.06,904.39 L 1836.87,897.056 L 1831.61,889.023 L 1827.68,881.147 L 1824.43,872.114 L 1822.3,862.752 L 1821.32,853.201M 1860.63,849.6 L 1860.79,853.597 L 1862.1,860.672 L 1863.38,864.463 L 1865.04,868.105 L 1867.06,871.56 L 1869.42,874.792 L 1872.09,877.768 L 1875.05,880.457 L 1881.01,884.489 L 1886.85,887.109 L 1893.03,888.749 L 1900.2,889.37 L 1906.57,888.817 L 1913.53,886.973 L 1919.34,884.294 L 1925,880.412 L 1921.95,877.626 L 1919.29,874.636 L 1916.95,871.392 L 1914.59,867.211 L 1913.03,863.528 L 1911.66,858.928 L 1910.95,854.99 L 1910.63,850.2 L 1910.81,846.203 L 1911.4,842.246 L 1912.39,838.368 L 1914.08,833.877 L 1915.9,830.315 L 1918.08,826.956 L 1921.12,823.243 L 1925,819.589 L 1924.64,819.291 L 1918.64,815.32 L 1915.02,813.608 L 1911.25,812.271 L 1904.19,810.854 L 1900.2,810.63 L 1896.2,810.813 L 1889.14,812.159 L 1885.35,813.457 L 1881.72,815.132 L 1878.27,817.168 L 1875.05,819.543 L 1872.09,822.232 L 1869.42,825.208 L 1865.42,831.188 L 1863.68,834.795 L 1862.33,838.56 L 1860.88,845.606 L 1860.63,849.6 z " style="fill-opacity:1.000000;fill:rgb(177,8,8);stroke:rgb(0,0,0);stroke-width:2"/></g>
</svg>
