<?xml version="1.0" standalone="no"?>
<!DOCTYPE svg PUBLIC "-//W3C//DTD SVG 1.1//EN"
"http://www.w3.org/Graphics/SVG/1.1/DTD/svg11.dtd">
<svg width="148.8" height="148.8" viewBox="0 0 3100 3100" version="1.1"
xmlns="http://www.w3.org/2000/svg"
xmlns:xlink="http://www.w3.org/1999/xlink">
<polyline points="1021.26,850 1021.59,842.806 1022.72,834.884 1024.66,827.12 1027.37,819.592 1030.45,813.082 1034.56,806.214 1038.83,800.418 1044.18,794.464 1049.49,789.596 1055.88,784.782 1062.02,781.024 1069.22,777.526 1075.97,775.016 1083.71,772.964 1091.61,771.71 1099.6,771.262 1107.59,771.628 1115.51,772.804 1122.5,774.544 1130.04,777.216 1137.27,780.642 1143.45,784.338 1149.89,789.086 1155.82,794.464 1160.66,799.798 1165.44,806.214 1169.17,812.376 1172.63,819.592 1175.34,827.12 1177.27,834.884 1178.33,842.01 1178.74,850 1178.41,857.196 1177.27,865.118 1175.34,872.882 1172.63,880.41 1169.55,886.92 1165.44,893.788 1161.17,899.584 1155.82,905.538 1150.51,910.406 1144.12,915.22 1137.97,918.978 1130.78,922.476 1124.03,924.986 1116.29,927.038 1108.39,928.292 1100.4,928.74 1092.41,928.374 1084.49,927.198 1077.5,925.458 1069.96,922.786 1062.73,919.36 1056.54,915.664 1050.1,910.916 1044.18,905.538 1039.34,900.204 1034.56,893.788 1030.83,887.626 1027.37,880.41 1024.66,872.882 1022.72,865.118 1021.67,857.992 1021.26,850" style="stroke:rgb(33,1,197);stroke-width:0.000000;fill:none;stroke-opacity:0.5;stroke-linecap:round;stroke-linejoin:round;;fill:none"/>
<polyline points="1021.26,850 1021.59,842.806 1022.72,834.884 1024.66,827.12 1027.37,819.592 1030.45,813.082 1034.56,806.214 1038.83,800.418 1044.18,794.464 1049.49,789.596 1055.88,784.782 1062.02,781.024 1069.22,777.526 1075.97,775.016 1083.71,772.964 1091.61,771.71 1099.6,771.262 1107.59,771.628 1115.51,772.804 1122.5,774.544 1130.04,777.216 1137.27,780.642 1143.45,784.338 1149.89,789.086 1155.82,794.464 1160.66,799.798 1165.44,806.214 1169.17,812.376 1172.63,819.592 1175.34,827.12 1177.27,834.884 1178.33,842.01 1178.74,850 1178.41,857.196 1177.27,865.118 1175.34,872.882 1172.63,880.41 1169.55,886.92 1165.44,893.788 1161.17,899.584 1155.82,905.538 1150.51,910.406 1144.12,915.22 1137.97,918.978 1130.78,922.476 1124.03,924.986 1116.29,927.038 1108.39,928.292 1100.4,928.74 1092.41,928.374 1084.49,927.198 1077.5,925.458 1069.96,922.786 1062.73,919.36 1056.54,915.664 1050.1,910.916 1044.18,905.538 1039.34,900.204 1034.56,893.788 1030.83,887.626 1027.37,880.41 1024.66,872.882 1022.72,865.118 1021.67,857.992 1021.26,850" style="stroke:rgb(0,0,0);stroke-width:1px;fill:none;stroke-opacity:1;stroke-linecap:round;stroke-linejoin:round;;fill:none"/>
<polyline points="1060.63,849.6 1061.22,856.772 1062.1,860.674 1063.38,864.464 1065.04,868.106 1067.06,871.56 1069.42,874.792 1072.09,877.77 1077.61,882.384 1081.01,884.49 1084.61,886.238 1091.46,888.434 1095.41,889.102 1099.4,889.366 1106.57,888.818 1110.48,887.95 1114.28,886.692 1120.71,883.48 1124.01,881.204 1127.05,878.608 1129.81,875.714 1132.27,872.556 1134.39,869.164 1136.16,865.574 1137.55,861.824 1138.56,857.952 1139.36,850.802 1139.24,846.802 1138.71,842.836 1136.76,835.91 1135.14,832.252 1133.16,828.778 1130.83,825.522 1128.19,822.518 1122.72,817.846 1119.34,815.708 1115.76,813.922 1108.93,811.656 1104.99,810.948 1101,810.644 1093.82,811.118 1089.91,811.946 1086.1,813.168 1082.43,814.768 1078.94,816.734 1075.68,819.042 1072.66,821.672 1067.96,827.12 1065.8,830.49 1064,834.06 1062.57,837.796 1061.52,841.658 1060.87,845.608 1060.63,849.6" style="stroke:rgb(33,1,197);stroke-width:0.000000;fill:none;stroke-opacity:0.5;stroke-linecap:round;stroke-linejoin:round;;fill:none"/>
<polyline points="1060.63,849.6 1061.22,856.772 1062.1,860.674 1063.38,864.464 1065.04,868.106 1067.06,871.56 1069.42,874.792 1072.09,877.77 1077.61,882.384 1081.01,884.49 1084.61,886.238 1091.46,888.434 1095.41,889.102 1099.4,889.366 1106.57,888.818 1110.48,887.95 1114.28,886.692 1120.71,883.48 1124.01,881.204 1127.05,878.608 1129.81,875.714 1132.27,872.556 1134.39,869.164 1136.16,865.574 1137.55,861.824 1138.56,857.952 1139.36,850.802 1139.24,846.802 1138.71,842.836 1136.76,835.91 1135.14,832.252 1133.16,828.778 1130.83,825.522 1128.19,822.518 1122.72,817.846 1119.34,815.708 1115.76,813.922 1108.93,811.656 1104.99,810.948 1101,810.644 1093.82,811.118 1089.91,811.946 1086.1,813.168 1082.43,814.768 1078.94,816.734 1075.68,819.042 1072.66,821.672 1067.96,827.12 1065.8,830.49 1064,834.06 1062.57,837.796 1061.52,841.658 1060.87,845.608 1060.63,849.6" style="stroke:rgb(0,0,0);stroke-width:1px;fill:none;stroke-opacity:1;stroke-linecap:round;stroke-linejoin:round;;fill:none"/>
<polyline points="1821.26,250 1821.59,242.806 1822.72,234.884 1824.43,227.888 1827.06,220.332 1830.45,213.082 1834.11,206.882 1838.83,200.418 1844.18,194.464 1849.49,189.596 1855.88,184.782 1862.73,180.642 1869.22,177.526 1876.74,174.776 1883.71,172.964 1891.61,171.71 1899.6,171.262 1906.8,171.554 1914.72,172.65 1921.73,174.318 1929.3,176.914 1935.85,179.898 1942.78,183.898 1949.27,188.582 1955.25,193.9 1960.15,199.184 1964.99,205.55 1969.17,212.376 1972.63,219.592 1975.1,226.356 1977.12,234.1 1978.33,242.01 1978.74,250 1978.41,257.196 1977.27,265.118 1975.57,272.114 1972.94,279.67 1969.55,286.92 1965.88,293.12 1961.17,299.584 1955.82,305.538 1950.51,310.406 1944.12,315.22 1937.27,319.36 1930.78,322.476 1924.03,324.986 1916.29,327.038 1908.39,328.292 1900.4,328.74 1893.2,328.448 1885.28,327.352 1878.27,325.684 1870.7,323.088 1864.14,320.104 1857.21,316.104 1850.73,311.42 1844.75,306.102 1839.85,300.818 1835.01,294.452 1830.83,287.626 1827.37,280.41 1824.89,273.646 1822.88,265.902 1821.67,257.992 1821.26,250" style="stroke:rgb(79,209,208);stroke-width:0.000000;fill:none;stroke-opacity:0.5;stroke-linecap:round;stroke-linejoin:round;;fill:none"/>
<polyline points="1821.26,250 1821.59,242.806 1822.72,234.884 1824.43,227.888 1827.06,220.332 1830.45,213.082 1834.11,206.882 1838.83,200.418 1844.18,194.464 1849.49,189.596 1855.88,184.782 1862.73,180.642 1869.22,177.526 1876.74,174.776 1883.71,172.964 1891.61,171.71 1899.6,171.262 1906.8,171.554 1914.72,172.65 1921.73,174.318 1929.3,176.914 1935.85,179.898 1942.78,183.898 1949.27,188.582 1955.25,193.9 1960.15,199.184 1964.99,205.55 1969.17,212.376 1972.63,219.592 1975.1,226.356 1977.12,234.1 1978.33,242.01 1978.74,250 1978.41,257.196 1977.27,265.118 1975.57,272.114 1972.94,279.67 1969.55,286.92 1965.88,293.12 1961.17,299.584 1955.82,305.538 1950.51,310.406 1944.12,315.22 1937.27,319.36 1930.78,322.476 1924.03,324.986 1916.29,327.038 1908.39,328.292 1900.4,328.74 1893.2,328.448 1885.28,327.352 1878.27,325.684 1870.7,323.088 1864.14,320.104 1857.21,316.104 1850.73,311.42 1844.75,306.102 1839.85,300.818 1835.01,294.452 1830.83,287.626 1827.37,280.41 1824.89,273.646 1822.88,265.902 1821.67,257.992 1821.26,250" style="stroke:rgb(0,0,0);stroke-width:1px;fill:none;stroke-opacity:1;stroke-linecap:round;stroke-linejoin:round;;fill:none"/>
<polyline points="1860.63,249.6 1860.79,253.598 1861.36,257.56 1863.38,264.464 1865.04,268.106 1867.06,271.56 1869.42,274.792 1872.09,277.77 1875.05,280.458 1878.27,282.832 1884.61,286.238 1891.46,288.434 1895.41,289.102 1899.4,289.366 1906.57,288.818 1910.48,287.95 1914.28,286.692 1917.93,285.052 1921.39,283.052 1927.05,278.608 1931.8,273.206 1933.99,269.86 1935.83,266.306 1937.3,262.586 1938.39,258.734 1939.08,254.792 1939.36,250.802 1938.85,243.624 1938,239.714 1936.76,235.91 1933.58,229.456 1931.32,226.154 1928.74,223.098 1923.37,218.316 1920.03,216.108 1916.49,214.25 1912.77,212.76 1908.93,211.656 1904.99,210.948 1901,210.644 1897,210.746 1893.03,211.252 1889.13,212.16 1885.35,213.458 1881.72,215.134 1878.27,217.17 1872.66,221.672 1867.96,227.12 1865.8,230.49 1864,234.06 1862.57,237.796 1861.52,241.658 1860.87,245.608 1860.63,249.6" style="stroke:rgb(79,209,208);stroke-width:0.000000;fill:none;stroke-opacity:0.5;stroke-linecap:round;stroke-linejoin:round;;fill:none"/>
<polyline points="1860.63,249.6 1860.79,253.598 1861.36,257.56 1863.38,264.464 1865.04,268.106 1867.06,271.56 1869.42,274.792 1872.09,277.77 1875.05,280.458 1878.27,282.832 1884.61,286.238 1891.46,288.434 1895.41,289.102 1899.4,289.366 1906.57,288.818 1910.48,287.95 1914.28,286.692 1917.93,285.052 1921.39,283.052 1927.05,278.608 1931.8,273.206 1933.99,269.86 1935.83,266.306 1937.3,262.586 1938.39,258.734 1939.08,254.792 1939.36,250.802 1938.85,243.624 1938,239.714 1936.76,235.91 1933.58,229.456 1931.32,226.154 1928.74,223.098 1923.37,218.316 1920.03,216.108 1916.49,214.25 1912.77,212.76 1908.93,211.656 1904.99,210.948 1901,210.644 1897,210.746 1893.03,211.252 1889.13,212.16 1885.35,213.458 1881.72,215.134 1878.27,217.17 1872.66,221.672 1867.96,227.12 1865.8,230.49 1864,234.06 1862.57,237.796 1861.52,241.658 1860.87,245.608 1860.63,249.6" style="stroke:rgb(0,0,0);stroke-width:1px;fill:none;stroke-opacity:1;stroke-linecap:round;stroke-linejoin:round;;fill:none"/>
<polyline points="571.262,1950.8 571.75,1958.79 573.046,1966.69 575.39,1975.17 578.33,1982.61 582.01,1989.72 586.392,1996.41 591.968,2003.22 597.67,2008.84 603.912,2013.84 610.628,2018.19 610.636,2550.79 610.916,2554.75 611.772,2559.42 613.188,2563.96 615.138,2568.3 617.598,2572.37 620.53,2576.11 623.892,2579.47 626.986,2581.95 632.408,2585.22 638.286,2587.59 644.468,2588.98 650,2589.37 1510.63,2589.37 1511.15,2595.75 1512.57,2601.58 1515.04,2607.48 1518.43,2612.9 1522.66,2617.7 1527.61,2621.75 1533.15,2624.95 1538.75,2627.1 1545.01,2628.42 1551.4,2628.72 1557.36,2628.05 1563.53,2626.34 1569.34,2623.66 1574.32,2620.33 1579.01,2615.98 1582.72,2611.26 1585.32,2606.76 1587.3,2601.96 1588.71,2596.54 1589.32,2591.37 1589.37,2510.23 1588.56,2502.68 1586.9,2496.92 1584.19,2491.12 1580.58,2485.84 1576.46,2481.48 1571.39,2477.58 1566.12,2474.71 1560.48,2472.68 1554.59,2471.53 1550.6,2471.27 1546.2,2471.44 1542.24,2472.03 1538.37,2473.02 1534.24,2474.55 1530.66,2476.34 1526.96,2478.71 1523.83,2481.21 1520.71,2484.32 1518.2,2487.43 1515.8,2491.12 1514,2494.69 1512.57,2498.43 1511.44,2502.68 1510.83,2506.64 1510.63,2510.63 689.37,2510.63 689.37,2018.19 694.118,2015.22 699.272,2011.42 704.098,2007.21 708.03,2003.22 712.162,1998.33 715.442,1993.79 718.782,1988.33 721.334,1983.34 723.524,1978.18 725.57,1972.11 727.116,1965.9 728.052,1960.38 728.638,1954 728.722,1948.4 728.41,1942.81 727.566,1936.46 726.406,1930.98 724.608,1924.83 720.284,1914.5 714.538,1904.89 710.66,1899.8 706.936,1895.61 698.644,1888.08 693.454,1884.34 688.674,1881.41 682.974,1878.5 677.806,1876.33 667.074,1873.13 655.998,1871.49 649.598,1871.26 644,1871.49 638.434,1872.11 632.144,1873.31 621.446,1876.62 615.578,1879.18 610.628,1881.81 601.354,1888.08 593.062,1895.61 585.922,1904.24 581.608,1910.98 578.002,1918.12 574.894,1926.36 572.882,1934.1 571.588,1942.81 571.262,1950.8" style="stroke:rgb(26,178,37);stroke-width:0.000000;fill:none;stroke-opacity:0.5;stroke-linecap:round;stroke-linejoin:round;;fill:none"/>
<polyline points="571.262,1950.8 571.75,1958.79 573.046,1966.69 575.39,1975.17 578.33,1982.61 582.01,1989.72 586.392,1996.41 591.968,2003.22 597.67,2008.84 603.912,2013.84 610.628,2018.19 610.636,2550.79 610.916,2554.75 611.772,2559.42 613.188,2563.96 615.138,2568.3 617.598,2572.37 620.53,2576.11 623.892,2579.47 626.986,2581.95 632.408,2585.22 638.286,2587.59 644.468,2588.98 650,2589.37 1510.63,2589.37 1511.15,2595.75 1512.57,2601.58 1515.04,2607.48 1518.43,2612.9 1522.66,2617.7 1527.61,2621.75 1533.15,2624.95 1538.75,2627.1 1545.01,2628.42 1551.4,2628.72 1557.36,2628.05 1563.53,2626.34 1569.34,2623.66 1574.32,2620.33 1579.01,2615.98 1582.72,2611.26 1585.32,2606.76 1587.3,2601.96 1588.71,2596.54 1589.32,2591.37 1589.37,2510.23 1588.56,2502.68 1586.9,2496.92 1584.19,2491.12 1580.58,2485.84 1576.46,2481.48 1571.39,2477.58 1566.12,2474.71 1560.48,2472.68 1554.59,2471.53 1550.6,2471.27 1546.2,2471.44 1542.24,2472.03 1538.37,2473.02 1534.24,2474.55 1530.66,2476.34 1526.96,2478.71 1523.83,2481.21 1520.71,2484.32 1518.2,2487.43 1515.8,2491.12 1514,2494.69 1512.57,2498.43 1511.44,2502.68 1510.83,2506.64 1510.63,2510.63 689.37,2510.63 689.37,2018.19 694.118,2015.22 699.272,2011.42 704.098,2007.21 708.03,2003.22 712.162,1998.33 715.442,1993.79 718.782,1988.33 721.334,1983.34 723.524,1978.18 725.57,1972.11 727.116,1965.9 728.052,1960.38 728.638,1954 728.722,1948.4 728.41,1942.81 727.566,1936.46 726.406,1930.98 724.608,1924.83 720.284,1914.5 714.538,1904.89 710.66,1899.8 706.936,1895.61 698.644,1888.08 693.454,1884.34 688.674,1881.41 682.974,1878.5 677.806,1876.33 667.074,1873.13 655.998,1871.49 649.598,1871.26 644,1871.49 638.434,1872.11 632.144,1873.31 621.446,1876.62 615.578,1879.18 610.628,1881.81 601.354,1888.08 593.062,1895.61 585.922,1904.24 581.608,1910.98 578.002,1918.12 574.894,1926.36 572.882,1934.1 571.588,1942.81 571.262,1950.8" style="stroke:rgb(0,0,0);stroke-width:1px;fill:none;stroke-opacity:1;stroke-linecap:round;stroke-linejoin:round;;fill:none"/>
<polyline points="571.262,949.2 572.056,938.832 574.206,928.656 577.368,919.592 582.01,910.284 587.348,902.306 594.18,894.464 601.986,887.594 610.628,881.81 610.636,299.208 611.138,293.686 612.412,288.288 614.43,283.124 617.154,278.294 620.01,274.492 623.304,271.064 626.986,268.056 630.314,265.906 634.568,263.782 639.046,262.186 643.684,261.14 648.414,260.662 1021.98,260.63 1021.41,254.802 1021.26,249.2 1021.52,243.604 1022.3,237.248 1024.89,226.356 1026.76,221.074 1029.36,215.22 1032.01,210.284 1035.46,204.892 1042.51,196.194 1050.73,188.582 1055.22,185.234 1060.63,181.81 1070.7,176.914 1076.74,174.776 1082.14,173.312 1093.2,171.554 1098.8,171.27 1105.2,171.432 1110.77,172.002 1117.07,173.134 1127.81,176.334 1137.97,181.024 1142.78,183.898 1148.01,187.594 1156.38,195.036 1163.61,203.59 1169.55,213.082 1174.08,223.322 1177.12,234.1 1178.59,245.2 1178.48,256.398 1177.83,261.962 1176.6,268.246 1173.81,277.432 1169.55,286.92 1164.08,295.764 1157.49,303.808 1151.73,309.366 1146.09,313.844 1140.06,317.788 1132.98,321.502 1128.88,326.758 1123.53,331.568 1118.1,334.962 1112.2,337.432 1105.98,338.914 1100,339.372 689.37,339.372 689.37,881.81 694.118,884.782 699.272,888.582 707.486,896.194 714.538,904.892 720.284,914.504 724.608,924.832 726.406,930.978 727.566,936.46 728.702,947.6 728.638,954.002 728.154,959.584 726.406,969.024 723.524,978.182 719.548,986.92 714.076,995.764 708.03,1003.22 700.51,1010.41 692.784,1016.1 683.698,1021.17 674.788,1024.74 664.722,1027.35 655.198,1028.57 644.8,1028.57 634.49,1027.2 625.21,1024.74 616.3,1021.17 607.214,1016.1 599.488,1010.41 591.968,1003.22 585.922,995.764 580.83,987.626 576.764,978.928 573.592,969.024 571.844,959.584 571.262,949.2" style="stroke:rgb(116,203,55);stroke-width:0.000000;fill:none;stroke-opacity:0.5;stroke-linecap:round;stroke-linejoin:round;;fill:none"/>
<polyline points="571.262,949.2 572.056,938.832 574.206,928.656 577.368,919.592 582.01,910.284 587.348,902.306 594.18,894.464 601.986,887.594 610.628,881.81 610.636,299.208 611.138,293.686 612.412,288.288 614.43,283.124 617.154,278.294 620.01,274.492 623.304,271.064 626.986,268.056 630.314,265.906 634.568,263.782 639.046,262.186 643.684,261.14 648.414,260.662 1021.98,260.63 1021.41,254.802 1021.26,249.2 1021.52,243.604 1022.3,237.248 1024.89,226.356 1026.76,221.074 1029.36,215.22 1032.01,210.284 1035.46,204.892 1042.51,196.194 1050.73,188.582 1055.22,185.234 1060.63,181.81 1070.7,176.914 1076.74,174.776 1082.14,173.312 1093.2,171.554 1098.8,171.27 1105.2,171.432 1110.77,172.002 1117.07,173.134 1127.81,176.334 1137.97,181.024 1142.78,183.898 1148.01,187.594 1156.38,195.036 1163.61,203.59 1169.55,213.082 1174.08,223.322 1177.12,234.1 1178.59,245.2 1178.48,256.398 1177.83,261.962 1176.6,268.246 1173.81,277.432 1169.55,286.92 1164.08,295.764 1157.49,303.808 1151.73,309.366 1146.09,313.844 1140.06,317.788 1132.98,321.502 1128.88,326.758 1123.53,331.568 1118.1,334.962 1112.2,337.432 1105.98,338.914 1100,339.372 689.37,339.372 689.37,881.81 694.118,884.782 699.272,888.582 707.486,896.194 714.538,904.892 720.284,914.504 724.608,924.832 726.406,930.978 727.566,936.46 728.702,947.6 728.638,954.002 728.154,959.584 726.406,969.024 723.524,978.182 719.548,986.92 714.076,995.764 708.03,1003.22 700.51,1010.41 692.784,1016.1 683.698,1021.17 674.788,1024.74 664.722,1027.35 655.198,1028.57 644.8,1028.57 634.49,1027.2 625.21,1024.74 616.3,1021.17 607.214,1016.1 599.488,1010.41 591.968,1003.22 585.922,995.764 580.83,987.626 576.764,978.928 573.592,969.024 571.844,959.584 571.262,949.2" style="stroke:rgb(0,0,0);stroke-width:1px;fill:none;stroke-opacity:1;stroke-linecap:round;stroke-linejoin:round;;fill:none"/>
<polyline points="1060.65,251.202 1060.79,246.404 1061.52,241.658 1062.82,237.038 1064.68,232.61 1067.06,228.442 1069.42,225.21 1072.09,222.232 1075.05,219.544 1078.27,217.17 1081.72,215.134 1085.35,213.458 1089.13,212.16 1096.2,210.814 1100.2,210.632 1104.19,210.856 1111.25,212.272 1115.02,213.608 1118.64,215.322 1124.64,219.292 1127.62,221.95 1130.33,224.9 1134.39,230.838 1137.3,237.416 1138.39,241.268 1139.08,245.21 1139.36,249.2 1139.24,253.2 1138.71,257.166 1137.78,261.058 1136.47,264.836 1134.77,268.46 1130.83,274.48 1130.41,275.002 1125.1,269.67 1119.16,265.61 1113.34,262.96 1107.95,261.442 1100.8,260.64 1062.09,260.63 1061.09,255.982 1060.65,251.202" style="stroke:rgb(116,203,55);stroke-width:0.000000;fill:none;stroke-opacity:0.5;stroke-linecap:round;stroke-linejoin:round;;fill:none"/>
<polyline points="1060.65,251.202 1060.79,246.404 1061.52,241.658 1062.82,237.038 1064.68,232.61 1067.06,228.442 1069.42,225.21 1072.09,222.232 1075.05,219.544 1078.27,217.17 1081.72,215.134 1085.35,213.458 1089.13,212.16 1096.2,210.814 1100.2,210.632 1104.19,210.856 1111.25,212.272 1115.02,213.608 1118.64,215.322 1124.64,219.292 1127.62,221.95 1130.33,224.9 1134.39,230.838 1137.3,237.416 1138.39,241.268 1139.08,245.21 1139.36,249.2 1139.24,253.2 1138.71,257.166 1137.78,261.058 1136.47,264.836 1134.77,268.46 1130.83,274.48 1130.41,275.002 1125.1,269.67 1119.16,265.61 1113.34,262.96 1107.95,261.442 1100.8,260.64 1062.09,260.63 1061.09,255.982 1060.65,251.202" style="stroke:rgb(0,0,0);stroke-width:1px;fill:none;stroke-opacity:1;stroke-linecap:round;stroke-linejoin:round;;fill:none"/>
<polyline points="1710.63,2510.63 1710.79,2592.97 1711.89,2599.27 1714,2605.31 1717.28,2611.26 1721.26,2616.28 1725.68,2620.33 1730.31,2623.47 1735.72,2626.06 1741.46,2627.8 1747.4,2628.66 1753.4,2628.59 1759.32,2627.62 1764.65,2625.91 1769.68,2623.47 1774.64,2620.08 1779.01,2615.98 1782.5,2611.6 1785.49,2606.4 1787.67,2600.81 1788.91,2595.35 1789.37,2589.37 2650.79,2589.36 2658.65,2588.41 2666.16,2585.9 2673.01,2581.95 2678.39,2577.27 2683.27,2571.04 2686.52,2564.7 2688.57,2557.88 2689.36,2550.79 2689.37,1718.19 2698.01,1712.41 2705.25,1706.1 2711.67,1698.96 2717.58,1690.41 2722.32,1681.15 2725.57,1672.11 2727.83,1661.96 2728.7,1652.4 2728.48,1643.6 2727.42,1635.67 2725.57,1627.89 2722.94,1620.33 2719.17,1612.38 2714.99,1605.55 2710.15,1599.18 2704.68,1593.34 2696.09,1586.16 2686.56,1580.27 2676.3,1575.78 2666.29,1572.96 2655.2,1571.43 2644,1571.49 2632.92,1573.13 2622.94,1576.06 2612.73,1580.64 2603.26,1586.63 2595.32,1593.34 2587.84,1601.67 2581.61,1610.98 2577.06,1620.33 2573.59,1630.98 2571.67,1642.01 2571.32,1653.2 2572.57,1664.33 2575.39,1675.17 2579.71,1685.5 2585.46,1695.11 2592.51,1703.81 2597.07,1708.3 2601.35,1711.92 2610.63,1718.19 2610.63,2510.63 1789.37,2510.63 1789.12,2506.24 1788.48,2502.29 1787.43,2498.43 1786,2494.69 1784.19,2491.12 1781.8,2487.43 1779.01,2484.02 1776.16,2481.21 1773.04,2478.71 1769.34,2476.34 1765.39,2474.39 1761.63,2473.02 1757.36,2471.96 1753.4,2471.41 1749.4,2471.27 1745.41,2471.53 1739.13,2472.79 1733.15,2475.05 1727.61,2478.25 1722.66,2482.3 1718.43,2487.1 1715.04,2492.53 1712.57,2498.43 1711.15,2504.25 1710.63,2510.63" style="stroke:rgb(138,174,245);stroke-width:0.000000;fill:none;stroke-opacity:0.5;stroke-linecap:round;stroke-linejoin:round;;fill:none"/>
<polyline points="1710.63,2510.63 1710.79,2592.97 1711.89,2599.27 1714,2605.31 1717.28,2611.26 1721.26,2616.28 1725.68,2620.33 1730.31,2623.47 1735.72,2626.06 1741.46,2627.8 1747.4,2628.66 1753.4,2628.59 1759.32,2627.62 1764.65,2625.91 1769.68,2623.47 1774.64,2620.08 1779.01,2615.98 1782.5,2611.6 1785.49,2606.4 1787.67,2600.81 1788.91,2595.35 1789.37,2589.37 2650.79,2589.36 2658.65,2588.41 2666.16,2585.9 2673.01,2581.95 2678.39,2577.27 2683.27,2571.04 2686.52,2564.7 2688.57,2557.88 2689.36,2550.79 2689.37,1718.19 2698.01,1712.41 2705.25,1706.1 2711.67,1698.96 2717.58,1690.41 2722.32,1681.15 2725.57,1672.11 2727.83,1661.96 2728.7,1652.4 2728.48,1643.6 2727.42,1635.67 2725.57,1627.89 2722.94,1620.33 2719.17,1612.38 2714.99,1605.55 2710.15,1599.18 2704.68,1593.34 2696.09,1586.16 2686.56,1580.27 2676.3,1575.78 2666.29,1572.96 2655.2,1571.43 2644,1571.49 2632.92,1573.13 2622.94,1576.06 2612.73,1580.64 2603.26,1586.63 2595.32,1593.34 2587.84,1601.67 2581.61,1610.98 2577.06,1620.33 2573.59,1630.98 2571.67,1642.01 2571.32,1653.2 2572.57,1664.33 2575.39,1675.17 2579.71,1685.5 2585.46,1695.11 2592.51,1703.81 2597.07,1708.3 2601.35,1711.92 2610.63,1718.19 2610.63,2510.63 1789.37,2510.63 1789.12,2506.24 1788.48,2502.29 1787.43,2498.43 1786,2494.69 1784.19,2491.12 1781.8,2487.43 1779.01,2484.02 1776.16,2481.21 1773.04,2478.71 1769.34,2476.34 1765.39,2474.39 1761.63,2473.02 1757.36,2471.96 1753.4,2471.41 1749.4,2471.27 1745.41,2471.53 1739.13,2472.79 1733.15,2475.05 1727.61,2478.25 1722.66,2482.3 1718.43,2487.1 1715.04,2492.53 1712.57,2498.43 1711.15,2504.25 1710.63,2510.63" style="stroke:rgb(0,0,0);stroke-width:1px;fill:none;stroke-opacity:1;stroke-linecap:round;stroke-linejoin:round;;fill:none"/>
<polyline points="1821.32,853.202 1821.52,843.604 1822.88,834.1 1825.14,825.592 1828.66,816.664 1833.68,807.554 1840.37,798.574 1848.27,790.636 1857.21,783.898 1867.02,778.498 1877.5,774.544 1888.43,772.114 1899.6,771.262 1909.98,771.896 1920.19,773.892 1930.04,777.216 1939.37,781.81 1948.01,787.594 1955.82,794.464 1962.65,802.306 1968.19,810.63 2650,810.63 2654.74,810.918 2659.42,811.774 2663.96,813.19 2668.3,815.14 2672.36,817.6 2676.11,820.532 2679.47,823.894 2682.84,828.294 2685.22,832.41 2687.34,837.534 2688.57,842.126 2689.3,847.624 2689.37,1181.81 2695.44,1185.69 2701.73,1190.64 2706.94,1195.61 2712.16,1201.67 2716.32,1207.55 2720.28,1214.5 2723.23,1221.07 2725.79,1228.66 2727.42,1235.67 2728.41,1242.81 2728.74,1250 2728.33,1257.99 2727.27,1265.12 2725.34,1272.88 2722.94,1279.67 2719.55,1286.92 2716.75,1291.77 2713.13,1297.06 2705.82,1305.54 2701.12,1309.89 2696.73,1313.37 2687.27,1319.36 2677.06,1323.95 2671.73,1325.68 2665.51,1327.2 2659.18,1328.2 2653.6,1328.66 2647.2,1328.69 2641.61,1328.29 2630.59,1326.31 2624.45,1324.48 2619.22,1322.48 2614.14,1320.1 2608.57,1316.96 2603.26,1313.37 2598.88,1309.89 2590.9,1302.03 2587.35,1297.7 2583.68,1292.45 2580.83,1287.63 2578,1281.88 2575.92,1276.68 2573.99,1270.57 2572.57,1264.33 2571.67,1257.99 2571.28,1251.6 2571.41,1245.2 2572.06,1238.83 2573.22,1232.54 2574.89,1226.36 2577.06,1220.33 2579.71,1214.5 2582.83,1208.91 2586.39,1203.59 2590.37,1198.57 2594.75,1193.9 2599.49,1189.6 2605.22,1185.23 2610.63,1181.81 2610.63,889.372 1968.19,889.372 1964.99,894.452 1961.67,898.96 1954.1,907.214 1945.44,914.31 1935.85,920.104 1925.55,924.482 1914.72,927.352 1903.6,928.658 1892.41,928.374 1883.71,927.038 1874.45,924.482 1865.58,920.818 1857.21,916.104 1849.49,910.406 1843.06,904.39 1836.87,897.058 1831.61,889.024 1827.68,881.148 1824.43,872.114 1822.3,862.754 1821.32,853.202" style="stroke:rgb(177,8,8);stroke-width:0.000000;fill:none;stroke-opacity:0.5;stroke-linecap:round;stroke-linejoin:round;;fill:none"/>
<polyline points="1821.32,853.202 1821.52,843.604 1822.88,834.1 1825.14,825.592 1828.66,816.664 1833.68,807.554 1840.37,798.574 1848.27,790.636 1857.21,783.898 1867.02,778.498 1877.5,774.544 1888.43,772.114 1899.6,771.262 1909.98,771.896 1920.19,773.892 1930.04,777.216 1939.37,781.81 1948.01,787.594 1955.82,794.464 1962.65,802.306 1968.19,810.63 2650,810.63 2654.74,810.918 2659.42,811.774 2663.96,813.19 2668.3,815.14 2672.36,817.6 2676.11,820.532 2679.47,823.894 2682.84,828.294 2685.22,832.41 2687.34,837.534 2688.57,842.126 2689.3,847.624 2689.37,1181.81 2695.44,1185.69 2701.73,1190.64 2706.94,1195.61 2712.16,1201.67 2716.32,1207.55 2720.28,1214.5 2723.23,1221.07 2725.79,1228.66 2727.42,1235.67 2728.41,1242.81 2728.74,1250 2728.33,1257.99 2727.27,1265.12 2725.34,1272.88 2722.94,1279.67 2719.55,1286.92 2716.75,1291.77 2713.13,1297.06 2705.82,1305.54 2701.12,1309.89 2696.73,1313.37 2687.27,1319.36 2677.06,1323.95 2671.73,1325.68 2665.51,1327.2 2659.18,1328.2 2653.6,1328.66 2647.2,1328.69 2641.61,1328.29 2630.59,1326.31 2624.45,1324.48 2619.22,1322.48 2614.14,1320.1 2608.57,1316.96 2603.26,1313.37 2598.88,1309.89 2590.9,1302.03 2587.35,1297.7 2583.68,1292.45 2580.83,1287.63 2578,1281.88 2575.92,1276.68 2573.99,1270.57 2572.57,1264.33 2571.67,1257.99 2571.28,1251.6 2571.41,1245.2 2572.06,1238.83 2573.22,1232.54 2574.89,1226.36 2577.06,1220.33 2579.71,1214.5 2582.83,1208.91 2586.39,1203.59 2590.37,1198.57 2594.75,1193.9 2599.49,1189.6 2605.22,1185.23 2610.63,1181.81 2610.63,889.372 1968.19,889.372 1964.99,894.452 1961.67,898.96 1954.1,907.214 1945.44,914.31 1935.85,920.104 1925.55,924.482 1914.72,927.352 1903.6,928.658 1892.41,928.374 1883.71,927.038 1874.45,924.482 1865.58,920.818 1857.21,916.104 1849.49,910.406 1843.06,904.39 1836.87,897.058 1831.61,889.024 1827.68,881.148 1824.43,872.114 1822.3,862.754 1821.32,853.202" style="stroke:rgb(0,0,0);stroke-width:1px;fill:none;stroke-opacity:1;stroke-linecap:round;stroke-linejoin:round;;fill:none"/>
<polyline points="1860.63,849.6 1860.79,853.598 1862.1,860.674 1863.38,864.464 1865.04,868.106 1867.06,871.56 1869.42,874.792 1872.09,877.77 1875.05,880.458 1881.01,884.49 1886.85,887.11 1893.03,888.75 1900.2,889.37 1906.57,888.818 1913.53,886.974 1919.34,884.294 1925,880.412 1921.95,877.626 1919.29,874.638 1916.95,871.394 1914.59,867.212 1913.03,863.53 1911.65,858.928 1910.95,854.99 1910.63,850.202 1910.81,846.204 1911.4,842.246 1912.39,838.37 1914.08,833.878 1915.9,830.316 1918.08,826.958 1921.12,823.244 1925,819.59 1924.64,819.292 1918.64,815.322 1915.02,813.608 1911.25,812.272 1904.19,810.856 1900.2,810.632 1896.2,810.814 1889.13,812.16 1885.35,813.458 1881.72,815.134 1878.27,817.17 1875.05,819.544 1872.09,822.232 1869.42,825.21 1865.41,831.188 1863.68,834.796 1862.33,838.56 1860.87,845.608 1860.63,849.6" style="stroke:rgb(177,8,8);stroke-width:0.000000;fill:none;stroke-opacity:0.5;stroke-linecap:round;stroke-linejoin:round;;fill:none"/>
<polyline points="1860.63,849.6 1860.79,853.598 1862.1,860.674 1863.38,864.464 1865.04,868.106 1867.06,871.56 1869.42,874.792 1872.09,877.77 1875.05,880.458 1881.01,884.49 1886.85,887.11 1893.03,888.75 1900.2,889.37 1906.57,888.818 1913.53,886.974 1919.34,884.294 1925,880.412 1921.95,877.626 1919.29,874.638 1916.95,871.394 1914.59,867.212 1913.03,863.53 1911.65,858.928 1910.95,854.99 1910.63,850.202 1910.81,846.204 1911.4,842.246 1912.39,838.37 1914.08,833.878 1915.9,830.316 1918.08,826.958 1921.12,823.244 1925,819.59 1924.64,819.292 1918.64,815.322 1915.02,813.608 1911.25,812.272 1904.19,810.856 1900.2,810.632 1896.2,810.814 1889.13,812.16 1885.35,813.458 1881.72,815.134 1878.27,817.17 1875.05,819.544 1872.09,822.232 1869.42,825.21 1865.41,831.188 1863.68,834.796 1862.33,838.56 1860.87,845.608 1860.63,849.6" style="stroke:rgb(0,0,0);stroke-width:1px;fill:none;stroke-opacity:1;stroke-linecap:round;stroke-linejoin:round;;fill:none"/>
</svg>
